<svg xmlns="http://www.w3.org/2000/svg" xmlns:xlink="http://www.w3.org/1999/xlink" width="926.19" height="620.34" viewBox="0 0 926.19 620.34"><defs><clipPath id="a"><path d="M414.2,254.43c-30-23.88-78.37-19.79-103.9,8.78a48,48,0,0,0-71.37,27.44c-17.57-4.66-37.7,8.67-40.27,26.67-4.53,9.9-10.64,19.8-12.95,30.93s-.05,23.9,8.51,31.37c1.64,1.43,3.55,2.74,4.37,4.75a11.73,11.73,0,0,1,.52,4.42,66.2,66.2,0,0,0,2.65,18.29,37.37,37.37,0,0,0,6.29,13,26.49,26.49,0,0,0,25.23,9.24c7.19,22.89,30.94,34.35,49.1,26.57,4.49,11.42,19.34,17.41,30.51,12.31,3.29-1.5,6.48-3.85,10.1-3.63,3.25.2,5.94,2.45,8.61,4.33a46.12,46.12,0,0,0,41.76,5.38c4.11-1.53,8.21-3.69,12.58-3.44,5,.27,9.28,3.65,13.89,5.67,13,5.67,27.92.41,40.74-5.58,3-1.41,6.16-2.88,9.46-2.57s6,2.29,8.74,4.07c17.2,11.28,42.26,15.91,57,1.6,15.88,10.84,39.14,9.21,53.35-3.74,15.24,10.55,37.11,9.76,47.86-2.89,19.81,13.24,50.33,5.6,61.58-15.41,8.83-2.17,17.68-6,23.33-13.16s7.12-18.11,1.47-25.24c18.47-9.21,26.69-34.6,17.12-52.89a33.2,33.2,0,0,0,1-61.53c-.67-.28-1.78-2.06-3.44-2.69-9.69-19.08-32.86-29.95-53.8-25.62C648.05,251.66,617,247.23,596,261.1c-15.86-21.56-47.95-29.21-71.84-17.12-2.46,1.24-4.9,2.69-7.63,3.07-4.94.71-9.58-2.14-14-4.47a75.6,75.6,0,0,0-35.17-8.44c-19.44,0-38.95,7-53.19,20.29" fill="none"/></clipPath><clipPath id="b"><path d="M301.67,168.28C265,187.58,246.47,212,236.21,256c-3.26,14-3.73,29.78,3.32,41.85s23.57,17.56,33.35,9.33c65.71-.67,129.68,21.18,193.44,39s130.71,31.89,194.8,15.6c30.07-7.65,62-25.84,70.64-59.08,6.9-26.65-.49-63.66-16.27-84.7-15.21-20.27-43-41.29-78.87-56.74-52.92-22.77-123.43-33.72-173.31-33.72-54.28,0-110.25,13.7-161.64,40.69" fill="none"/></clipPath><clipPath id="c"><rect x="287.36" y="129.87" width="465.4" height="264.58" fill="none"/></clipPath><clipPath id="d"><path d="M244.25,136.08c-21.32,10.55-35,20.87-47.09,41.37-14.21,24.14-20.67,53.33-15.1,80.79,5.46,26.95,22.16,50.86,43.58,68.12,35.64,28.73,86.43,39.38,129.11,22.85a117.34,117.34,0,0,0,55.59-173.94A119.09,119.09,0,0,0,323.67,123c-5.45-.53-10.83-.78-16.11-.78-23.92,0-45.85,5.21-63.31,13.84" fill="none"/></clipPath><clipPath id="e"><rect x="198.54" y="146.66" width="247.92" height="246.51" fill="none"/></clipPath><clipPath id="f"><path d="M696.06,232.63c-4.63,5-5.34,12.52-3.8,19.1s5,12.54,7.83,18.68c10.08,21.69,12.85,46,14.59,69.8s2.64,48,9.39,70.92,20.24,45,41.32,56.52c9.56,5.22,22.78,7.53,30.44-.2,7.25-7.31,5.34-19.92-.52-28.38s-14.71-14.36-21.8-21.83c-15.4-16.24-21.67-39.08-24-61.28s-1.32-44.71-4.74-66.77-12.08-44.5-29.69-58.35a13.13,13.13,0,0,0-8.12-2.53,15.16,15.16,0,0,0-10.89,4.32" fill="none"/></clipPath></defs><title>icon</title><ellipse cx="463.1" cy="434.34" rx="452.1" ry="175" fill="none" stroke="#679996" stroke-miterlimit="10" stroke-width="22"/><path d="M11,427.34c0-96.65,202.41-175,452.1-175s452.09,78.35,452.09,175-202.41,175-452.09,175S11,524,11,427.34" fill="#8fb8b6"/><path d="M113.1,408.55c0-66.27,156.7-120,350-120s350,53.73,350,120-156.7,120-350,120-350-53.72-350-120" fill="#ededda"/><path d="M326.86,519.12c-56-8.12-104.54-21.09-141.15-37.38-45.53-20.25-72.61-45.64-72.61-73.19" fill="none" stroke="#fffff7" stroke-linecap="round" stroke-miterlimit="10" stroke-width="10"/><g clip-path="url(#a)"><path d="M721.54,299.15a33.2,33.2,0,0,1-1,61.53c9.57,18.29,1.35,43.68-17.12,52.89,5.65,7.13,4.17,18.11-1.47,25.24s-14.5,11-23.33,13.16c-11.24,21-41.77,28.65-61.58,15.41-10.75,12.65-32.62,13.44-47.86,2.89-14.21,13-37.47,14.58-53.34,3.74-14.78,14.31-39.84,9.68-57-1.6-2.72-1.78-5.51-3.76-8.74-4.07s-6.46,1.17-9.46,2.57c-12.82,6-27.77,11.25-40.74,5.58-4.61-2-8.85-5.4-13.89-5.67-4.37-.25-8.47,1.91-12.58,3.44a46.09,46.09,0,0,1-41.76-5.38c-2.67-1.87-5.36-4.12-8.61-4.33-3.62-.22-6.81,2.13-10.1,3.64-11.16,5.09-26-.9-30.51-12.32-18.16,7.78-41.91-3.68-49.1-26.57a26.47,26.47,0,0,1-25.23-9.24,37.29,37.29,0,0,1-6.29-13,65.82,65.82,0,0,1-2.64-18.29,11.94,11.94,0,0,0-.53-4.42c-.82-2-2.73-3.32-4.37-4.75-8.56-7.46-10.81-20.24-8.51-31.37s8.42-21,13-30.93c2.56-18,22.69-31.33,40.26-26.67a48,48,0,0,1,71.37-27.44c25.53-28.57,73.94-32.66,103.9-8.78,23.17-21.63,60.31-26.6,88.36-11.85,4.41,2.33,9.06,5.18,14,4.48,2.73-.39,5.17-1.84,7.63-3.08,23.89-12.09,56-4.44,71.85,17.12,21-13.87,52-9.44,68.27,9.74,20.94-4.33,44.11,6.54,53.8,25.62,1.66.64,2.77,2.41,3.44,2.69" fill="#fff"/><path d="M721.54,299.15a33.2,33.2,0,0,1-1,61.53c9.57,18.29,1.35,43.68-17.12,52.89,5.65,7.13,4.17,18.11-1.47,25.24s-14.5,11-23.33,13.16c-11.24,21-41.77,28.65-61.58,15.41-10.75,12.65-32.62,13.44-47.86,2.89-14.21,13-37.47,14.58-53.34,3.74-14.78,14.31-39.84,9.68-57-1.6-2.72-1.78-5.51-3.76-8.74-4.07s-6.46,1.17-9.46,2.57c-12.82,6-27.77,11.25-40.74,5.58-4.61-2-8.85-5.4-13.89-5.67-4.37-.25-8.47,1.91-12.58,3.44a46.09,46.09,0,0,1-41.76-5.38c-2.67-1.87-5.36-4.12-8.61-4.33-3.62-.22-6.81,2.13-10.1,3.64-11.16,5.09-26-.9-30.51-12.32-18.16,7.78-41.91-3.68-49.1-26.57a26.47,26.47,0,0,1-25.23-9.24,37.29,37.29,0,0,1-6.29-13,65.82,65.82,0,0,1-2.64-18.29,11.94,11.94,0,0,0-.53-4.42c-.82-2-2.73-3.32-4.37-4.75-8.56-7.46-10.81-20.24-8.51-31.37s8.42-21,13-30.93c2.56-18,22.69-31.33,40.26-26.67a48,48,0,0,1,71.37-27.44c25.53-28.57,73.94-32.66,103.9-8.78,23.17-21.63,60.31-26.6,88.36-11.85,4.41,2.33,9.06,5.18,14,4.48,2.73-.39,5.17-1.84,7.63-3.08,23.89-12.09,56-4.44,71.85,17.12,21-13.87,52-9.44,68.27,9.74,20.94-4.33,44.11,6.54,53.8,25.62C719.76,297.1,720.87,298.87,721.54,299.15Z" fill="none" stroke="#c9c9c9" stroke-miterlimit="10" stroke-width="9"/><path d="M746.21,326.18l1.76-1.8c7-7.25,7.1-22.56,4.13-31.53-2.36-7.14-8.38-15.86-15.77-8.27-11.84,12.18-21.4,20.81-35.51,30-13.92,9.07-28.54,16.17-44.92,15.8-8-.18-13.81-1.65-20.43-6.21,0,0-1.2-.9-1.75-1.29l-.59-.5-3.23-3c-3.06-2.83-6.21-5.82-9.9-7.82-15.36-8.34-33.69,0-49.81.68-10.16.45-19.5-2.26-28.68-6.4-9.89-4.47-16.91-9.2-23-17.49-2.41-3.28-5.46-3.29-8.88-2.33-16.88,4.74-34.34,9.42-52,8a35.06,35.06,0,0,1-17.26-5.55c-5.72-3.53-10.92-7.85-16.61-11.45-3.11-2-6.77,0-8.88,2.32-1.33,1.48-3.8,4-4.69,4.82,0,0-1.91,1.51-2.12,1.67-1.11.82-2.24,1.59-3.4,2.33a58,58,0,0,1-12.56,5.94,53.77,53.77,0,0,1-11.51,2,69.51,69.51,0,0,1-14.27-.46c-8.85-1.17-15.93-3.54-24.59-7.89a97.9,97.9,0,0,1-12.47-7.5c-1.52-1.07-3-2.21-4.46-3.37-.11-.12-1.78-1.53-1.89-1.62-.94-.86-1.85-1.75-2.76-2.64-2.11-2.07-5.8-4.54-8.88-2.33a103.1,103.1,0,0,0-19.56,19c-2.44,3-4.83,6-7.43,8.85-1.3,1.43-2.68,2.76-4,4.13l-.43.43-.29.22c-.88.69-1.77,1.35-2.7,2-7.33,5-16.23,7.72-25,8.83-10,1.27-18.25-.59-27-5.34-5-2.71-9.14,1.91-11.21,5.93-1.58,3.07-3.28,6.09-5,9.06-1.07,1.79-2.22,3.53-3.28,5.32l-.31.48c-.61.92-1.23,1.83-1.85,2.74a185.83,185.83,0,0,1-18.81,23.53q-2.65,2.77-5.47,5.39c-.54.5-1.1,1-1.65,1.47-.28.22-1.47,1.22-1.69,1.39A59.82,59.82,0,0,1,163.88,371a42.7,42.7,0,0,1-4.23,1.67c.15-.09-1.72.36-2.22.43a27.5,27.5,0,0,1-3.15.27,30.36,30.36,0,0,1-4.68-.39c1.15.16.6.12-.12,0l-.55-.07.55.07a5.3,5.3,0,0,1-1-.27c-1.17-.52-2.32-1-3.45-1.63-8.75-4.76-13.48,10.2-14.17,16.1-1,8.31-.77,23.56,8,28.35,20.46,11.13,41.34-4.32,55.41-18.51a198.39,198.39,0,0,0,30.74-41.08,52.45,52.45,0,0,0,24.48,4.19c10.38-.89,22-3.9,31.06-9.25,7.78-4.61,14.17-11.29,19.86-18.23,2.76-3.35,5.44-6.77,8.35-10,1.35-1.5,2.75-3,4.21-4.36.19-.18.59-.54.91-.85,14.82,12.82,32.73,21.73,52.36,24.32a67.82,67.82,0,0,0,55.24-17.66c4.54,3.19,8.92,6.63,13.71,9.44a52.58,52.58,0,0,0,22.35,6.56c17.8,1.44,35.41-3.23,52.47-8,12.32,14.08,31.56,23.09,49.71,25.75,8.87,1.3,17.51-.09,26.26-1.61,4.21-.73,8.43-1.41,12.69-1.77a66.19,66.19,0,0,1,7.45-.3,27.5,27.5,0,0,1,2.86.21c.23,0,2.48.65,2.36.53a22.43,22.43,0,0,1,3.41,1.67A19.24,19.24,0,0,0,617,358l.06,0,0,0c3,2.87,6.1,5.71,9.35,8.34,7,5.69,15.8,8.68,24.75,9.73,17.62,2.07,35.8-5.08,50.69-13.94A183.7,183.7,0,0,0,723,347.39c-.45.82-.91,1.64-1.37,2.46l-.41.68c-.33.49-.92,1.38-1.06,1.57a80.78,80.78,0,0,1-6.5,8.14,22.16,22.16,0,0,1-6.72,5.08,34.18,34.18,0,0,1-4.44,1.92,12.44,12.44,0,0,1-2.63.81c-6.36,1.52,1,12.32-5,15-11.7,5.28-38.72,22.17-39.74,24.17-.07.14-.39.64-.71,1.17a2.29,2.29,0,0,0-.85,1.35c-.24.31-.49.63-.75.92s-1.53,1.49-2,2-1.77,1.18-2.08,1.36a41.25,41.25,0,0,1-9.73,4.1c.16-.06-2.52.59-3.13.72q-2.85.57-5.73.91a66.65,66.65,0,0,1-11,.4c-7.45-.38-13-1.83-19.28-6.44a6.09,6.09,0,0,0-6.12,0c-13.82,6.58-25.95,16.2-40,22.44-7.18,3.21-11.42,4.74-19.28,4.52a31.6,31.6,0,0,1-5.31-.58l-.64-.13s0,0-.35-.18c-.77-.29-1.53-.59-2.29-.93a44.82,44.82,0,0,1-5-2.89c-.32-.19-.77-.54-.93-.66-1-.87-1.87-1.84-2.76-2.79-2.09-2.24-5.8-4.39-8.88-2.33-6.55,4.38-12.26,9.85-17.93,15.29-1.38,1.32-2.75,2.64-4.15,3.92l-1.71,1.53-.93.75a53.69,53.69,0,0,1-8.3,5.28c-14.39,7-30.08.93-43.63-5-6.27-2.74-13.82-6.93-20.85-6.83-5.18.08-8.73,2.7-12.59,5.7-5.5,4.26-12.08,8.54-19,9.85-8.08,1.52-16.39-.26-24.18-2.43-8.45-2.36-12.1,6.28-13.59,13.34-1.9,9-1.64,21.41,4.71,28.78,24.69,28.65,69.07,22.52,102.29,17.82,16.39-2.32,32.89-5.62,49.48-5.95,27.22-.53,54.41,1.41,81.62-.55,13-.94,26-2.16,38.95-3.39,13.35-1.26,26.73-3.08,39.46-7.46,5.34-1.84,7.56-10.76,8.23-17.34,2.94-1.06,5.85-2.2,8.7-3.43,27.67-12,44.55-37.21,59.93-61.85,4.24-6.79,3.93-17.85,2.38-25.18a38.55,38.55,0,0,0-1.92-6.26c11.46-18.4,16.1-39.56,11-60.58" fill="#f2f2f2"/><path d="M721.54,299.15a33.2,33.2,0,0,1-1,61.53c9.57,18.29,1.35,43.68-17.12,52.89,5.65,7.13,4.17,18.11-1.47,25.24s-14.5,11-23.33,13.16c-11.24,21-41.77,28.65-61.58,15.41-10.75,12.65-32.62,13.44-47.86,2.89-14.21,13-37.47,14.58-53.34,3.74-14.78,14.31-39.84,9.68-57-1.6-2.72-1.78-5.51-3.76-8.74-4.07s-6.46,1.17-9.46,2.57c-12.82,6-27.77,11.25-40.74,5.58-4.61-2-8.85-5.4-13.89-5.67-4.37-.25-8.47,1.91-12.58,3.44a46.09,46.09,0,0,1-41.76-5.38c-2.67-1.87-5.36-4.12-8.61-4.33-3.62-.22-6.81,2.13-10.1,3.64-11.16,5.09-26-.9-30.51-12.32-18.16,7.78-41.91-3.68-49.1-26.57a26.47,26.47,0,0,1-25.23-9.24,37.29,37.29,0,0,1-6.29-13,65.82,65.82,0,0,1-2.64-18.29,11.94,11.94,0,0,0-.53-4.42c-.82-2-2.73-3.32-4.37-4.75-8.56-7.46-10.81-20.24-8.51-31.37s8.42-21,13-30.93c2.56-18,22.69-31.33,40.26-26.67a48,48,0,0,1,71.37-27.44c25.53-28.57,73.94-32.66,103.9-8.78,23.17-21.63,60.31-26.6,88.36-11.85,4.41,2.33,9.06,5.18,14,4.48,2.73-.39,5.17-1.84,7.63-3.08,23.89-12.09,56-4.44,71.85,17.12,21-13.87,52-9.44,68.27,9.74,20.94-4.33,44.11,6.54,53.8,25.62C719.76,297.1,720.87,298.87,721.54,299.15Z" fill="none" stroke="#d9d2bf" stroke-miterlimit="10" stroke-width="24"/></g><path d="M726.12,323.8l-6.38-8.48c5,15-1,32.2-12.42,43.13s-27.25,16.23-38.8,19a76,76,0,0,1-126.62,4.93c-30.77,15.55-71.9,6.5-93.3-20.52C429.7,376.84,398.43,372,385,352a54.68,54.68,0,0,1-88.88,19.48c-9.57,10.32-23.88,15.53-38,15.74S230.21,383,217.77,376.4c-9.13-4.83-18.05-11.31-22.19-20.78-5.19-11.84-1.66-26,5.49-36.78,15.31-23.06,44.76-33.17,72.44-33.32s54.64,8,81.67,14c97,21.48,197.78,15.6,296.7,6.56,25.18-2.3,52.56-4.3,74.24,17.75" fill="#f2f2f2"/><path d="M716.66,315.51c-32.85,30.24-79.31,41.14-116.33,59-5.25,2.54-10.75,5.11-14,9.7s-3.5,11.9,1.26,16.38,11.9,4.27,17.86,3.32c44.6-7.13,78.92-36.66,103.71-70.58,2.8-3.84,5.57-7.89,6.4-12.69s3.49-2-.87-5.37,2.12-.64,2,.2" fill="#efc355"/><g clip-path="url(#b)"><path d="M272.88,307.2c65.71-.68,129.68,21.17,193.44,39s130.71,31.89,194.8,15.6c30.07-7.65,62-25.84,70.64-59.08,6.9-26.65-.49-63.66-16.27-84.7-15.21-20.27-43-41.28-78.87-56.74-52.92-22.77-123.43-33.72-173.31-33.72-54.28,0-110.25,13.7-161.64,40.7C265,187.58,246.47,212,236.21,256c-3.26,14-3.73,29.79,3.33,41.85s23.56,17.56,33.34,9.34" fill="#ffdc6b"/><path d="M272.88,307.2c65.71-.68,129.68,21.17,193.44,39s130.71,31.89,194.8,15.6c30.07-7.65,62-25.84,70.64-59.08,6.9-26.65-.49-63.66-16.27-84.7-15.21-20.27-43-41.28-78.87-56.74-52.92-22.77-123.43-33.72-173.31-33.72-54.28,0-110.25,13.7-161.64,40.7C265,187.58,246.47,212,236.21,256c-3.26,14-3.73,29.79,3.33,41.85S263.1,315.42,272.88,307.2Z" fill="none" stroke="#ffdc6b" stroke-miterlimit="10"/><g clip-path="url(#c)"><path d="M306.17,156.59c-.61-11.27,9.33-21.38,20.6-24.83s23.42-1.64,34.75,1.15c97.27,24,161.55,112.22,252.58,152.3a275.23,275.23,0,0,0,93.81,22.64c9.28.56,18.79.71,27.44,3.85s16.43,10.1,17.32,19c1.17,11.76-9.49,21.57-19.82,28.22-32.33,20.82-70.86,31.34-109.33,34.46s-77-.87-114.89-7.13c-42.41-7-84.74-17.06-122.52-36.43S315.17,301,298.47,263s-14.92-84.79,7.7-106.41" fill="#dba339"/></g></g><path d="M230.2,248.9c-4.91-1.45-10.74-.08-14.72,2.46s-6.47,6.05-8.74,9.51a180.47,180.47,0,0,0-26.25,62.4c-1,4.89-.61,11.29,5.84,13,4.18,1.07,8.66-.59,12.49-2.2l52.51-22c5.84-2.45,11.85-5,15.88-8.92,6-5.77,6.6-13.55,5.3-20.67a37.43,37.43,0,0,0-12.63-22.26C252.56,254,240.65,252,230.2,248.9" fill="#efc355"/><path d="M256.71,282.78c-24.51,23.05-38.85,54.19-39.47,85.69-.07,3.83.46,8.33,4.21,10.31,5,2.64,11-1.27,15.81-4.22,15.32-9.41,35.24-9.91,53.74-12.42s38.86-9.05,45.93-24.23c7.15-15.37-3.22-33.56-18.76-43.06s-35-12.4-61.46-12.07" fill="#efc355"/><g clip-path="url(#d)"><path d="M324.86,123.42A117.32,117.32,0,0,1,425.3,275.92a119.11,119.11,0,0,1-69.36,73.68c-42.68,16.54-93.48,5.88-129.12-22.84-21.41-17.26-38.11-41.17-43.57-68.13-5.57-27.46.89-56.64,15.1-80.79,12.06-20.49,25.77-30.82,47.09-41.36s49.29-16,79.42-13.06" fill="#ffdc6b"/><g clip-path="url(#e)"><path d="M394,150.53a125.86,125.86,0,0,1-19.82,93.69c-15.3,22.18-37.67,39-62.3,49.91s-51.47,16.24-78.35,18.15c-6.76.48-13.65.78-20,3.05s-12.33,6.92-14.28,13.42c-2,6.8.71,14.33,5.34,19.72s10.9,9.07,17.07,12.6c22.56,12.91,45.91,25.52,71.48,30.21,50.65,9.29,105.18-16.38,132.54-60S453,229.05,427.94,184.07c-13.57-24.36-36.39-46.61-33.92-33.54" fill="#dba339"/></g></g><path d="M298.66,162.26c.26-33.88-18-67.32-46.72-85.36-5.85-3.68-13.39-6.75-19.41-3.37-5.36,3-7.07,9.75-8.28,15.77q-5.34,26.55-10.67,53.09c-1.16,5.8-2.11,12.51,1.71,17,4.25,5,11.9,4.56,18.47,4.47A82,82,0,0,1,265.9,170c6.47,2.65,13,6.22,20,5.75s12.76-7.28,12.81-13.51" fill="#e3aa49"/><path d="M375.27,226.68c-4.37-1.91-4-8.86-.43-12s8.78-3.48,13.55-3.57a343.92,343.92,0,0,1,53.75,3.23c6.21.87,12.75,2.07,17.47,6.2,8.92,7.81,7.35,22.1,3.25,33.23a112.23,112.23,0,0,1-27.71,42.15c-6.55,6.24-14.23,11.86-23.15,13.44s-19.21-1.86-23.35-9.92c-2.89-5.62-2.4-12.29-2.37-18.61.09-20.28-5.47-40.55-11-54.15" fill="#e3aa49"/><g clip-path="url(#f)"><path d="M715.07,230.84c17.61,13.85,26.27,36.29,29.69,58.35s2.4,44.57,4.74,66.77,8.61,45,24,61.28c7.09,7.48,15.94,13.37,21.8,21.83s7.77,21.07.52,28.39c-7.66,7.72-20.88,5.41-30.44.19-21.08-11.51-34.57-33.58-41.32-56.52s-7.65-47.09-9.39-70.92-4.51-48.11-14.59-69.8c-2.85-6.14-6.29-12.1-7.83-18.68s-.83-14.15,3.8-19.1,13.93-5.79,19-1.79" fill="#ffdc6b"/><path d="M822.72,484.45c-.54-12.17-10.81-25.79-24.44-24.44a48.58,48.58,0,0,1-6.49.26c-.38,0-.76,0-1.13-.08-1.7-.45-3.44-.77-5.13-1.3.08,0-.87-.25-1.74-.54L783,458q-2.58-1.29-5-2.8c-.7-.43-1.38-.89-2.07-1.35l.31.43a4.12,4.12,0,0,0-.38-.47l-.62-.41c-.85-.55-1.17-1-1.09-1.13-.85-.66-1.74-1.29-2.39-1.89-1.65-1.54-3.23-3.15-4.76-4.82-1.19-1.29-2.31-2.64-3.44-4-.45-.75-1.34-1.69-1.8-2.32-2.65-3.69-5.13-7.51-7.52-11.38a246,246,0,0,1-12.9-23.31c-.24-.5-1-2-1.57-3.19-.7-1.59-1.26-3.26-1.86-4.88A129.44,129.44,0,0,1,733.76,383c-1-4.12-1.79-8.29-2.5-12.48,0-.08,0-.19,0-.32,0-.31-.07-.6-.09-.78q-.43-3.82-.73-7.65c-1.35-17.13-1-34.34-2-51.49-1.31-23.11-5.23-45.11-15.18-66.12-5.49-11.59-23-15.5-33.44-8.77-11.92,7.68-14.65,21.05-8.77,33.44.11.24.4.74.69,1.29a5.55,5.55,0,0,0,.18.61c.72,2.11,1.52,4.19,2.18,6.32A122.89,122.89,0,0,1,677.29,290c.12.6.6,2.2.93,3.7-.09-.11-.12.22,0,1.4s.26,2.23.38,3.35c.46,4.5.78,9,1,13.54,1,18.58.5,37.23,2.44,55.75A183.31,183.31,0,0,0,699.5,430c8.61,17.81,19.51,35.49,32.92,50.08,16.38,17.83,41,31.25,65.86,28.8,6.64-.66,12.41-2.29,17.28-7.16,4.24-4.24,7.44-11.2,7.16-17.29" fill="#efc355"/><path d="M775.85,453.78l.07,0c-1-1.35-1.7-1.72-1.78-1.58a13.66,13.66,0,0,1,1.71,1.54" fill="#efc355"/></g><path d="M210,256.28c-7.09-11.6-12.73-23.37-15.83-36.67-1-4.39-7.75-2.53-6.75,1.86,3.1,13.56,8,27.16,15.69,38.84,2.79,4.27,9.59.39,6.89-4" fill="#665c48"/><path d="M355.48,310.31c-6.87-.91-14.4.38-21.41,0a124.57,124.57,0,0,1-21.82-3.11c-5.61-1.31-8,7.3-2.38,8.65a147.71,147.71,0,0,0,23.27,3.77c7.26.55,16.49,1.38,23.47-1,4.79-1.62,3.5-7.73-1.13-8.34" fill="#665c48"/><path d="M253.62,312c-3.82,1.88-8,5-11.35.47a11.74,11.74,0,0,1-2-5.36c-.26-1.57.36-3.59-.67-4.06l1-.55c2.69-1.56,1.69-6.43-1.67-6.16a5.82,5.82,0,0,0-3.5,1.42c-4,2-8.49,3.48-12.37.64a21.93,21.93,0,0,1-7.2-9.89c-1.68-4.43-8.83-2.58-7.2,2,2.22,6.16,5.92,12.46,11.91,15.6,4.24,2.22,8.44,1.73,12.47.21a22.67,22.67,0,0,0,2.53,9c4.86,8.4,14.7,8.29,22.34,3.88,4.7-2.72.56-9.57-4.22-7.22" fill="#665c48"/><path d="M104.21,99.32c-1.88,2.13-3.53,4.33-5.34,6.38-2.12,2.42-4,3.4-5.92,1.71-1.62-1.42-3-2.84-2.49-5.57.66-3.58,9.87-14.48,12.74-17.75,1.93-2.2,3.76-4.49,5.69-6.69,2.93-3.33,6.6-6.77,10.58-7.93A5.56,5.56,0,0,1,125,70.89c6.93,6.08,1.89,32,6.37,35.9,1.56,1.37,6-3.66,7.29-5.15,1.75-2,3.35-4.23,5.16-6.29,2.37-2.7,4.15-4.4,6.49-2.34,1.61,1.41,2.74,2.65,2.32,5.43-.67,4.44-11.82,17-15.38,21.08-3.87,4.4-13.27,15-18,10.88-8.74-7.69-2.66-32.66-7.4-36.82C110.38,92.3,105.39,98,104.21,99.32Z" fill="#0071bc"/><path d="M173.2,37.05c-2.6,1.13-5,2.42-7.54,3.52-2.94,1.29-5.06,1.39-6.09-1-.86-2-1.47-3.83.11-6.11,2.11-3,15.07-8.93,19.06-10.67,2.68-1.17,5.31-2.47,8-3.65,4.07-1.77,8.85-3.34,12.94-2.7A5.59,5.59,0,0,1,204,20.09c3.69,8.44-11.84,29.76-9.45,35.22.83,1.9,7-.79,8.79-1.58,2.42-1.06,4.83-2.41,7.34-3.51,3.28-1.44,5.62-2.23,6.87.63.86,2,1.35,3.56-.2,5.9-2.49,3.74-17.93,10.42-22.86,12.58-5.37,2.34-18.38,8-20.88,2.24C169,60.9,185.07,40.86,182.54,35.08,181.77,33.3,174.84,36.33,173.2,37.05Z" fill="#0071bc"/><path d="M253.87,12.31c-2.83.19-5.55.58-8.29.76-3.2.21-5.23-.42-5.4-3-.14-2.15-.08-4.1,2.18-5.7,3-2.08,17.21-3.28,21.55-3.57,2.92-.19,5.84-.52,8.76-.71C277.1-.18,282.13,0,285.76,2a5.62,5.62,0,0,1,2.88,4.88c.6,9.2-21.25,24-20.86,29.91.13,2.08,6.83,1.64,8.81,1.51,2.64-.17,5.35-.63,8.09-.81,3.58-.23,6.05-.19,6.25,2.93.14,2.14.06,3.81-2.2,5.49-3.61,2.66-20.4,3.7-25.77,4.05-5.85.38-20,1.24-20.4-5-.76-11.61,21.18-25,20.77-31.29C263.2,11.7,255.66,12.2,253.87,12.31Z" fill="#0071bc"/><path d="M317.4,19.08c3.08.46,3.18,2.75,2.8,5.32-.56,3.75-2.77,3.58-5.89,3.12s-4.07-1.88-3.61-5,1.5-4.21,4.78-3.72Z" fill="#0071bc"/><path d="M356.46,24.87c3.09.45,3.19,2.74,2.81,5.32-.56,3.75-2.77,3.58-5.89,3.12s-4.07-1.88-3.61-5,1.5-4.2,4.78-3.72Z" fill="#0071bc"/><path d="M395.53,30.65c3.09.46,3.19,2.75,2.8,5.32-.55,3.75-2.76,3.59-5.88,3.12s-4.07-1.88-3.61-5,1.5-4.21,4.78-3.72Z" fill="#0071bc"/></svg>