<svg xmlns="http://www.w3.org/2000/svg" width="926.19" height="372" viewBox="0 0 926.19 372"><title>dishAka</title><ellipse cx="463.1" cy="186" rx="452.1" ry="175" fill="none" stroke="#c7664e" stroke-miterlimit="10" stroke-width="22"/><path d="M11,179C11,82.35,213.41,4,463.1,4S915.19,82.35,915.19,179,712.78,354,463.1,354,11,275.65,11,179" fill="#f28066"/><path d="M113.1,160.21c0-66.27,156.7-120,350-120s350,53.73,350,120-156.7,120-350,120-350-53.72-350-120" fill="#ededda"/><path d="M326.86,270.78c-56-8.12-104.54-21.09-141.15-37.38-45.53-20.25-72.61-45.64-72.61-73.19" fill="none" stroke="#fffff7" stroke-linecap="round" stroke-miterlimit="10" stroke-width="10"/><path d="M776.73,213.54c-19,13.12-44.86,24.89-75.91,34.75" fill="none" stroke="#fffff7" stroke-linecap="round" stroke-miterlimit="10" stroke-width="10"/><path d="M704.44,73.3c33,10.77,59.85,23.73,78.61,38.19" fill="none" stroke="#fffff7" stroke-linecap="round" stroke-miterlimit="10" stroke-width="10"/><path d="M463.1,40.21q21.28,0,41.93.85c31.2,1.28,61.14,4,89.27,7.87" fill="none" stroke="#fffff7" stroke-linecap="round" stroke-miterlimit="10" stroke-width="10"/></svg>