<svg xmlns="http://www.w3.org/2000/svg" xmlns:xlink="http://www.w3.org/1999/xlink" width="926.19" height="435.73" viewBox="0 0 926.19 435.73"><defs><clipPath id="a"><path d="M11,242.73c0,96.65,202.41,175,452.1,175s452.65-78.36,452.09-175c-.54-93-204.45-161.27-452.09-175C213.79,53.9,11,146.08,11,242.73" fill="none"/></clipPath></defs><title>dishKin</title><ellipse cx="463.1" cy="249.73" rx="452.1" ry="175" fill="none" stroke="#cfa836" stroke-miterlimit="10" stroke-width="22"/><g clip-path="url(#a)"><path d="M11,242.73c0-96.65,202.41-175,452.1-175s452.09,78.35,452.09,175-202.41,175-452.09,175S11,339.38,11,242.73" fill="#f7ca28"/><path d="M535.5,425.21c-27-88.53-22.42-76-48.48-164.8-46.69,81.52-42.33,78.73-92.52,157.8,74.57,11.69,65.69,2,141,7" fill="#ffed85"/><path d="M81.36,44.82l-1.1-.37a2.87,2.87,0,0,0,1.1.37" fill="#ffed85"/><path d="M108.84.29c-19.47,2-38.64,19.5-35,38.73,4,2.83,8,5.67,7.53,5.8Q242.67,99.92,403,158.55C325.64,107.39,247,58.23,164.53,16,147.1,7.11,128.31-1.72,108.84.29" fill="#ffed85"/><path d="M520.06,202c38.44-58.78,71.44-97.78,91.44-127.78-60-5-128.38-9.15-201-5C427,127.48,447,122.84,463.87,181Q433.43,169.7,403,158.55q33.87,22.39,67.48,45.18,8.25,28.35,16.56,56.68,9.39-16.38,18.67-32.84C613.13,300.33,660.06,332.46,767.5,405.21c30.19-26,98.39-24.8,115-61C756.25,292.33,646.71,249.63,520.06,202" fill="#ffed85"/></g><path d="M113.1,223.94c0-66.27,156.7-120,350-120s350,53.73,350,120-156.7,120-350,120-350-53.73-350-120" fill="#ffe8a3"/><path d="M326.86,334.51c-56-8.12-104.54-21.09-141.15-37.38-45.53-20.26-72.61-45.64-72.61-73.19" fill="none" stroke="#cf9430" stroke-linecap="round" stroke-miterlimit="10" stroke-width="10"/><path d="M776.73,277.26c-19,13.13-44.86,24.9-75.91,34.75" fill="none" stroke="#cf9430" stroke-linecap="round" stroke-miterlimit="10" stroke-width="10"/><path d="M704.44,137c33,10.77,59.85,23.73,78.61,38.19" fill="none" stroke="#cf9430" stroke-linecap="round" stroke-miterlimit="10" stroke-width="10"/><path d="M463.1,103.94q21.28,0,41.93.85c31.2,1.28,61.14,4,89.27,7.87" fill="none" stroke="#cf9430" stroke-linecap="round" stroke-miterlimit="10" stroke-width="10"/></svg>