<svg xmlns="http://www.w3.org/2000/svg" xmlns:xlink="http://www.w3.org/1999/xlink" width="926.19" height="390.44" viewBox="0 0 926.19 390.44"><defs><clipPath id="a"><path d="M11,183.74c0,96.65,202.41,175,452.1,175s452.09-78.35,452.09-175S712.78,8.74,463.1,8.74,11,87.09,11,183.74" fill="none"/></clipPath></defs><title>dishGin</title><ellipse cx="463.1" cy="190.74" rx="452.1" ry="175" fill="none" stroke="#849599" stroke-miterlimit="10" stroke-width="22"/><g clip-path="url(#a)"><path d="M11,183.74c0-96.65,202.41-175,452.1-175s452.09,78.35,452.09,175-202.41,175-452.09,175S11,280.39,11,183.74" fill="#a5b2b5"/><path d="M575.59,390.44c-27-88.53-62.51-100.2-88.57-189-46.69,81.52-86.21,84.88-136.39,164,74.56,11.69,141.52-4.6,216.83.41" fill="#c7cfd4"/><path d="M229.84,9.3c-19.47,2-38.64,19.5-35,38.73,4,2.84,8,5.67,7.53,5.8C309.9,90.56,296.07,60.4,403,99.56,325.64,48.4,368,67.24,285.53,25,268.1,16.12,249.31,7.29,229.84,9.3" fill="#c7cfd4"/><path d="M520.06,143c32.76-58.69,46.4-92.22,59.4-129.22-63-12-113.37-23.66-179.58-.41C416.33,71.65,447,63.85,463.87,122Q433.43,110.7,403,99.56q33.87,22.39,67.48,45.18,8.25,28.37,16.56,56.68,9.39-16.38,18.67-32.83C613.13,241.34,676,277,783.46,349.79c30.19-26,99.24-21.47,115.86-57.68Q709.95,214.29,520.06,143" fill="#c7cfd4"/></g><path d="M113.1,165c0-66.27,156.7-120,350-120s350,53.73,350,120-156.7,120-350,120-350-53.72-350-120" fill="#d9dbdb"/><path d="M326.86,275.52c-56-8.12-104.54-21.09-141.15-37.38C140.18,217.89,113.1,192.5,113.1,165" fill="none" stroke="#848c8c" stroke-linecap="round" stroke-miterlimit="10" stroke-width="10"/><path d="M776.73,218.28c-19,13.12-44.86,24.89-75.91,34.75" fill="none" stroke="#848c8c" stroke-linecap="round" stroke-miterlimit="10" stroke-width="10"/><path d="M704.44,78c33,10.77,59.85,23.73,78.61,38.19" fill="none" stroke="#848c8c" stroke-linecap="round" stroke-miterlimit="10" stroke-width="10"/><path d="M463.1,45q21.28,0,41.93.86c31.2,1.27,61.14,4,89.27,7.86" fill="none" stroke="#848c8c" stroke-linecap="round" stroke-miterlimit="10" stroke-width="10"/></svg>