<svg xmlns="http://www.w3.org/2000/svg" xmlns:xlink="http://www.w3.org/1999/xlink" width="759.33" height="386.39" viewBox="0 0 759.33 386.39"><defs><clipPath id="a" transform="translate(0)"><path d="M286.81,118.64c-30-23.88-78.37-19.79-103.9,8.78a48,48,0,0,0-71.38,27.44c-17.57-4.66-37.7,8.67-40.26,26.67-4.54,9.9-10.65,19.81-13,30.93s-.05,23.9,8.52,31.37c1.64,1.43,3.55,2.74,4.36,4.75a11.94,11.94,0,0,1,.53,4.42,65.83,65.83,0,0,0,2.65,18.29,37,37,0,0,0,6.29,13,26.48,26.48,0,0,0,25.22,9.24c7.19,22.89,30.94,34.35,49.1,26.57,4.5,11.42,19.35,17.41,30.51,12.31,3.3-1.5,6.48-3.85,10.1-3.63,3.25.21,5.94,2.45,8.61,4.33A46.14,46.14,0,0,0,246,338.47c4.11-1.53,8.2-3.69,12.58-3.45,5,.28,9.27,3.66,13.89,5.68,13,5.67,27.92.41,40.73-5.58,3-1.41,6.17-2.88,9.46-2.57s6,2.29,8.74,4.07c17.2,11.28,42.26,15.91,57,1.6,15.88,10.84,39.13,9.21,53.34-3.74,15.25,10.55,37.11,9.76,47.86-2.89,19.82,13.24,50.34,5.6,61.58-15.41,8.84-2.17,17.68-6,23.33-13.16s7.12-18.11,1.47-25.24c18.47-9.21,26.69-34.6,17.12-52.89a33.2,33.2,0,0,0,1-61.53c-.67-.29-1.78-2.06-3.44-2.69-9.68-19.08-32.85-29.95-53.8-25.62-16.25-19.18-47.31-23.61-68.27-9.74-15.86-21.56-48-29.21-71.84-17.13-2.46,1.25-4.9,2.7-7.63,3.08-4.94.71-9.59-2.14-14-4.47A75.57,75.57,0,0,0,340,98.35c-19.43,0-38.95,7-53.18,20.29" fill="none"/></clipPath><clipPath id="b" transform="translate(0)"><path d="M173.71,36.61c-48.89,9.56-97.05,32-133.58,71.83C20,130.45,2.76,163,10.86,194.1c7.07,27.17,31.75,43.29,55.56,45.62s47.29-6.14,70.4-13.35c136.34-42.57,280.54-43.27,419.47-14.93,21.34,4.36,47.19,7.53,57.71-13.83,5.72-10.57,12.13-29.15-.44-43.19C537.1,69,426.49,44.67,322,34.43c-25-2.45-50.13-4.31-75.2-4.31-24.49,0-48.9,1.77-73.06,6.49" fill="none"/></clipPath><clipPath id="c" transform="translate(0)"><rect y="74.64" width="641.64" height="245.33" fill="none"/></clipPath></defs><title>ebi</title><g clip-path="url(#a)"><path d="M594.14,163.36a33.2,33.2,0,0,1-1,61.53c9.57,18.29,1.35,43.68-17.12,52.89,5.65,7.13,4.18,18.11-1.47,25.24S560,314,551.19,316.18c-11.24,21-41.76,28.65-61.58,15.41C478.86,344.24,457,345,441.75,334.48c-14.21,12.95-37.46,14.58-53.34,3.74-14.78,14.31-39.84,9.68-57-1.6-2.72-1.78-5.51-3.76-8.74-4.07s-6.46,1.16-9.46,2.57c-12.81,6-27.77,11.25-40.73,5.58-4.62-2-8.86-5.4-13.89-5.67-4.38-.25-8.47,1.91-12.58,3.44a46.11,46.11,0,0,1-41.77-5.38c-2.66-1.87-5.36-4.12-8.61-4.33-3.62-.22-6.8,2.13-10.1,3.63-11.16,5.1-26-.89-30.51-12.31-18.16,7.78-41.91-3.68-49.1-26.57a26.48,26.48,0,0,1-25.22-9.24,37,37,0,0,1-6.29-13A65.83,65.83,0,0,1,71.72,253a11.94,11.94,0,0,0-.53-4.42c-.81-2-2.73-3.32-4.36-4.75-8.57-7.47-10.82-20.25-8.52-31.37s8.42-21,13-30.93c2.56-18,22.69-31.33,40.26-26.67a48,48,0,0,1,71.38-27.44c25.53-28.57,73.93-32.66,103.9-8.78C310,97,347.11,92,375.16,106.79c4.41,2.33,9.06,5.18,14,4.47,2.73-.38,5.17-1.83,7.63-3.07,23.88-12.09,56-4.44,71.84,17.12,21-13.87,52-9.44,68.27,9.74,21-4.33,44.12,6.54,53.8,25.62,1.66.63,2.77,2.41,3.44,2.69" transform="translate(0)" fill="#fff"/><path d="M594.14,163.36a33.2,33.2,0,0,1-1,61.53c9.57,18.29,1.35,43.68-17.12,52.89,5.65,7.13,4.18,18.11-1.47,25.24S560,314,551.19,316.18c-11.24,21-41.76,28.65-61.58,15.41C478.86,344.24,457,345,441.75,334.48c-14.21,12.95-37.46,14.58-53.34,3.74-14.78,14.31-39.84,9.68-57-1.6-2.72-1.78-5.51-3.76-8.74-4.07s-6.46,1.16-9.46,2.57c-12.81,6-27.77,11.25-40.73,5.58-4.62-2-8.86-5.4-13.89-5.67-4.38-.25-8.47,1.91-12.58,3.44a46.11,46.11,0,0,1-41.77-5.38c-2.66-1.87-5.36-4.12-8.61-4.33-3.62-.22-6.8,2.13-10.1,3.63-11.16,5.1-26-.89-30.51-12.31-18.16,7.78-41.91-3.68-49.1-26.57a26.48,26.48,0,0,1-25.22-9.24,37,37,0,0,1-6.29-13A65.83,65.83,0,0,1,71.72,253a11.94,11.94,0,0,0-.53-4.42c-.81-2-2.73-3.32-4.36-4.75-8.57-7.47-10.82-20.25-8.52-31.37s8.42-21,13-30.93c2.56-18,22.69-31.33,40.26-26.67a48,48,0,0,1,71.38-27.44c25.53-28.57,73.93-32.66,103.9-8.78C310,97,347.11,92,375.16,106.79c4.41,2.33,9.06,5.18,14,4.47,2.73-.38,5.17-1.83,7.63-3.07,23.88-12.09,56-4.44,71.84,17.12,21-13.87,52-9.44,68.27,9.74,21-4.33,44.12,6.54,53.8,25.62C592.36,161.3,593.47,163.08,594.14,163.36Z" transform="translate(0)" fill="none" stroke="#c9c9c9" stroke-miterlimit="10" stroke-width="9"/><path d="M618.81,190.39l1.76-1.8c7-7.25,7.1-22.56,4.13-31.53-2.36-7.15-8.38-15.86-15.76-8.27-11.85,12.18-21.41,20.81-35.52,30-13.91,9.07-28.53,16.17-44.92,15.8-8-.18-13.8-1.65-20.42-6.21l-1.75-1.29c-.25-.21-.5-.41-.59-.5-1.09-1-2.16-2-3.24-3-3.06-2.83-6.21-5.82-9.9-7.82-15.35-8.34-33.69,0-49.81.68-10.16.44-19.49-2.26-28.68-6.4-9.89-4.47-16.91-9.2-23-17.5-2.4-3.28-5.46-3.28-8.88-2.32-16.88,4.74-34.34,9.41-52,8a35.09,35.09,0,0,1-17.26-5.55c-5.72-3.53-10.92-7.86-16.61-11.45-3.11-2-6.77,0-8.88,2.32-1.33,1.48-3.79,4-4.69,4.82,0,0-1.9,1.51-2.12,1.67-1.1.81-2.24,1.59-3.4,2.33a57.75,57.75,0,0,1-12.56,5.94,53.77,53.77,0,0,1-11.51,2,69.39,69.39,0,0,1-14.26-.46C230,158.67,223,156.3,214.31,152a98,98,0,0,1-12.48-7.5c-1.52-1.08-3-2.21-4.46-3.37-.11-.12-1.78-1.53-1.88-1.62-.94-.86-1.86-1.75-2.77-2.64-2.11-2.08-5.8-4.54-8.88-2.33a103.1,103.1,0,0,0-19.56,19c-2.43,3-4.83,6-7.42,8.85-1.31,1.43-2.69,2.76-4.05,4.13-.17.16-.31.31-.43.43l-.29.22c-.88.68-1.77,1.35-2.7,2-7.33,5-16.23,7.72-25,8.83-10,1.27-18.25-.59-27-5.34-5-2.71-9.14,1.91-11.22,5.93-1.58,3.07-3.27,6.09-5,9.06-1.07,1.79-2.21,3.53-3.28,5.32l-.31.48c-.61.92-1.22,1.83-1.85,2.74A185.83,185.83,0,0,1,57,219.68q-2.66,2.77-5.47,5.39c-.54.5-1.09,1-1.65,1.47-.28.22-1.47,1.22-1.69,1.39a60.23,60.23,0,0,1-11.65,7.26,41.93,41.93,0,0,1-4.24,1.67c.15-.09-1.72.36-2.22.43a27.5,27.5,0,0,1-3.15.27,30.23,30.23,0,0,1-4.67-.39c1.14.16.6.12-.12,0l-.56-.07.55.07a5,5,0,0,1-1-.27c-1.17-.52-2.32-1-3.45-1.63-8.76-4.76-13.49,10.2-14.18,16.1-1,8.3-.77,23.56,8.05,28.35,20.46,11.13,41.34-4.32,55.41-18.51a199.06,199.06,0,0,0,30.75-41.08,52.41,52.41,0,0,0,24.47,4.19c10.38-.89,22-3.9,31.06-9.25,7.78-4.62,14.17-11.29,19.87-18.23,2.75-3.35,5.43-6.77,8.34-10,1.35-1.5,2.75-3,4.21-4.36.2-.18.59-.54.91-.85,14.82,12.82,32.74,21.73,52.37,24.32a67.79,67.79,0,0,0,55.23-17.66c4.55,3.19,8.93,6.63,13.71,9.44a52.67,52.67,0,0,0,22.35,6.56c17.8,1.44,35.41-3.23,52.47-8C395,210.33,414.22,219.34,432.37,222c8.88,1.3,17.52-.1,26.26-1.61,4.21-.73,8.43-1.41,12.69-1.77a63.92,63.92,0,0,1,7.45-.3,27.5,27.5,0,0,1,2.86.21c.23,0,2.49.65,2.36.53a23,23,0,0,1,3.42,1.67,19.55,19.55,0,0,0,2.18,1.49l.06,0,0,0c3,2.87,6.11,5.71,9.36,8.34,7,5.69,15.79,8.68,24.74,9.73,17.62,2.07,35.81-5.08,50.69-13.94a182.83,182.83,0,0,0,21.12-14.8c-.45.82-.91,1.64-1.37,2.46l-.4.68c-.34.49-.93,1.38-1.06,1.57a83.49,83.49,0,0,1-6.51,8.14,22.24,22.24,0,0,1-6.71,5.08,34.31,34.31,0,0,1-4.45,1.92,12.88,12.88,0,0,1-2.63.81c-6.36,1.52,1,12.32-5,15-11.7,5.28-38.72,22.17-39.74,24.17-.07.14-.38.64-.71,1.17a2.29,2.29,0,0,0-.85,1.35c-.24.31-.48.63-.74.92s-1.54,1.49-2,2-1.78,1.18-2.08,1.36a41.42,41.42,0,0,1-9.73,4.1c.16-.06-2.52.59-3.14.72q-2.85.57-5.73.91a66.65,66.65,0,0,1-11,.4c-7.44-.38-13-1.83-19.27-6.44a6.11,6.11,0,0,0-6.13,0c-13.81,6.58-25.95,16.2-40,22.44-7.18,3.2-11.42,4.74-19.28,4.52a31.6,31.6,0,0,1-5.31-.58l-.64-.13c.05,0,0-.05-.35-.18-.77-.29-1.53-.59-2.28-.93a45.63,45.63,0,0,1-5-2.89c-.31-.19-.76-.54-.93-.66-1-.87-1.87-1.84-2.76-2.8-2.09-2.23-5.8-4.38-8.88-2.32-6.54,4.38-12.26,9.85-17.93,15.29-1.37,1.32-2.75,2.64-4.15,3.92-.56.52-1.13,1-1.7,1.53-.18.14-.49.38-.94.75a53.69,53.69,0,0,1-8.3,5.28c-14.39,7-30.08.93-43.63-5-6.26-2.74-13.81-6.94-20.85-6.83-5.18.08-8.73,2.7-12.59,5.7-5.5,4.26-12.08,8.54-19,9.84-8.09,1.53-16.39-.25-24.18-2.42-8.46-2.36-12.11,6.28-13.6,13.34-1.9,9-1.64,21.41,4.72,28.78,24.69,28.65,69.06,22.52,102.29,17.82,16.38-2.32,32.89-5.62,49.47-5.95,27.22-.54,54.41,1.41,81.62-.55,13-.94,26-2.16,38.95-3.39,13.35-1.27,26.73-3.08,39.46-7.46,5.34-1.84,7.56-10.76,8.23-17.34q4.42-1.59,8.7-3.43c27.67-12,44.55-37.21,59.93-61.85,4.24-6.79,3.93-17.85,2.38-25.18a39.08,39.08,0,0,0-1.91-6.26c11.45-18.4,16.09-39.56,11-60.58" transform="translate(0)" fill="#f2f2f2"/><path d="M594.14,163.36a33.2,33.2,0,0,1-1,61.53c9.57,18.29,1.35,43.68-17.12,52.89,5.65,7.13,4.18,18.11-1.47,25.24S560,314,551.19,316.18c-11.24,21-41.76,28.65-61.58,15.41C478.86,344.24,457,345,441.75,334.48c-14.21,12.95-37.46,14.58-53.34,3.74-14.78,14.31-39.84,9.68-57-1.6-2.72-1.78-5.51-3.76-8.74-4.07s-6.46,1.16-9.46,2.57c-12.81,6-27.77,11.25-40.73,5.58-4.62-2-8.86-5.4-13.89-5.67-4.38-.25-8.47,1.91-12.58,3.44a46.11,46.11,0,0,1-41.77-5.38c-2.66-1.87-5.36-4.12-8.61-4.33-3.62-.22-6.8,2.13-10.1,3.63-11.16,5.1-26-.89-30.51-12.31-18.16,7.78-41.91-3.68-49.1-26.57a26.48,26.48,0,0,1-25.22-9.24,37,37,0,0,1-6.29-13A65.83,65.83,0,0,1,71.72,253a11.94,11.94,0,0,0-.53-4.42c-.81-2-2.73-3.32-4.36-4.75-8.57-7.47-10.82-20.25-8.52-31.37s8.42-21,13-30.93c2.56-18,22.69-31.33,40.26-26.67a48,48,0,0,1,71.38-27.44c25.53-28.57,73.93-32.66,103.9-8.78C310,97,347.11,92,375.16,106.79c4.41,2.33,9.06,5.18,14,4.47,2.73-.38,5.17-1.83,7.63-3.07,23.88-12.09,56-4.44,71.84,17.12,21-13.87,52-9.44,68.27,9.74,21-4.33,44.12,6.54,53.8,25.62C592.36,161.3,593.47,163.08,594.14,163.36Z" transform="translate(0)" fill="none" stroke="#d9d2bf" stroke-miterlimit="10" stroke-width="24"/></g><g clip-path="url(#b)"><path d="M613.56,154.42C537.1,69,426.49,44.67,322,34.43c-49.39-4.84-99.36-7.37-148.26,2.18s-97.05,32-133.58,71.83C20,130.45,2.76,163,10.86,194.1c7.07,27.17,31.75,43.29,55.56,45.62s47.29-6.14,70.4-13.35c136.34-42.57,280.54-43.27,419.47-14.93,21.34,4.36,47.19,7.53,57.71-13.83,5.72-10.57,12.13-29.15-.44-43.19" transform="translate(0)" fill="#ffe9d4"/><path d="M93.69,189.14c0-.39-.11-.85-.19-1.32v.07c.07.41.13.83.18,1.25" transform="translate(0)" fill="#ff875e"/><path d="M180.72,9.34c-4.36-8.06-14.15-12.51-21.43-6.69C142.1,16.4,124,30.56,111,50.06c-7.1,10.65-13.18,22.58-15.52,36.08a108.12,108.12,0,0,0-1.59,20.75c-18.57,12-31.06,39.83-34.81,62.82-2.23,13.72-.94,27.09,1.12,40.75,1.67,11,3.2,24.81,8.82,34.11,5.29,8.77,13.61,14.1,22.83,11.06l.26-.08c9.16-3,13.59-12.26,14.56-22.77l0-.37c.62-6.72-2.43-12.63-6.33-17.12-.9-1.77-1.67-3.54-2.44-5.38-.31-1-.63-1.91-.89-2.88-.66-2.44-1.15-5-1.64-7.45q-.8-4.05-1.41-8.16c-.11-.74-.18-1.51-.27-2.28.12,1.2.07,1.65-.15-.88l0-.37c0-.24-.08-.48-.13-.71.05.21.09.42.12.64-.15-1.87-.28-3.75-.29-5.63,0-.65,0-1.31,0-2a149.23,149.23,0,0,1,3.58-15l.09-.31c.5-1.25,1-2.51,1.5-3.74,1.18-2.76,2.48-5.45,3.9-8,.53-1,1.13-1.87,1.67-2.82.33-.46.65-.93,1-1.38.47-.61,4.3-6,5-5.64-1.88,1.69-2.31,2.1-1.26,1.22.45-.38.91-.75,1.38-1.09l1.22-.76a15.58,15.58,0,0,0,8.41-.39c6.81-2.23,10.66-8.12,13.1-15.6s.25-14.64-2.45-21.43c-.11-.28-.27-.61-.44-1,0-.13-.08-.36-.17-.7a15.46,15.46,0,0,1-.44-2.15l0-.16c0-1.14,0-2.29,0-3.43,0-.17.15-1.9.2-2.85,0-.17.05-.34.08-.52A66.72,66.72,0,0,1,131,87.9c.18-.65.37-1.29.58-1.93.09-.27.14-.45.18-.57.17-.34.33-.64.42-.85q1.46-3.43,3.2-6.67c.53-1,1.08-2,1.64-2.95.16-.27,1-1.63,1.45-2.33.31-.45.61-.9.72-1,.79-1.12,1.6-2.22,2.42-3.31q2.08-2.74,4.28-5.35c3.25-3.86,6.67-7.53,10.18-11,1.6-1.6,3.24-3.13,4.86-4.67l.24-.22.46-.41,2.94-2.62c3.47-3.07,7-6.07,10.49-9.07,6.65-5.67,10.5-16.51,5.62-25.52" transform="translate(0)" fill="#ff875e"/><path d="M272,30.89c-.35-9.48-7.1-20.18-16-19.1-20.07,2.44-37.67,16-51.13,33.46A116.57,116.57,0,0,0,188,74.37,109.81,109.81,0,0,0,182.45,92c-.07.35-.13.71-.2,1.06-14.87,4.67-25.44,21.91-29.94,40.56-5.21,21.57-5.79,47.76.3,69.19,4.09,14.4,11.58,27.16,24.42,31.58,10.94,3.77,21.89-4.59,25.21-17.05.12-.44.72-6,.74-6.49.34-8.85-5.33-19.48-12.68-22.73-.2-.46-.41-.9-.62-1.35s-.18-.6-.26-.9c-.54-2-1-4-1.35-6.08-.27-1.48-.49-3-.7-4.46-.08-1-.17-1.92-.23-2.88q-.42-6.69-.19-13.39.11-3.09.36-6.17-.09.56-.21,1.23c.1-.57.17-1.14.24-1.72v0c.07-.76.24-1.81.35-2.38a87.15,87.15,0,0,1,2.59-11.64l.33-1c.62-1.26,1.15-2.63,1.75-3.92l.53.25c10.49,4.7,22.93-7.47,22.35-20.27a38.38,38.38,0,0,0-.85-6.64,5.6,5.6,0,0,1-.22.54v-.11a5,5,0,0,0,.17-.67c0-.19-.08-.37-.13-.56.07-.63.23-.81.33-.69.16-1.22.24-2.52.41-3.26.42-2,.93-3.88,1.51-5.78.12-.38.67-1.87.84-2.35a130.48,130.48,0,0,1,5.75-12c1-1.89,2.16-3.69,3.22-5.55a.25.25,0,0,1,0-.07l.06-.08c.69-1,1.35-2,2-2.91a105.64,105.64,0,0,1,8-9.69c1.39-1.49,2.83-2.87,4.25-4.31-3.08,3.11,1.58-1.25,2.55-2,1.93-1.51,6.63-6.09,9-5.9q-3,1.5-1.35.72c.33-.16.67-.3,1-.44.84-.3,1.66-.67,2.51-1,1.38-.47,6.76-1.52,1.63-.74,8.29-1.27,16.46-7.87,16-19.09" transform="translate(0)" fill="#ff875e"/><path d="M187.34,152.44l0,.49c.58-3.56.54-3.74.38-2.9l-.15.89c-.07.5-.14,1-.2,1.52" transform="translate(0)" fill="#ff875e"/><path d="M214.39,106.77c.29-.8.27-1.35.15-1.49,0,.44-.12.87-.2,1.25a2,2,0,0,1,0,.24" transform="translate(0)" fill="#ff875e"/><path d="M304.77,80.76a2.33,2.33,0,0,0,.79-.8,4.49,4.49,0,0,1-.76.76l0,0" transform="translate(0)" fill="#ff875e"/><path d="M303.35,84c0-.11,0-.21,0-.31l0,.08v0l-.06.21v0h0v0c-.3,1-.24,1.59,0,1.07,0,.19,0,.36-.05.49,0-.19.05-.37.08-.55l.12-.4a1.62,1.62,0,0,1,0-.22l0,.12,0-.12c0-.13,0-.25,0-.39" transform="translate(0)" fill="#ff875e"/><path d="M368.21,20.86c-2.8-10.29-10.28-14.17-18.76-12.68-5.56,1-11,3.53-16.17,6a199.07,199.07,0,0,0-24.87,14c-15.22,10.21-33.34,24.72-38.3,46a42.75,42.75,0,0,0-.8,4.57,36.61,36.61,0,0,0-7.53,4.79c-9.69,8-15.79,19.14-20.12,32-6.73,19.93-8.1,45.5-2.1,66,5.62,19.2,19.81,40.1,39,28.08,7.58-4.77,10.3-15.75,8.58-25.13-1.32-7.23-4.84-12-9.68-16,.25.31.52.65.82,1.05A17.58,17.58,0,0,0,277,168l-.23-.18-.06-.13-.33-.35c-.64-.71-.88-.89-.89-.77-.44-.58-.18-.65,1,.63l-.13-.26a8.21,8.21,0,0,1-1-2.25l-.09-.31a9,9,0,0,0-.49-1.09c.15.27.27.51.4.74-.59-2.13-1-4.28-1.46-6.46v0c-.07-.91-.15-1.81-.19-2.72q-.21-4-.09-8c0-1.33.11-2.66.2-4-.06.23-.11.45-.18.71.07-.25.12-.51.18-.77v0a8.87,8.87,0,0,1,.66-3c.77-3.92,1.32-7.91,2.39-11.77l0,0c.36-.87.7-1.76,1.09-2.62a34.77,34.77,0,0,1,1.7-3.11,6.51,6.51,0,0,1,1.12-2c.16-.34.32-.67.47-1l-.39.92c.45-.56.93-1.08,1.4-1.6l1.36-.9.95-.26c12.6,6.44,27.72-9.67,23.63-25.72a30.82,30.82,0,0,0-3.88-9.54q.33-.66.66-1.29a1.3,1.3,0,0,1-.25.1,1.21,1.21,0,0,0,.28-.14l.45-.85c1.11-2.14,1-.92.31.09,1.24-1.48,2.86-4.33,3.55-5.14,1.52-1.79,3.11-3.49,4.74-5.13l.81-.83c.79-.7,1.59-1.4,2.4-2.08a155.67,155.67,0,0,1,24.63-16.91c.85-.47,1.71-.93,2.57-1.39l-.08,0,.08,0,.59-.32c1.88-1,1.35-.34.5.08,1.45-.59,3.61-2,4.38-2.36a42.88,42.88,0,0,1,7.83-2.69c7.87-1.68,13-13.59,10.65-22.33M303.42,84.59s0,0,0-.07a.44.44,0,0,0,0,.1c.05,2.49-.81,2.12-.19-.42l.06-.21c-.05-.17-.1-.33-.14-.5v0c.05.17.09.34.14.52v0a12.29,12.29,0,0,0-.07-1.38c.06.43.1.81.13,1.17a.65.65,0,0,0,0-.13v.08c.08-.24.18-.49.3-.76l.07-.13c-.12.77-.23,1.33-.33,1.72a.19.19,0,0,1,0,.07" transform="translate(0)" fill="#ff875e"/><path d="M344.26,48.48h0a1.81,1.81,0,0,0,1.09-.24,2.26,2.26,0,0,1-1.09.24" transform="translate(0)" fill="#ff875e"/><path d="M277,168l.4.34c-.36-.46-.68-.84-.95-1.14l.26.49c.09.11.19.21.29.31" transform="translate(0)" fill="#ff875e"/><path d="M276,166.33c.1.22.22.43.33.65.35.47.28-.12-1.2-2.91l.09.35c.26.64.49,1.31.78,1.91" transform="translate(0)" fill="#ff875e"/><path d="M280.57,120.17c-.35.68-.73,1.35-1.12,2-.11.44.23.11,1.2-2.12l-.07.08v0" transform="translate(0)" fill="#ff875e"/><path d="M273.59,142.84a22.41,22.41,0,0,0,.66-3.1c-.2,1-.42,2-.66,3v.06" transform="translate(0)" fill="#ff875e"/><path d="M386.13,87.46h0v0" transform="translate(0)" fill="#ff875e"/><path d="M424.82,22.19c-16.58-1.56-35.58,6.74-49.14,17.58-8.21,6.56-15.8,14.71-20.56,25.21a59.19,59.19,0,0,0-4.58,15.22,53.74,53.74,0,0,0-14.42,11.5c-8.71,9.5-14.88,21.67-19.19,34.63-9.75,29.4-1.93,63.1,15,86.25,3.16,4.31,9.68,7.36,14.42,7.11,5.77-.31,9.89-2.94,14.41-7.11l.67-.62c5.81-5.34,6.25-15.4,5.13-23.1a1.1,1.1,0,0,1,0-.18A18.69,18.69,0,0,0,358.93,176l-.65-.81c-.28-.37-1.29-1.94-1.31-1.9-.17-.28-.28-.48-.31-.53-.51-.92-1-1.87-1.47-2.83-.15-.3-.93-2.4-1.24-2.83-.66-2.32-1.08-4.69-1.61-7.06-.11-.49-.19-.81-.25-1,0-.68,0-1.35,0-1.82-.09-2.51,0-5,.11-7.5,0-.37,0-.64,0-.86.2-.85.47-1.7.54-2,.35-1.68.79-3.32,1.25-5,.21-.55.39-1.17.58-1.63.8-1.91,1.68-3.76,2.59-5.6s1.93-3.84,3-5.68c.06-.1.33-.56.63-1l.58-.83a52.35,52.35,0,0,1,3.92-4.79l.7-.74.27-.23a11.94,11.94,0,0,0,2.76-.07c7.94-1.24,14.38-4.81,17.7-14.17a27.62,27.62,0,0,0-.28-18.81c0,.26,0,.56,0,.89a.57.57,0,0,1,0-.14c0-.21,0-.43,0-.66l0-.14,0-.08c0-.32,0-.64,0-.93a7.09,7.09,0,0,1,0,.9c.18-.77.36-1.76.44-2.39.15-.33.3-.66.46-1,.39-.81.84-1.58,1.25-2.38.81-1.09,1.6-2.19,2.45-3.25,1.11-1.37,2.24-2.72,3.43-4,.6-.65,1.23-1.26,1.85-1.9,2.7-2.1,5.28-4.3,8.13-6.15q2.17-1.41,4.41-2.66l.72-.39.26-.12,1-.45a61.39,61.39,0,0,1,8.63-2.94c.41,0,.81-.11,1.21-.14a31.46,31.46,0,0,1,4.12,0c8.39.55,16.41-9.18,16-19.1-.41-11-7.06-18.24-16-19.09" transform="translate(0)" fill="#ff875e"/><path d="M386.46,88.28v-.16l0,.11,0,0" transform="translate(0)" fill="#ff875e"/><path d="M507.79,48.51c-18.88-1.68-39.16,8.94-52.89,23.9-6.88,7.5-12.82,18.23-14.36,29.32a70.6,70.6,0,0,0-.64,7.14C428.44,114,419.21,124,413.12,136.64c-5.59,11.55-9.47,25.83-8.89,39.29a67.31,67.31,0,0,0,15.06,40c9.09,11.15,25.22,8.29,31.69-4.87,6.3-12.82,1-28.09-9.59-34.09l-.15-.6c0-.49-.05-1-.05-1.48,0-.87,0-1.73.05-2.6.3-1.61.45-3.32.81-4.88.28-1.2,1.65-4.26,1.73-5.7.35-.81.69-1.62,1.07-2.41a59.88,59.88,0,0,1,2.87-5.37c.27-.45.55-.89.82-1.33,1.06-1.37,2.14-2.67,3.24-4,.3-.24.6-.49.91-.72l.05,0c.14.09.27.19.41.27a17.58,17.58,0,0,0,4.82,2.29c8.12,2.62,16.61-2.49,19.83-11.58a21.89,21.89,0,0,0-1.11-17.68l.26-.13a27.47,27.47,0,0,0-4.21-6.11l-.06-.24a18.22,18.22,0,0,0,0-3.47c.17-.77.34-1.51.42-1.81a1,1,0,0,0,0-.1c-.28.51-.38.47.36-1.07a1.8,1.8,0,0,1,.1-.18,2.5,2.5,0,0,0,.17-.83,2.64,2.64,0,0,1-.08.66c.54-1,1.91-3.36,2.16-4.08.37-.5.73-1,1.11-1.49,1.11-1.43,2.26-2.81,3.47-4.12.55-.59,1.13-1.14,1.68-1.73,1.76-1.83-.44,0-.69.61.43-1.17,3.32-2.71,4.25-3.4q2.19-1.59,4.48-3c.72-.43,1.54-.8,2.27-1.28,2.88-1.1,5.69-2.18,8.64-3l-.21-.13a.74.74,0,0,0,.43.06l.17,0a3.32,3.32,0,0,1,1.07-.17,2.4,2.4,0,0,1,.36-.06,34.56,34.56,0,0,1,4.88,0c8.24.48,16.12-9,15.76-18.76-.41-10.8-6.94-18-15.76-18.77m-58.35,96.11c.18.27.37.52.56.77-.9-.43-1.38-.77-.56-.77" transform="translate(0)" fill="#ff875e"/><path d="M473.16,109.34a6.46,6.46,0,0,0,.56-1.42.89.89,0,0,0-.09.16c-.15.45-.35.9-.47,1.26" transform="translate(0)" fill="#ff875e"/><path d="M501.09,86.43c1,.47,2.09-.23,1.46-.29a10,10,0,0,1-1.24.22l-.22.07" transform="translate(0)" fill="#ff875e"/><path d="M529.52,197.47c0,.14,0,.27,0,.41a.76.76,0,0,0,0-.11l0,.11.06.2s0,0,0,0c0,.43,0,.9.09,1.36,0-.26,0-.56,0-1a2.25,2.25,0,0,1,.08.24c0-.13,0-.24,0-.35l-.08-.2c0-.38,0-.83,0-1.35a.08.08,0,0,1,0,0c0,.21-.09.43-.13.64" transform="translate(0)" fill="#ff875e"/><path d="M582.12,100c-19-5.11-39.43,8.72-52.73,24-5.32,6.11-9.85,13.39-12,21.7a51.29,51.29,0,0,0-8.5,8.87c-11.49,15.2-20.85,37.79-15.66,58.59,4.55,18.18,21.53,30.76,37.13,25.35,7.41-2.57,12.8-10,13.82-19.1.95-8.38-2.31-19-9.21-22.88-1.58-.89-3.14-1.75-4.73-2.5.11-.45.23-.91.35-1.36.18-.66.42-1.32.62-2,1.06-2.5,2.19-4.9,3.42-7.27a25.51,25.51,0,0,0,6.49,1.45c13.73,1.18,21.77-20,14.36-32.38.48-.56,1-1.12,1.46-1.67.92-1,1.89-2,2.85-3l1.27-1.09a63.53,63.53,0,0,1,8-5.68c.33-.2.66-.37,1-.55,1.23-.43,2.41-1,3.66-1.35,1.54.32,5.19.75.9-.23l.19,0c8.2,1,17-3.78,19-14.27,1.94-10.17-2.57-22.18-11.76-24.64m-52.4,98.47c.78,2,.4,1.49,0,.35,0,.55-.05,1.19-.11,1.92a7,7,0,0,0,0-1.2c-.16,1.75-.51.3-.2-1.25,0-.12,0-.24.07-.36l-.09-.39c0,.1.07.19.11.28l.06-.3c0-.33.05-.66.08-1,0,.11,0,.23,0,.36v0a12.93,12.93,0,0,1,.07,1.55m5.74-16.59.26-.5c.14-.22.28-.44.43-.64s.53-.68.8-1,.23.09-1.49,2.15m3.3-4.44.39-.49.1-.12c1.28-.68,1.06-.69.43-.47,1.1-1.05,1.7-.42-.92,1.08" transform="translate(0)" fill="#ff875e"/><g clip-path="url(#c)"><path d="M641.36,143.15c-1.78-22.71-9.38-42.64-22.24-59.54-9.15-12-27.56-11.9-36.74,0a36.11,36.11,0,0,0,0,43.73c.29.38.69.84,1.11,1.35.15.28.34.65.61,1.13a80.19,80.19,0,0,1,3.51,7.29c.28.94.56,1.88.8,2.83.46,1.81.83,3.64,1.14,5.49q.19,3.76,0,7.53c-.16.88-.32,1.76-.52,2.63-.3,1.37-.71,2.69-1,4l-.19.82c-.8,1.56-1.77,3.16-2.1,3.79-.25.47-.51.93-.78,1.4-1.12,1.45-2.22,2.92-3.42,4.28-.5.56-1,1.08-1.52,1.61a80.74,80.74,0,0,1-9,6.35c-.53.32-2.09,1.16-3.2,1.76-.86.4-1.73.78-2.6,1.16-3.75,1.6-7.56,3-11.39,4.33a182.46,182.46,0,0,1-25,6.92c-18.24,2.39-36.6,1.49-54.8-1.12-37-6.36-72.9-19-109.45-28-41.4-10.19-83.89-16.17-126.21-15.16-65.08,1.57-133.27,17.36-189.07,59.05-12.21,9.13-24.82,19.54-34,32.88-10.87,15.71-19.6,37-12.89,57.66,2.5,7.7,5.69,14.08,11.88,18.4,5.54,3.86,13.71,5.49,19.92,3.1C46,314.27,56.81,298,52.61,282.34c.44-.68.86-1.43,1.17-1.84,1.64-2.16,3.38-4.21,5.18-6.17,1.25-1.37,2.54-2.67,3.84-3.95,4.36,3.91,11,7,15.76,6.34,34.64-4.88,69.59-5.2,104.27-9.51,18.7-2.32,37.18-5.52,55.33-11.43,15.79-5.15,31.56-10.25,47.4-15.19,11.05-3.45,21.59-9,32.81-11.59l1-.06c9.63,5.19,22.12,2.37,29.45-6.69,42.52,10.55,84.4,24.86,127.67,30.8,28.33,3.89,57.12,2.7,84.75-6.19a179.62,179.62,0,0,0,34.88-14.93c13-7.47,23.77-18.74,32.2-32.57,9.63-15.79,14.59-36.76,13.06-56.21" transform="translate(0)" fill="#fa8837"/></g></g><path d="M597.26,162.23c49.09-3.62,101.94-6.33,143.69,20.82,11.14,7.24,22.17,20.49,17.12,33.11-4.18,10.44-16.85,13.55-27.7,14s-22.93.12-31,7.73c-15.75,14.9-2.43,45.87-16.62,62.38-6.58,7.64-17.66,9.71-27.24,7.35s-17.9-8.5-25.35-15.21a168.53,168.53,0,0,1-51-88.8c-2-9.07-3.13-18.92.51-27.42s13.63-13.67,17.57-14" transform="translate(0)" fill="#ff804a"/><path d="M578.76,167.72c42.84-14,92.94-2.85,125.74,28.07-2.48,7.24-11,10.67-18.65,10.78s-15.19-2.15-22.84-2.18-16.23,3-19.13,10.09c-2.22,5.4-.54,11.57,1.6,17s4.78,11,4.42,16.8-5.13,11.9-10.92,11.16c-4-.52-7-4-9.47-7.19Q611.42,229,594.24,205c-7.23-10.09-14.66-22.69-15.48-37.24" transform="translate(0)" fill="#f7582d"/></svg>