<svg xmlns="http://www.w3.org/2000/svg" xmlns:xlink="http://www.w3.org/1999/xlink" width="714.73" height="403.27" viewBox="0 0 714.73 403.27"><defs><clipPath id="a"><path d="M318.9,135.51c-30-23.87-78.37-19.78-103.9,8.79a48,48,0,0,0-71.38,27.44c-17.57-4.67-37.7,8.66-40.26,26.66-4.54,9.91-10.65,19.81-13,30.93s-.06,23.91,8.51,31.37c1.64,1.43,3.55,2.74,4.36,4.76a11.86,11.86,0,0,1,.53,4.41,66,66,0,0,0,2.65,18.3,37.28,37.28,0,0,0,6.29,13A26.46,26.46,0,0,0,138,310.38c7.19,22.89,30.94,34.35,49.1,26.58,4.5,11.41,19.35,17.41,30.51,12.31,3.3-1.5,6.49-3.86,10.1-3.63,3.25.2,5.95,2.45,8.62,4.32a46.09,46.09,0,0,0,41.76,5.38c4.11-1.52,8.2-3.68,12.58-3.44,5,.28,9.27,3.65,13.89,5.67,13,5.67,27.92.41,40.73-5.58,3-1.4,6.17-2.88,9.46-2.57s6,2.29,8.74,4.08c17.2,11.28,42.26,15.91,57,1.59,15.88,10.85,39.13,9.22,53.34-3.74,15.25,10.55,37.12,9.77,47.86-2.89,19.82,13.24,50.34,5.6,61.59-15.41,8.83-2.16,17.67-6,23.32-13.16s7.12-18.11,1.47-25.23c18.47-9.21,26.69-34.61,17.12-52.89a33.2,33.2,0,0,0,1-61.53c-.67-.29-1.77-2.06-3.44-2.69-9.68-19.08-32.85-30-53.8-25.63-16.25-19.18-47.31-23.6-68.27-9.73-15.86-21.56-48-29.21-71.84-17.13-2.46,1.25-4.9,2.69-7.63,3.08-4.94.7-9.59-2.15-14-4.47a75.55,75.55,0,0,0-35.17-8.45c-19.43,0-38.95,7-53.18,20.29" fill="none"/></clipPath><clipPath id="b"><path d="M253.79,25.15c-46,12.51-91,32.53-126.08,64.86S72.29,162.34,63.92,216.49c-3.18,11.38-.37,26.43,2.69,37.85s14.85,21.38,26.17,18c3.8-1.14,7-3.58,10.24-5.92,69.13-50.56,156.25-73.07,241.9-72.93,80.54.13,160,19.28,230.9,47.19a36.94,36.94,0,0,0,27.41-.13c21.06-8.54,41.73-18.37,58-34,20-19.06,32-49.09,22.16-74.85-6.92-18.06-23-30.82-39-41.65C565.87,36.93,471,9,376.24,9A466.75,466.75,0,0,0,253.79,25.15" fill="none"/></clipPath></defs><title>ika</title><g clip-path="url(#a)"><path d="M626.23,180.24a33.2,33.2,0,0,1-1,61.53c9.57,18.28,1.35,43.68-17.12,52.89,5.65,7.12,4.18,18.1-1.47,25.23s-14.49,11-23.33,13.16c-11.24,21-41.76,28.65-61.58,15.42-10.74,12.65-32.61,13.43-47.86,2.88-14.21,13-37.46,14.59-53.34,3.74-14.78,14.32-39.84,9.69-57-1.6-2.71-1.78-5.5-3.76-8.74-4.07s-6.46,1.17-9.46,2.57c-12.81,6-27.77,11.25-40.73,5.58-4.62-2-8.86-5.39-13.89-5.67-4.38-.24-8.47,1.92-12.58,3.44A46.11,46.11,0,0,1,236.29,350c-2.66-1.87-5.36-4.12-8.61-4.32-3.61-.23-6.8,2.13-10.1,3.63-11.16,5.1-26-.9-30.51-12.31-18.16,7.77-41.91-3.69-49.1-26.58a26.46,26.46,0,0,1-25.22-9.23,37.28,37.28,0,0,1-6.29-13,66,66,0,0,1-2.65-18.3,11.86,11.86,0,0,0-.53-4.41c-.81-2-2.72-3.33-4.36-4.76-8.57-7.46-10.82-20.24-8.51-31.36s8.41-21,13-30.94c2.56-18,22.69-31.33,40.27-26.66A48,48,0,0,1,215,144.3c25.53-28.57,73.93-32.66,103.9-8.79,23.17-21.62,60.31-26.6,88.35-11.84,4.41,2.32,9.06,5.17,14,4.47,2.73-.39,5.17-1.83,7.63-3.08,23.88-12.08,56-4.43,71.84,17.13,21-13.87,52-9.45,68.27,9.73,21-4.33,44.12,6.55,53.8,25.63,1.67.63,2.77,2.4,3.44,2.69" fill="#fff"/><path d="M626.23,180.24a33.2,33.2,0,0,1-1,61.53c9.57,18.28,1.35,43.68-17.12,52.89,5.65,7.12,4.18,18.1-1.47,25.23s-14.49,11-23.33,13.16c-11.24,21-41.76,28.65-61.58,15.42-10.74,12.65-32.61,13.43-47.86,2.88-14.21,13-37.46,14.59-53.34,3.74-14.78,14.32-39.84,9.69-57-1.6-2.71-1.78-5.5-3.76-8.74-4.07s-6.46,1.17-9.46,2.57c-12.81,6-27.77,11.25-40.73,5.58-4.62-2-8.86-5.39-13.89-5.67-4.38-.24-8.47,1.92-12.58,3.44A46.11,46.11,0,0,1,236.29,350c-2.66-1.87-5.36-4.12-8.61-4.32-3.61-.23-6.8,2.13-10.1,3.63-11.16,5.1-26-.9-30.51-12.31-18.16,7.77-41.91-3.69-49.1-26.58a26.46,26.46,0,0,1-25.22-9.23,37.28,37.28,0,0,1-6.29-13,66,66,0,0,1-2.65-18.3,11.86,11.86,0,0,0-.53-4.41c-.81-2-2.72-3.33-4.36-4.76-8.57-7.46-10.82-20.24-8.51-31.36s8.41-21,13-30.94c2.56-18,22.69-31.33,40.27-26.66A48,48,0,0,1,215,144.3c25.53-28.57,73.93-32.66,103.9-8.79,23.17-21.62,60.31-26.6,88.35-11.84,4.41,2.32,9.06,5.17,14,4.47,2.73-.39,5.17-1.83,7.63-3.08,23.88-12.08,56-4.43,71.84,17.13,21-13.87,52-9.45,68.27,9.73,21-4.33,44.12,6.55,53.8,25.63C624.46,178.18,625.56,180,626.23,180.24Z" fill="none" stroke="#c9c9c9" stroke-miterlimit="10" stroke-width="9"/><path d="M650.9,207.26c.59-.6,1.18-1.19,1.76-1.79,7.06-7.26,7.1-22.56,4.14-31.54-2.37-7.14-8.39-15.85-15.77-8.26-11.84,12.17-21.41,20.81-35.52,30-13.91,9.06-28.53,16.16-44.92,15.79-8-.17-13.8-1.64-20.42-6.2,0,0-1.21-.91-1.75-1.29-.25-.21-.5-.42-.59-.51-1.09-1-2.16-2-3.24-3-3.06-2.83-6.21-5.83-9.89-7.83-15.36-8.33-33.7,0-49.82.68-10.16.45-19.49-2.25-28.67-6.4-9.89-4.47-16.92-9.2-23-17.49-2.4-3.28-5.46-3.28-8.88-2.32-16.88,4.73-34.34,9.41-52,8A35.18,35.18,0,0,1,345,169.52c-5.72-3.53-10.92-7.86-16.61-11.45-3.11-2-6.77,0-8.88,2.32-1.33,1.47-3.79,4-4.69,4.81,0,0-1.9,1.52-2.12,1.67-1.1.82-2.24,1.6-3.4,2.34a58.22,58.22,0,0,1-12.56,5.94,54.17,54.17,0,0,1-11.51,2,70.1,70.1,0,0,1-14.26-.46c-8.86-1.17-15.94-3.55-24.59-7.9a97.94,97.94,0,0,1-12.48-7.49c-1.52-1.08-3-2.21-4.46-3.38-.1-.11-1.78-1.52-1.88-1.62-.94-.86-1.86-1.74-2.77-2.64-2.11-2.07-5.79-4.54-8.88-2.32a103.1,103.1,0,0,0-19.56,19c-2.43,3-4.83,6-7.42,8.84-1.31,1.43-2.69,2.76-4,4.13l-.43.44-.29.22c-.88.68-1.77,1.34-2.69,2-7.34,5-16.24,7.73-25,8.84-10,1.27-18.25-.59-27-5.34-5-2.72-9.14,1.9-11.21,5.93q-2.39,4.6-5,9c-1.06,1.79-2.21,3.54-3.28,5.33-.1.16-.2.32-.31.48-.61.91-1.22,1.83-1.84,2.73A185.38,185.38,0,0,1,89,236.55c-1.76,1.85-3.58,3.66-5.47,5.39q-.81.75-1.65,1.47c-.28.22-1.47,1.22-1.69,1.39a60,60,0,0,1-11.65,7.27,39.64,39.64,0,0,1-4.24,1.66c.16-.09-1.72.36-2.21.43a25.74,25.74,0,0,1-3.16.27A29,29,0,0,1,54.3,254c1.14.16.6.13-.12,0l-.55-.08.54.08a5.78,5.78,0,0,1-1-.27c-1.17-.53-2.32-1-3.45-1.63-8.75-4.76-13.49,10.2-14.18,16.09-1,8.31-.77,23.56,8.05,28.36C64.06,307.7,84.94,292.26,99,278.06A199.1,199.1,0,0,0,129.76,237a52.3,52.3,0,0,0,24.47,4.19c10.38-.88,22.05-3.9,31.06-9.25,7.78-4.61,14.17-11.29,19.87-18.22,2.75-3.35,5.43-6.78,8.34-10,1.36-1.5,2.75-3,4.21-4.35l.91-.85c14.82,12.82,32.74,21.72,52.37,24.32a67.79,67.79,0,0,0,55.23-17.66c4.55,3.19,8.93,6.63,13.71,9.43a52.68,52.68,0,0,0,22.35,6.57c17.81,1.44,35.41-3.23,52.48-8,12.31,14.07,31.55,23.09,49.7,25.74,8.88,1.3,17.52-.09,26.26-1.6,4.21-.73,8.43-1.41,12.69-1.77a66.2,66.2,0,0,1,7.45-.31c.95,0,1.91.09,2.86.21.24,0,2.49.66,2.36.54a23,23,0,0,1,3.42,1.66,18.37,18.37,0,0,0,2.18,1.5l.06,0,0,0c3,2.86,6.11,5.7,9.36,8.33,7,5.69,15.79,8.69,24.74,9.74,17.63,2.07,35.81-5.09,50.69-13.94a182.92,182.92,0,0,0,21.12-14.81c-.45.83-.9,1.65-1.37,2.46l-.4.68c-.34.5-.93,1.39-1.06,1.57a82.31,82.31,0,0,1-6.51,8.14,22.26,22.26,0,0,1-6.71,5.09,35.61,35.61,0,0,1-4.44,1.92,12.35,12.35,0,0,1-2.64.8c-6.36,1.52,1,12.33-5,15-11.7,5.27-38.72,22.17-39.74,24.17-.07.14-.38.63-.71,1.17a2.24,2.24,0,0,0-.85,1.35c-.24.31-.48.62-.74.92s-1.54,1.49-2,2-1.78,1.17-2.08,1.36a41.42,41.42,0,0,1-9.73,4.1c.16-.06-2.52.59-3.14.71-1.9.38-3.81.69-5.73.91a65.58,65.58,0,0,1-11,.4c-7.44-.37-13-1.82-19.27-6.44a6.11,6.11,0,0,0-6.13,0c-13.81,6.58-25.95,16.21-40,22.45-7.18,3.2-11.41,4.74-19.28,4.52a31.62,31.62,0,0,1-5.31-.59l-.64-.12c.05,0,0-.06-.35-.19-.77-.29-1.53-.58-2.28-.92a44.59,44.59,0,0,1-5-2.89c-.32-.2-.77-.54-.93-.66-1-.88-1.88-1.85-2.76-2.8-2.09-2.24-5.81-4.38-8.88-2.32-6.55,4.38-12.27,9.85-17.94,15.29-1.37,1.31-2.74,2.63-4.15,3.92l-1.7,1.52-.93.75a54.32,54.32,0,0,1-8.31,5.29c-14.39,7-30.08.92-43.63-5-6.26-2.75-13.81-6.94-20.84-6.83-5.19.08-8.74,2.7-12.6,5.69-5.5,4.27-12.08,8.54-19,9.85-8.09,1.53-16.39-.26-24.18-2.43-8.46-2.36-12.11,6.28-13.6,13.35-1.9,9-1.64,21.4,4.72,28.78,24.69,28.65,69.06,22.52,102.29,17.82,16.38-2.32,32.89-5.63,49.47-5.95,27.22-.54,54.41,1.41,81.62-.56,13-.93,26-2.15,38.95-3.38,13.35-1.27,26.73-3.09,39.46-7.47,5.34-1.84,7.56-10.76,8.23-17.33q4.43-1.59,8.7-3.44c27.67-12,44.55-37.21,59.93-61.84,4.24-6.8,3.93-17.86,2.39-25.18a40,40,0,0,0-1.92-6.26c11.45-18.4,16.09-39.57,11-60.59" fill="#f2f2f2"/><path d="M626.23,180.24a33.2,33.2,0,0,1-1,61.53c9.57,18.28,1.35,43.68-17.12,52.89,5.65,7.12,4.18,18.1-1.47,25.23s-14.49,11-23.33,13.16c-11.24,21-41.76,28.65-61.58,15.42-10.74,12.65-32.61,13.43-47.86,2.88-14.21,13-37.46,14.59-53.34,3.74-14.78,14.32-39.84,9.69-57-1.6-2.71-1.78-5.5-3.76-8.74-4.07s-6.46,1.17-9.46,2.57c-12.81,6-27.77,11.25-40.73,5.58-4.62-2-8.86-5.39-13.89-5.67-4.38-.24-8.47,1.92-12.58,3.44A46.11,46.11,0,0,1,236.29,350c-2.66-1.87-5.36-4.12-8.61-4.32-3.61-.23-6.8,2.13-10.1,3.63-11.16,5.1-26-.9-30.51-12.31-18.16,7.77-41.91-3.69-49.1-26.58a26.46,26.46,0,0,1-25.22-9.23,37.28,37.28,0,0,1-6.29-13,66,66,0,0,1-2.65-18.3,11.86,11.86,0,0,0-.53-4.41c-.81-2-2.72-3.33-4.36-4.76-8.57-7.46-10.82-20.24-8.51-31.36s8.41-21,13-30.94c2.56-18,22.69-31.33,40.27-26.66A48,48,0,0,1,215,144.3c25.53-28.57,73.93-32.66,103.9-8.79,23.17-21.62,60.31-26.6,88.35-11.84,4.41,2.32,9.06,5.17,14,4.47,2.73-.39,5.17-1.83,7.63-3.08,23.88-12.08,56-4.43,71.84,17.13,21-13.87,52-9.45,68.27,9.73,21-4.33,44.12,6.55,53.8,25.63C624.46,178.18,625.56,180,626.23,180.24Z" fill="none" stroke="#d9d2bf" stroke-miterlimit="10" stroke-width="22"/></g><g clip-path="url(#b)"><path d="M575.82,240.66a36.94,36.94,0,0,0,27.41-.13c21.06-8.54,41.73-18.37,58-34,20-19.06,32-49.09,22.16-74.85-6.92-18.06-23-30.82-39-41.65C531.63,13.78,385.17-10.56,253.79,25.15c-46,12.51-91,32.53-126.08,64.86S72.29,162.34,63.92,216.49c-3.18,11.38-.37,26.43,2.69,37.85s14.85,21.38,26.17,18c3.8-1.14,7-3.58,10.24-5.92,69.13-50.56,156.25-73.06,241.9-72.93,80.54.13,160,19.28,230.9,47.19" fill="#fffdf2"/><path d="M575.82,240.66a36.94,36.94,0,0,0,27.41-.13c21.06-8.54,41.73-18.37,58-34,20-19.06,32-49.09,22.16-74.85-6.92-18.06-23-30.82-39-41.65C531.63,13.78,385.17-10.56,253.79,25.15c-46,12.51-91,32.53-126.08,64.86S72.29,162.34,63.92,216.49c-3.18,11.38-.37,26.43,2.69,37.85s14.85,21.38,26.17,18c3.8-1.14,7-3.58,10.24-5.92,69.13-50.56,156.25-73.06,241.9-72.93C425.46,193.6,505,212.75,575.82,240.66Z" fill="none" stroke="#dedcca" stroke-miterlimit="10" stroke-width="18"/><path d="M714.67,119.44c-.72-14.51-12.28-28.51-27.81-27.81-14.46.65-28.58,12.25-27.82,27.81a32.16,32.16,0,0,1-1.79,9.06c-.27.8-3.73,9.26-4.84,11.43-4,7.83-6.69,10.29-11.78,17.44-1,1.37-2,2.72-3,4.07q-.48.62-1,1.23a200.62,200.62,0,0,1-19.32,20.54c-12.45,11.06-21.62,15.83-28,18a9.15,9.15,0,0,1-7.29-.67c-4.23-2.31-8.49-4.54-12.83-6.66a319.58,319.58,0,0,0-64.31-23c-42.28-10.4-86.24-14.64-129.7-15.77-90.84-2.36-185.72,9.1-268.59,48.26-11.16,5.27-22.14,10.91-33.25,16.29-2.3,1.11-4.63,2.18-6.93,3.28l-.19.08c-3.88,1.54-7.79,3-11.66,4.53-9.66,3.86-19.55,7.73-28.07,13.81-12,8.55-20.4,18.83-25.33,32.86-4.85,13.8,5.5,31.17,19.52,34.36,15,3.41,28-4.06,33.66-17.68a.16.16,0,0,1,0-.07l.42-.67c.65-.71,1.26-1.36,1.37-1.47l-.7.39v0l.8-.47a8.28,8.28,0,0,1,2.93-1.85c1.12-.72,2.23-1.44,3.41-2.06s2.65-1.36,4-2l3-1.32.44-.18,4.75-1.85c2.84-1.1,5.7-2.19,8.53-3.34,8.77-3.56,17.26-7.59,25.75-11.78C117.37,260.12,125.63,256,134,252c3.9-1.85,7.82-3.66,11.77-5.4l.58-.28.42-.16c2.61-1,5.18-2.08,7.8-3.06a476.54,476.54,0,0,1,52.3-15.86c19-4.69,38.25-8.31,57.63-11.08a711.87,711.87,0,0,1,181.1,0c26.86,3.87,53.54,9.65,79.11,18.85,3.33,1.2,6.58,2.62,9.9,3.82l-2.62-1c.86.32,2,.77,2.61,1,1.64.74,3.28,1.51,4.91,2.29,6.52,3.13,12.91,6.53,19.21,10.07,5.6,3.14,11.13,6.4,16.64,9.69.39.44.78.89,1.2,1.32,7.3,7.55,17.12,11.87,27.19,14.37a27.92,27.92,0,0,0,30.8-41.79c5.89-3.89,12.25-8.05,13.35-8.74,7.51-4.65,15-9.35,21.09-15.88a230.56,230.56,0,0,0,28.1-37.51c9.38-15.59,18.51-34.54,17.59-53.23M630.61,171c-1.49,1-2.92,2.05-4.43,3l-.24.16c.72-.51,2.16-1.5,4.67-3.18" fill="#dedcca"/><path d="M56.23,288.68h0c2.28-1.28,3.06-1.86,3-1.95-1,.63-1.94,1.26-2.93,1.85l-.1.09" fill="#dedcca"/><path d="M532,237.82h0" fill="#dedcca"/><path d="M656.05,131.38c-1,2.08-.62,1.35,0,0" fill="#dedcca"/></g></svg>