<svg xmlns="http://www.w3.org/2000/svg" xmlns:xlink="http://www.w3.org/1999/xlink" width="562.69" height="446.54" viewBox="0 0 562.69 446.54"><defs><clipPath id="a"><rect x="159.83" y="157.67" width="18.5" height="18" fill="none"/></clipPath><clipPath id="b"><rect x="223.83" y="143.67" width="18.5" height="18" fill="none"/></clipPath><clipPath id="c"><rect x="259.83" y="188.61" width="18.5" height="18" fill="none"/></clipPath><clipPath id="d"><rect x="276.42" y="131.67" width="18.5" height="18" fill="none"/></clipPath><clipPath id="e"><rect x="324.81" y="189.21" width="18.5" height="17.65" fill="none"/></clipPath><clipPath id="f"><rect x="488.81" y="167.67" width="18.5" height="18" fill="none"/></clipPath><clipPath id="g"><rect x="416.81" y="167.67" width="18.5" height="18" fill="none"/></clipPath><clipPath id="h"><rect x="452.81" y="193.67" width="18.5" height="18" fill="none"/></clipPath><clipPath id="i"><rect x="374.32" y="179.67" width="18.5" height="18" fill="none"/></clipPath><clipPath id="j"><rect x="318.44" y="92.67" width="18.5" height="18" fill="none"/></clipPath><clipPath id="k"><rect x="192.32" y="179.67" width="18.5" height="18" fill="none"/></clipPath><clipPath id="l"><rect x="181.32" y="107.67" width="18.5" height="18" fill="none"/></clipPath><clipPath id="m"><rect x="240.07" y="85.61" width="18.5" height="18" fill="none"/></clipPath><clipPath id="n"><rect x="338.32" y="131.67" width="18.5" height="18" fill="none"/></clipPath><clipPath id="o"><rect x="446.32" y="121.61" width="18.5" height="18" fill="none"/></clipPath><clipPath id="p"><rect x="396.81" y="103.61" width="18.5" height="18" fill="none"/></clipPath><clipPath id="q"><rect x="115.81" y="125.61" width="18.5" height="18" fill="none"/></clipPath><clipPath id="r"><rect x="131.2" y="179.67" width="18.5" height="18" fill="none"/></clipPath></defs><title>ikura</title><path d="M553.38,212.12c-1.59-18.27-12.59-42.56-35-47.57-47.91-10.7-72.73-14.91-107.6-21.05C343,131.6,300.52,129.93,240.65,135c-36.55,3.07-61.84-10.22-97.36,1.14s-73,12.39-91,70.11c-5.34,17-2.95,46.79,3.27,63.52,7.28,19.59,24.57,29.58,40.77,37,122.33,55.75,257.91,51.75,385.06,16.82,19.35-5.31,39.36-11.8,54.44-27.93s17.58-58.89,17.58-83.46" fill="#4f473a"/><path d="M93.63,242.85c-7.91-13.33-14.69-27.74-16.32-43.16S79.9,167.63,91.22,157c12.52-11.71,30.89-14.08,48-15.38A877.44,877.44,0,0,1,412.33,164c36.89,9,73.82,20.65,105.17,42.06,8.68,5.92,17.57,13.83,18.24,24.31.73,11.32-8.38,20.69-17.33,27.65C466.73,298.14,398,311.33,332.76,306.74S204.55,281.33,143,259.24" fill="#f15a24"/><path d="M37.14,167.75a30.19,30.19,0,0,0,3.75,3.09c50,35,110.8,62.79,177.26,56.9,9.25-.82,18.75-2.36,27.17-6.65s15.63-11.81,16.92-20.24c1.82-11.76-7.72-21.16-17-28.44-48.47-38.1-108-64.78-172.41-77.26C61.56,93,41,91.7,28.93,93.21-1.39,97-1.3,111.79.79,124.92c2,12.57,22.77,29.64,36.35,42.83" fill="#82ad5f"/><path d="M61.08,171.21a30.32,30.32,0,0,0,3.74,3.1c50,35,110.8,62.79,177.26,56.9,9.25-.82,18.75-2.37,27.17-6.66s15.63-11.8,16.93-20.23c1.81-11.77-7.73-21.16-17-28.44-48.46-38.11-108-64.78-172.41-77.27-11.28-2.18-22.73-.89-34.66,1.62-21.83,4.6-29.63,17.08-27.54,30.21,2,12.56,12.91,27.58,26.5,40.77" fill="#d5db97"/><path d="M130.94,132.19c10-2.37,20.05,2.94,27.73,7.28l.48.28A15,15,0,0,1,173,134.9c9.81,1.68,13.81,10.61,13.82,19.27,11.66-1.39,23.87,1.38,30.56,9,2,2.32,1.9,6.59.16,9.34-4.4,7-11,9.66-18.28,10.12a15.44,15.44,0,0,1-1.67,9.6,20.47,20.47,0,0,1-1.76,2.6c.27-.33-1.55,2.24-2,2.71-8.44,9.4-20.56,5.33-25.38-3a55.64,55.64,0,0,1-3.86-8.46,23,23,0,0,1-6.64,3,64.45,64.45,0,0,1-15.17,2.13c-11.84.24-26.62-2.81-28.13-15.16-1-8.15,5.12-14,12.6-17.49a37.44,37.44,0,0,1-3.08-2.66c-3.29-3.17-5.67-6.9-5.11-11.68.69-5.81,5.66-10.58,11.88-12.06" fill="#e3e6c3"/><path d="M74.09,74a28.31,28.31,0,0,0,2.18,4.24c31.65,50.84,76.21,99,139.8,118.34,8.86,2.68,18.24,4.8,27.75,4s19.23-5.05,23.88-12.33c6.5-10.15,1.57-22.35-4-32.5-29-53.11-72.82-99.81-127-135.27-9.48-6.21-27.85-15-39.62-18.13C67.65-5.52,61.66,8.14,58.2,21,54.88,33.32,67,56.76,74.09,74" fill="#82ad5f"/><path d="M94.69,86.05a30.32,30.32,0,0,0,2.18,4.24c31.65,50.85,76.22,99,139.81,118.34,8.86,2.69,18.24,4.8,27.75,4s19.23-5.05,23.88-12.32c6.5-10.16,1.57-22.36-4-32.5-29-53.11-72.82-99.82-127-135.28-9.48-6.21-20.55-9.28-32.56-11.41-22-3.89-34.28,4.7-37.75,17.56C83.73,51,87.6,68.85,94.69,86.05" fill="#d5db97"/><path d="M175,76.13c10.15,1.53,17.25,10.16,22.53,17l.34.44a15.25,15.25,0,0,1,14.7.69c8.34,5.19,8.36,14.9,4.81,22.87,11.31,3.06,21.41,10.15,24.44,19.67.92,2.9-1,6.77-3.69,8.66-6.91,4.78-14.09,4.79-21,2.51a15.8,15.8,0,0,1-5.48,8.21,20.85,20.85,0,0,1-2.68,1.74c.38-.2-2.35,1.49-2.92,1.76C194.46,165.21,185,157,184,147.47a53.65,53.65,0,0,1-.07-9.23,23.32,23.32,0,0,1-7.37.33,64.11,64.11,0,0,1-14.84-3.68c-11-4.18-23.34-12.49-19.67-24.43,2.42-7.86,10.44-10.94,18.77-11.4A39.49,39.49,0,0,1,159,95.47c-1.72-4.15-2.39-8.47.09-12.66,3-5.1,9.56-7.63,15.89-6.68" fill="#e3e6c3"/><path d="M138.81,188.06a36,36,0,1,1,36,36,36,36,0,0,1-36-36" fill="#eb722d"/><path d="M146.33,179.67a18,18,0,1,1,18,18,18,18,0,0,1-18-18" fill="#e84e23"/><g clip-path="url(#a)"><path d="M159.83,166.67a9.25,9.25,0,1,1,9.25,9,9.13,9.13,0,0,1-9.25-9" fill="#fff1d9"/></g><path d="M202.81,174.06a36,36,0,1,1,36,36,36,36,0,0,1-36-36" fill="#eb722d"/><path d="M210.33,165.67a18,18,0,1,1,18,18,18,18,0,0,1-18-18" fill="#e84e23"/><g clip-path="url(#b)"><path d="M223.83,152.67a9.25,9.25,0,1,1,9.25,9,9.13,9.13,0,0,1-9.25-9" fill="#fff1d9"/></g><path d="M238.81,219a36,36,0,1,1,36,36,36,36,0,0,1-36-36" fill="#eb722d"/><path d="M246.33,210.61a18,18,0,1,1,18,18,18,18,0,0,1-18-18" fill="#e84e23"/><g clip-path="url(#c)"><path d="M259.83,197.61a9.25,9.25,0,1,1,9.25,9,9.13,9.13,0,0,1-9.25-9" fill="#fff1d9"/></g><path d="M255.4,162.06a36,36,0,1,1,36,36,36,36,0,0,1-36-36" fill="#eb722d"/><path d="M262.91,153.67a18,18,0,1,1,18,18,18,18,0,0,1-18-18" fill="#e84e23"/><g clip-path="url(#d)"><path d="M276.41,140.67a9.25,9.25,0,1,1,9.25,9,9.13,9.13,0,0,1-9.25-9" fill="#fff1d9"/></g><path d="M303.79,219c0-19.49,16.12-35.29,36-35.29s36,15.8,36,35.29-16.12,35.29-36,35.29-36-15.8-36-35.29" fill="#eb722d"/><path d="M311.3,210.78a18,18,0,1,1,18,17.64,17.83,17.83,0,0,1-18-17.64" fill="#e84e23"/><g clip-path="url(#e)"><path d="M324.8,198a9.26,9.26,0,1,1,9.25,8.82A9,9,0,0,1,324.8,198" fill="#fff1d9"/></g><path d="M467.79,198.06a36,36,0,1,1,36,36,36,36,0,0,1-36-36" fill="#eb722d"/><path d="M475.3,189.67a18,18,0,1,1,18,18,18,18,0,0,1-18-18" fill="#e84e23"/><g clip-path="url(#f)"><path d="M488.8,176.67a9.25,9.25,0,1,1,9.25,9,9.13,9.13,0,0,1-9.25-9" fill="#fff1d9"/></g><path d="M395.79,198.06a36,36,0,1,1,36,36,36,36,0,0,1-36-36" fill="#eb722d"/><path d="M403.3,189.67a18,18,0,1,1,18,18,18,18,0,0,1-18-18" fill="#e84e23"/><g clip-path="url(#g)"><path d="M416.8,176.67a9.25,9.25,0,1,1,9.25,9,9.13,9.13,0,0,1-9.25-9" fill="#fff1d9"/></g><path d="M431.79,224.06a36,36,0,1,1,36,36,36,36,0,0,1-36-36" fill="#eb722d"/><path d="M439.3,215.67a18,18,0,1,1,18,18,18,18,0,0,1-18-18" fill="#e84e23"/><g clip-path="url(#h)"><path d="M452.8,202.67a9.25,9.25,0,1,1,9.25,9,9.13,9.13,0,0,1-9.25-9" fill="#fff1d9"/></g><path d="M353.3,210.06a36,36,0,1,1,36,36,36,36,0,0,1-36-36" fill="#eb722d"/><path d="M360.82,201.67a18,18,0,1,1,18,18,18,18,0,0,1-18-18" fill="#e84e23"/><g clip-path="url(#i)"><path d="M374.32,188.67a9.25,9.25,0,1,1,9.25,9,9.13,9.13,0,0,1-9.25-9" fill="#fff1d9"/></g><path d="M297.43,123.06a36,36,0,1,1,36,36,36,36,0,0,1-36-36" fill="#eb722d"/><path d="M304.94,114.67a18,18,0,1,1,18,18,18,18,0,0,1-18-18" fill="#e84e23"/><g clip-path="url(#j)"><path d="M318.44,101.67a9.25,9.25,0,1,1,9.25,9,9.13,9.13,0,0,1-9.25-9" fill="#fff1d9"/></g><path d="M171.3,210.06a36,36,0,1,1,36,36,36,36,0,0,1-36-36" fill="#eb722d"/><path d="M178.82,201.67a18,18,0,1,1,18,18,18,18,0,0,1-18-18" fill="#e84e23"/><g clip-path="url(#k)"><path d="M192.32,188.67a9.25,9.25,0,1,1,9.25,9,9.13,9.13,0,0,1-9.25-9" fill="#fff1d9"/></g><path d="M160.3,138.06a36,36,0,1,1,36,36,36,36,0,0,1-36-36" fill="#eb722d"/><path d="M167.82,129.67a18,18,0,1,1,18,18,18,18,0,0,1-18-18" fill="#e84e23"/><g clip-path="url(#l)"><path d="M181.32,116.67a9.25,9.25,0,1,1,9.25,9,9.13,9.13,0,0,1-9.25-9" fill="#fff1d9"/></g><path d="M219.06,116a36,36,0,1,1,36,36,36,36,0,0,1-36-36" fill="#eb722d"/><path d="M226.57,107.61a18,18,0,1,1,18,18,18,18,0,0,1-18-18" fill="#e84e23"/><g clip-path="url(#m)"><path d="M240.07,94.61a9.25,9.25,0,1,1,9.25,9,9.13,9.13,0,0,1-9.25-9" fill="#fff1d9"/></g><path d="M317.3,162.06a36,36,0,1,1,36,36,36,36,0,0,1-36-36" fill="#eb722d"/><path d="M324.82,153.67a18,18,0,1,1,18,18,18,18,0,0,1-18-18" fill="#e84e23"/><g clip-path="url(#n)"><path d="M338.32,140.67a9.25,9.25,0,1,1,9.25,9,9.13,9.13,0,0,1-9.25-9" fill="#fff1d9"/></g><path d="M425.3,152a36,36,0,1,1,36,36,36,36,0,0,1-36-36" fill="#eb722d"/><path d="M432.82,143.61a18,18,0,1,1,18,18,18,18,0,0,1-18-18" fill="#e84e23"/><g clip-path="url(#o)"><path d="M446.32,130.61a9.25,9.25,0,1,1,9.25,9,9.13,9.13,0,0,1-9.25-9" fill="#fff1d9"/></g><path d="M375.79,134a36,36,0,1,1,36,36,36,36,0,0,1-36-36" fill="#eb722d"/><path d="M383.3,125.61a18,18,0,1,1,18,18,18,18,0,0,1-18-18" fill="#e84e23"/><g clip-path="url(#p)"><path d="M396.8,112.61a9.25,9.25,0,1,1,9.25,9,9.13,9.13,0,0,1-9.25-9" fill="#fff1d9"/></g><path d="M94.79,156a36,36,0,1,1,36,36,36,36,0,0,1-36-36" fill="#eb722d"/><path d="M102.3,147.61a18,18,0,1,1,18,18,18,18,0,0,1-18-18" fill="#e84e23"/><g clip-path="url(#q)"><path d="M115.8,134.61a9.25,9.25,0,1,1,9.25,9,9.13,9.13,0,0,1-9.25-9" fill="#fff1d9"/></g><path d="M110.19,210.06a36,36,0,1,1,36,36,36,36,0,0,1-36-36" fill="#eb722d"/><path d="M117.7,201.67a18,18,0,1,1,18,18,18,18,0,0,1-18-18" fill="#e84e23"/><g clip-path="url(#r)"><path d="M131.2,188.67a9.25,9.25,0,1,1,9.25,9,9.13,9.13,0,0,1-9.25-9" fill="#fff1d9"/></g><path d="M110.19,210.06a36,36,0,1,1,36,36,36,36,0,0,1-36-36" fill="#eb722d"/><path d="M117.7,201.67a18,18,0,1,1,18,18,18,18,0,0,1-18-18" fill="#e84e23"/><g clip-path="url(#r)"><path d="M131.2,188.67a9.25,9.25,0,1,1,9.25,9,9.13,9.13,0,0,1-9.25-9" fill="#fff1d9"/></g><path d="M312.79,238.06c-82.38,0-225.73-10.49-251.75-54.35-11.57,28.54-13.57,51.36-14.42,76-.93,27.49-4.94,80-6.81,107.46C37.34,403.36,36.55,406.47,77,417c93.85,24.35,232.71,32.46,305.81,28.7a393.5,393.5,0,0,0,157-40.07c17.56-8.63,17.46-12.45,21.08-50,4.78-49.62-.37-104.71-9.45-153.56-27,42.1-175.86,36-238.63,36" fill="#70644f"/><path d="M164.25,266.34c.12-.08.91.38,0,.06a3.88,3.88,0,0,1-1.2-.84,46.67,46.67,0,0,1-4.08-4.79c-3.12-3.58-7.22-6.62-12.24-5.88-4.66.69-7.21,4.07-9.77,7.6a120,120,0,0,0-6.23-12.09c-3.34-5.64-11-5.14-14.43,0a190.76,190.76,0,0,0-15.09,27c-.49-8.66.5-17.66.39-26-.11-8-.79-19.82-11.76-19.22-10.25.55-13.66,13.58-16.56,21.43C60.18,289.07,59,327.68,57.81,365.06c-.33,10.79,16.44,10.78,16.76,0,.62-20.53,1.21-41.16,3.94-61.55a235.39,235.39,0,0,1,5.81-29.42c.17-.62.35-1.23.52-1.85,0,1.28,0,2.57,0,3.85.29,10.86,2.2,21.72,8.34,30.89a8.4,8.4,0,0,0,15.15-2,178.58,178.58,0,0,1,14.42-33.19,101.12,101.12,0,0,1,3.7,10.46c2.16,7.38,11.19,7.66,15.29,2,2.22-3.06,4.36-6.71,6.77-10,.37.49.73,1,1.08,1.37a22.48,22.48,0,0,0,6.84,5.58A15.26,15.26,0,0,0,174,278.91c6.77-5.93-2.18-17.76-9.7-12.57" fill="#d9cbb4"/></svg>