<svg xmlns="http://www.w3.org/2000/svg" xmlns:xlink="http://www.w3.org/1999/xlink" width="879.48" height="364.4" viewBox="0 0 879.48 364.4"><defs><clipPath id="a"><path d="M380.74,96.65c-30-23.88-78.37-19.79-103.9,8.78a48,48,0,0,0-71.38,27.44c-17.57-4.66-37.7,8.66-40.26,26.66-4.54,9.91-10.65,19.82-13,30.94s-.05,23.9,8.51,31.37c1.64,1.43,3.56,2.74,4.37,4.75a11.94,11.94,0,0,1,.53,4.42,65.83,65.83,0,0,0,2.65,18.29,37,37,0,0,0,6.29,13,26.48,26.48,0,0,0,25.22,9.24c7.19,22.89,30.94,34.35,49.1,26.57,4.5,11.42,19.35,17.41,30.51,12.31,3.3-1.5,6.48-3.85,10.1-3.63,3.25.21,6,2.45,8.61,4.33a46.14,46.14,0,0,0,41.77,5.38c4.11-1.53,8.2-3.69,12.58-3.44,5,.27,9.27,3.65,13.89,5.67,13,5.67,27.92.41,40.73-5.59,3-1.4,6.17-2.87,9.46-2.56s6,2.29,8.74,4.07c17.2,11.28,42.26,15.91,57,1.6,15.88,10.84,39.13,9.21,53.34-3.74,15.25,10.55,37.11,9.76,47.86-2.89,19.82,13.24,50.34,5.6,61.58-15.41,8.84-2.17,17.68-6,23.33-13.16s7.12-18.11,1.47-25.24c18.47-9.21,26.69-34.6,17.12-52.89a33.2,33.2,0,0,0,1-61.53c-.67-.28-1.78-2.06-3.44-2.69-9.68-19.08-32.85-29.95-53.8-25.62-16.25-19.18-47.31-23.61-68.27-9.74-15.87-21.56-48-29.21-71.84-17.13-2.46,1.25-4.9,2.7-7.63,3.08-4.94.71-9.59-2.14-14-4.47a75.57,75.57,0,0,0-35.17-8.44c-19.43,0-38.95,7-53.18,20.29" fill="none"/></clipPath><clipPath id="b"><path d="M267.64,14.62c-48.9,9.56-97,32-133.58,71.83-20.17,22-37.37,54.55-29.27,85.66,7.07,27.17,31.75,43.29,55.56,45.62s47.29-6.14,70.4-13.35c136.34-42.57,280.54-43.27,419.47-14.93,21.33,4.36,47.19,7.53,57.71-13.83,5.72-10.57,12.13-29.15-.44-43.19C631,47,520.42,22.68,415.9,12.44c-25-2.45-50.13-4.31-75.2-4.31-24.49,0-48.9,1.77-73.06,6.49" fill="none"/></clipPath><clipPath id="c"><rect x="93.93" y="52.64" width="641.63" height="245.34" fill="none"/></clipPath><clipPath id="d"><rect x="40.13" width="839.35" height="177.1" fill="none"/></clipPath><clipPath id="e"><rect y="37.61" width="865.15" height="172.48" fill="none"/></clipPath></defs><title>kohada</title><g clip-path="url(#a)"><path d="M688.07,141.37a33.2,33.2,0,0,1-1,61.53c9.57,18.29,1.35,43.68-17.12,52.89,5.65,7.13,4.18,18.11-1.47,25.24S654,292,645.12,294.19c-11.24,21-41.76,28.65-61.58,15.41-10.75,12.65-32.61,13.44-47.86,2.88-14.21,13-37.46,14.59-53.34,3.75-14.78,14.31-39.84,9.68-57-1.6-2.72-1.78-5.51-3.76-8.74-4.07s-6.46,1.16-9.46,2.56c-12.81,6-27.77,11.26-40.73,5.59-4.62-2-8.86-5.4-13.89-5.67-4.38-.25-8.47,1.91-12.58,3.44a46.11,46.11,0,0,1-41.77-5.38c-2.66-1.88-5.36-4.12-8.61-4.33-3.62-.22-6.8,2.13-10.1,3.63-11.16,5.1-26-.89-30.51-12.31-18.16,7.78-41.91-3.68-49.1-26.57a26.48,26.48,0,0,1-25.22-9.24,37,37,0,0,1-6.29-13A65.83,65.83,0,0,1,165.65,231a11.94,11.94,0,0,0-.53-4.42c-.81-2-2.73-3.32-4.36-4.75-8.57-7.47-10.82-20.25-8.52-31.37s8.42-21,13-30.93c2.56-18,22.69-31.33,40.26-26.67a48,48,0,0,1,71.38-27.44c25.53-28.57,73.93-32.66,103.9-8.78C403.91,75,441,70.05,469.09,84.8c4.41,2.33,9.06,5.18,14,4.47,2.73-.38,5.17-1.83,7.63-3.07,23.88-12.09,56-4.44,71.84,17.12,21-13.87,52-9.44,68.27,9.74,20.95-4.33,44.12,6.54,53.8,25.62,1.66.63,2.77,2.41,3.44,2.69" fill="#fff"/><path d="M688.07,141.37a33.2,33.2,0,0,1-1,61.53c9.57,18.29,1.35,43.68-17.12,52.89,5.65,7.13,4.18,18.11-1.47,25.24S654,292,645.12,294.19c-11.24,21-41.76,28.65-61.58,15.41-10.75,12.65-32.61,13.44-47.86,2.88-14.21,13-37.46,14.59-53.34,3.75-14.78,14.31-39.84,9.68-57-1.6-2.72-1.78-5.51-3.76-8.74-4.07s-6.46,1.16-9.46,2.56c-12.81,6-27.77,11.26-40.73,5.59-4.62-2-8.86-5.4-13.89-5.67-4.38-.25-8.47,1.91-12.58,3.44a46.11,46.11,0,0,1-41.77-5.38c-2.66-1.88-5.36-4.12-8.61-4.33-3.62-.22-6.8,2.13-10.1,3.63-11.16,5.1-26-.89-30.51-12.31-18.16,7.78-41.91-3.68-49.1-26.57a26.48,26.48,0,0,1-25.22-9.24,37,37,0,0,1-6.29-13A65.83,65.83,0,0,1,165.65,231a11.94,11.94,0,0,0-.53-4.42c-.81-2-2.73-3.32-4.36-4.75-8.57-7.47-10.82-20.25-8.52-31.37s8.42-21,13-30.93c2.56-18,22.69-31.33,40.26-26.67a48,48,0,0,1,71.38-27.44c25.53-28.57,73.93-32.66,103.9-8.78C403.91,75,441,70.05,469.09,84.8c4.41,2.33,9.06,5.18,14,4.47,2.73-.38,5.17-1.83,7.63-3.07,23.88-12.09,56-4.44,71.84,17.12,21-13.87,52-9.44,68.27,9.74,20.95-4.33,44.12,6.54,53.8,25.62C686.29,139.31,687.4,141.09,688.07,141.37Z" fill="none" stroke="#c9c9c9" stroke-miterlimit="10" stroke-width="9"/><path d="M712.74,168.4l1.76-1.8c7-7.25,7.1-22.56,4.13-31.53-2.36-7.15-8.38-15.86-15.76-8.27-11.85,12.18-21.41,20.81-35.52,30-13.91,9.07-28.53,16.17-44.92,15.8-8-.18-13.8-1.65-20.42-6.21l-1.75-1.29c-.25-.21-.5-.41-.59-.5-1.09-1-2.16-2-3.24-3-3.06-2.83-6.21-5.82-9.9-7.82-15.35-8.34-33.69,0-49.81.68-10.16.44-19.49-2.26-28.68-6.4-9.89-4.47-16.91-9.2-23-17.5-2.4-3.28-5.46-3.28-8.88-2.32-16.88,4.74-34.34,9.41-52,8a35.09,35.09,0,0,1-17.26-5.55c-5.72-3.53-10.92-7.85-16.61-11.45-3.11-2-6.77,0-8.88,2.32-1.33,1.48-3.79,4-4.69,4.82,0,0-1.9,1.51-2.12,1.67-1.1.82-2.24,1.59-3.4,2.33a57.75,57.75,0,0,1-12.56,5.94,53.77,53.77,0,0,1-11.51,2,69.39,69.39,0,0,1-14.26-.46c-8.86-1.17-15.94-3.54-24.59-7.89a98,98,0,0,1-12.48-7.5c-1.52-1.08-3-2.21-4.46-3.37-.11-.12-1.78-1.53-1.88-1.62-.94-.86-1.86-1.75-2.77-2.64-2.11-2.08-5.8-4.54-8.88-2.33a103.1,103.1,0,0,0-19.56,19c-2.43,3-4.83,6-7.42,8.85-1.31,1.43-2.69,2.76-4,4.13-.17.16-.31.31-.43.43l-.29.22c-.88.68-1.77,1.35-2.7,2-7.33,5-16.23,7.72-25,8.83-10,1.27-18.25-.59-27-5.34-5-2.71-9.14,1.91-11.22,5.93-1.58,3.07-3.27,6.09-5,9.06-1.07,1.79-2.21,3.53-3.28,5.32l-.31.48c-.61.92-1.22,1.83-1.85,2.74a185.83,185.83,0,0,1-18.81,23.53q-2.65,2.77-5.47,5.39c-.54.5-1.09,1-1.65,1.47-.28.22-1.47,1.22-1.69,1.39a60.23,60.23,0,0,1-11.65,7.26,41.93,41.93,0,0,1-4.24,1.67c.16-.09-1.72.36-2.21.43a27.87,27.87,0,0,1-3.16.27,30.23,30.23,0,0,1-4.67-.39c1.14.16.6.12-.12,0l-.56-.07.55.07a5,5,0,0,1-1-.27c-1.18-.52-2.32-1-3.45-1.63-8.76-4.76-13.49,10.2-14.18,16.1-1,8.3-.77,23.56,8,28.35,20.46,11.13,41.34-4.32,55.41-18.51a199.06,199.06,0,0,0,30.75-41.08,52.41,52.41,0,0,0,24.47,4.19c10.38-.89,22.05-3.9,31.06-9.25,7.78-4.62,14.17-11.29,19.87-18.23,2.75-3.35,5.43-6.77,8.34-10,1.35-1.5,2.75-3,4.21-4.36.2-.18.59-.54.91-.85,14.82,12.82,32.74,21.73,52.37,24.32a67.79,67.79,0,0,0,55.23-17.66c4.55,3.19,8.93,6.63,13.71,9.44a52.67,52.67,0,0,0,22.35,6.56c17.8,1.44,35.41-3.23,52.47-8,12.32,14.08,31.56,23.09,49.71,25.75,8.88,1.3,17.52-.1,26.26-1.61,4.21-.73,8.43-1.41,12.69-1.77a63.92,63.92,0,0,1,7.45-.3,27.5,27.5,0,0,1,2.86.21c.23,0,2.49.65,2.36.53a23,23,0,0,1,3.42,1.67,18.28,18.28,0,0,0,2.18,1.49l.06,0,0,0c3,2.87,6.11,5.71,9.36,8.34,7,5.69,15.79,8.68,24.74,9.73,17.62,2.07,35.81-5.08,50.69-13.94a182.83,182.83,0,0,0,21.12-14.8c-.45.82-.91,1.64-1.37,2.46l-.4.68c-.34.49-.93,1.38-1.06,1.57a83.49,83.49,0,0,1-6.51,8.14,22.24,22.24,0,0,1-6.71,5.08,34.31,34.31,0,0,1-4.45,1.92,12.27,12.27,0,0,1-2.63.81c-6.36,1.52,1,12.32-5,15-11.7,5.28-38.72,22.17-39.74,24.17-.07.14-.38.64-.71,1.17a2.29,2.29,0,0,0-.85,1.35c-.24.31-.48.63-.74.92s-1.54,1.49-2,2-1.78,1.18-2.08,1.36a41.42,41.42,0,0,1-9.73,4.1c.16-.06-2.52.59-3.14.72q-2.85.57-5.73.91a66.65,66.65,0,0,1-11,.4c-7.44-.38-13-1.83-19.27-6.44a6.11,6.11,0,0,0-6.13,0c-13.81,6.58-26,16.2-40,22.44-7.18,3.2-11.42,4.74-19.28,4.52a31.6,31.6,0,0,1-5.31-.58l-.64-.13c.05,0,0-.05-.35-.18-.77-.29-1.53-.59-2.28-.93a45.63,45.63,0,0,1-5-2.89c-.31-.19-.76-.54-.93-.66-1-.87-1.87-1.84-2.76-2.8-2.09-2.23-5.8-4.38-8.88-2.32-6.54,4.38-12.26,9.85-17.93,15.29-1.37,1.32-2.75,2.64-4.15,3.92-.56.52-1.13,1-1.7,1.53-.18.14-.49.38-.94.75a53.69,53.69,0,0,1-8.3,5.28c-14.39,7-30.08.93-43.63-5-6.26-2.74-13.81-6.94-20.85-6.83-5.18.08-8.73,2.7-12.59,5.7-5.5,4.26-12.08,8.54-19,9.84-8.09,1.53-16.39-.25-24.18-2.42-8.46-2.36-12.11,6.28-13.6,13.34-1.9,9-1.64,21.41,4.72,28.78,24.69,28.65,69.06,22.52,102.29,17.82,16.38-2.32,32.89-5.62,49.47-5.95,27.22-.54,54.41,1.41,81.62-.55,13-.94,26-2.16,39-3.39,13.35-1.27,26.73-3.08,39.46-7.46,5.34-1.84,7.56-10.76,8.23-17.34q4.43-1.59,8.7-3.43c27.67-12,44.55-37.21,59.93-61.85,4.24-6.79,3.93-17.85,2.38-25.18a39.08,39.08,0,0,0-1.91-6.26c11.45-18.4,16.09-39.56,11-60.58" fill="#f2f2f2"/><path d="M688.07,141.37a33.2,33.2,0,0,1-1,61.53c9.57,18.29,1.35,43.68-17.12,52.89,5.65,7.13,4.18,18.11-1.47,25.24S654,292,645.12,294.19c-11.24,21-41.76,28.65-61.58,15.41-10.75,12.65-32.61,13.44-47.86,2.88-14.21,13-37.46,14.59-53.34,3.75-14.78,14.31-39.84,9.68-57-1.6-2.72-1.78-5.51-3.76-8.74-4.07s-6.46,1.16-9.46,2.56c-12.81,6-27.77,11.26-40.73,5.59-4.62-2-8.86-5.4-13.89-5.67-4.38-.25-8.47,1.91-12.58,3.44a46.11,46.11,0,0,1-41.77-5.38c-2.66-1.88-5.36-4.12-8.61-4.33-3.62-.22-6.8,2.13-10.1,3.63-11.16,5.1-26-.89-30.51-12.31-18.16,7.78-41.91-3.68-49.1-26.57a26.48,26.48,0,0,1-25.22-9.24,37,37,0,0,1-6.29-13A65.83,65.83,0,0,1,165.65,231a11.94,11.94,0,0,0-.53-4.42c-.81-2-2.73-3.32-4.36-4.75-8.57-7.47-10.82-20.25-8.52-31.37s8.42-21,13-30.93c2.56-18,22.69-31.33,40.26-26.67a48,48,0,0,1,71.38-27.44c25.53-28.57,73.93-32.66,103.9-8.78C403.91,75,441,70.05,469.09,84.8c4.41,2.33,9.06,5.18,14,4.47,2.73-.38,5.17-1.83,7.63-3.07,23.88-12.09,56-4.44,71.84,17.12,21-13.87,52-9.44,68.27,9.74,20.95-4.33,44.12,6.54,53.8,25.62C686.29,139.31,687.4,141.09,688.07,141.37Z" fill="none" stroke="#d9d2bf" stroke-miterlimit="10" stroke-width="24"/></g><g clip-path="url(#b)"><path d="M707.49,132.43C631,47,520.42,22.68,415.9,12.44c-49.39-4.84-99.36-7.37-148.26,2.18s-97,32-133.58,71.83c-20.16,22-37.37,54.55-29.27,85.66,7.07,27.17,31.75,43.29,55.56,45.62s47.29-6.14,70.4-13.35c136.34-42.57,280.54-43.27,419.47-14.93,21.33,4.36,47.19,7.53,57.71-13.83,5.72-10.57,12.13-29.15-.44-43.19" fill="#c8dede"/><g clip-path="url(#c)"><path d="M735.29,121.16c-1.78-22.71-9.38-42.64-22.24-59.54-9.15-12-27.57-11.9-36.74,0a36.11,36.11,0,0,0,0,43.73c.29.38.69.84,1.11,1.35.15.28.34.65.61,1.13a80.19,80.19,0,0,1,3.51,7.29c.28.94.56,1.88.8,2.83q.67,2.72,1.14,5.49.19,3.77,0,7.53c-.16.88-.32,1.76-.52,2.63-.3,1.37-.71,2.69-1,4l-.19.82c-.8,1.56-1.77,3.16-2.1,3.79-.25.47-.51.93-.78,1.4-1.12,1.45-2.22,2.92-3.43,4.28-.49.56-1,1.08-1.51,1.61a81.69,81.69,0,0,1-8.95,6.35c-.53.32-2.09,1.16-3.2,1.76-.87.4-1.73.78-2.6,1.16-3.75,1.6-7.56,3-11.39,4.33a182.46,182.46,0,0,1-25,6.92c-18.24,2.39-36.6,1.49-54.8-1.12-37-6.36-72.9-19-109.45-28-41.4-10.19-83.89-16.17-126.21-15.16-65.08,1.57-133.27,17.36-189.07,59.05C131,194,118.4,204.36,109.16,217.7c-10.86,15.71-19.59,37-12.88,57.66,2.5,7.7,5.69,14.08,11.88,18.4,5.54,3.86,13.71,5.49,19.92,3.1,11.89-4.58,22.66-20.84,18.46-36.51.44-.67.86-1.42,1.17-1.84,1.64-2.16,3.38-4.21,5.18-6.17,1.25-1.37,2.54-2.67,3.84-4,4.36,3.91,11,7,15.76,6.34,34.64-4.88,69.59-5.2,104.27-9.51,18.7-2.32,37.18-5.52,55.33-11.43,15.79-5.15,31.56-10.25,47.4-15.19,11.05-3.45,21.59-8.95,32.81-11.59l1-.06c9.63,5.19,22.12,2.37,29.45-6.69,42.52,10.55,84.4,24.86,127.67,30.8,28.33,3.89,57.12,2.7,84.75-6.19A179.62,179.62,0,0,0,690,209.94c13-7.47,23.76-18.74,32.2-32.57,9.63-15.79,14.58-36.76,13.06-56.21" fill="#ddeaeb"/></g><g clip-path="url(#d)"><path d="M873.17,140C829.56,103,777,76.68,723.7,56.79c-51-19-104-32.68-157.64-41.77A1061,1061,0,0,0,398,0c-56.31-.49-112.62,4-168.49,10.8-35.58,4.36-71.07,9.85-105.78,19A276.56,276.56,0,0,0,81.21,44.34,93.63,93.63,0,0,0,43.65,74.78c-3.58,4.81-4.38,14.27-2.59,19.79a26.63,26.63,0,0,0,9.2,13.35c9.38,7.24,25.47,7.81,33.73-2a54.39,54.39,0,0,1,5.76-5.9c1.46-1,2.9-1.91,4.41-2.79,2.62-1.53,5.33-2.93,8.07-4.24l1.15-.52,3.08-1.2c12-4.37,24.4-7.11,36.75-10.15,16.2-4,32.56-7.24,49-10q6.47-1.05,13-2l5.57-.8,2.29-.32c8.3-.83,16.58-2.08,24.88-3,61.32-6.7,122.89-10.9,184.59-8.89q49.69,1.63,99.07,8.06A916.24,916.24,0,0,1,654.3,92.49C676.38,99,698,106.62,719.55,114.74c5.09,1.91,10.18,3.83,15.23,5.84q3.78,1.5,7.55,3c1.47.6,3,1.34,4.47,1.84q15.47,6.62,30.61,14c23.28,11.27,46.26,23.07,69.25,34.92,9.77,5,21.36,3.25,28.22-5.63,6.19-8,6.63-21.66-1.71-28.72" fill="#78949c"/></g><g clip-path="url(#e)"><path d="M860,179.78c-4.64-4.47-9.23-9-13.88-13.44-5.65-5.44-12-10.07-18.29-14.72a372.52,372.52,0,0,0-33.47-21.79c-24.51-14.25-50.19-25.9-76.6-36.19C667.7,74.11,614.27,62.69,561.24,54.58c-54.7-8.37-109.84-13.11-165.11-15.42-58-2.42-116-2.59-173.75,3.79C160,49.84,97.45,62,38.76,84.71,30.17,88,21.69,91.6,13.22,95.2,7.69,97.56,2.1,105.69.81,111.34a28,28,0,0,0,1.36,17.58C6.94,140.23,21.46,149.47,34,144.55,88.68,123.15,146,108.91,204,100.8c85.76-11,173-8.66,259-1.75q33.32,2.69,66.48,7a955.28,955.28,0,0,1,126.68,25.9c20.88,5.84,41.58,12.38,62,19.77,10.34,3.75,20.51,7.9,30.71,12,2.2.89,4.36,1.89,6.58,2.73l2.46,1.06q7.56,3.31,15,6.86c10.85,5.16,21.57,10.62,32.18,16.25,11,5.86,22.48,11,33.36,17.15a17.87,17.87,0,0,0,23-4.59c5.29-6.84,5.05-17.19-1.39-23.38" fill="#93b6bf"/></g><path d="M420.4,27.94c-29.28-.69-58.11,6.19-83.55,16.31s-48,23.39-70.31,36.59c-17,10-34.18,20.22-46.66,33.05s-19.86,28.88-14.94,44C254.78,101.52,326.26,54.52,420.4,27.94" fill="#e3a27d"/><path d="M308.19,134.58c1.75-21.16,20.18-36.81,38.39-47.74A276.19,276.19,0,0,1,531,51.28c-80.76,1-160.85,31.37-222.82,83.3" fill="#e3a27d"/><path d="M414.76,134.9C459.32,86.2,530.62,63.68,595.07,78c-26.82-6.5-55.26.7-80.21,12.48s-47.5,28-71.78,41.15c-9.47,5.12-22.27,9.37-28.32,3.31" fill="#e3a27d"/></g></svg>