<svg xmlns="http://www.w3.org/2000/svg" xmlns:xlink="http://www.w3.org/1999/xlink" width="666.05" height="413.82" viewBox="0 0 666.05 413.82"><defs><clipPath id="a"><path d="M296.31,146.07c-30-23.88-78.37-19.79-103.9,8.78A48,48,0,0,0,121,182.29C103.46,177.63,83.34,191,80.77,209c-4.54,9.9-10.65,19.81-13,30.93s-.06,23.91,8.51,31.37C78,272.69,79.88,274,80.69,276a11.74,11.74,0,0,1,.53,4.42,65.83,65.83,0,0,0,2.65,18.29,37.29,37.29,0,0,0,6.29,13,26.44,26.44,0,0,0,25.22,9.24c7.2,22.89,30.94,34.35,49.1,26.57,4.5,11.42,19.35,17.41,30.51,12.32,3.3-1.51,6.49-3.86,10.1-3.64,3.26.21,5.95,2.46,8.62,4.33a46.09,46.09,0,0,0,41.76,5.38c4.11-1.52,8.2-3.69,12.58-3.44,5,.28,9.27,3.65,13.89,5.67,13,5.67,27.92.41,40.74-5.58,3-1.4,6.16-2.88,9.45-2.57s6,2.29,8.74,4.07c17.21,11.28,42.26,15.91,57,1.6,15.88,10.85,39.14,9.21,53.34-3.74,15.25,10.55,37.12,9.76,47.86-2.89,19.82,13.24,50.34,5.6,61.59-15.41,8.83-2.17,17.67-6,23.32-13.16s7.12-18.11,1.47-25.24c18.47-9.21,26.69-34.6,17.12-52.89a33.2,33.2,0,0,0,1-61.53c-.68-.28-1.78-2-3.45-2.69-9.68-19.08-32.85-29.95-53.79-25.62-16.26-19.18-47.31-23.61-68.28-9.73-15.86-21.56-48-29.22-71.84-17.13-2.46,1.24-4.9,2.69-7.63,3.08-4.94.7-9.58-2.15-14-4.47a75.55,75.55,0,0,0-35.17-8.45c-19.43,0-38.94,7-53.18,20.29" fill="none"/></clipPath><clipPath id="b"><path d="M231.2,35.7c-46,12.52-91,32.54-126.07,64.87S49.7,172.89,41.33,227.05C38.15,238.43,41,253.48,44,264.89s14.86,21.38,26.17,18c3.8-1.14,7-3.58,10.24-5.92,69.13-50.56,156.25-73.07,241.9-72.93,80.54.13,160,19.27,230.9,47.19a37,37,0,0,0,27.42-.13c21.06-8.54,41.72-18.38,58-34,19.95-19.06,32-49.09,22.16-74.85-6.92-18.06-23-30.82-39-41.66-78.54-53.12-173.43-81-268.17-81A467.16,467.16,0,0,0,231.2,35.7" fill="none"/></clipPath><clipPath id="c"><rect x="52.31" y="162.51" width="511.34" height="122.79" fill="none"/></clipPath></defs><title>maguro</title><g clip-path="url(#a)"><path d="M603.65,190.79a33.2,33.2,0,0,1-1,61.53c9.57,18.29,1.35,43.68-17.12,52.89,5.65,7.13,4.18,18.11-1.47,25.24s-14.49,11-23.32,13.16c-11.25,21-41.77,28.65-61.59,15.41-10.74,12.65-32.61,13.44-47.86,2.89-14.2,12.95-37.46,14.59-53.34,3.74-14.78,14.31-39.84,9.68-57-1.6-2.71-1.78-5.5-3.76-8.74-4.07s-6.46,1.17-9.45,2.57c-12.82,6-27.78,11.25-40.74,5.58-4.62-2-8.86-5.39-13.89-5.67-4.38-.24-8.47,1.91-12.58,3.44a46.09,46.09,0,0,1-41.76-5.38c-2.67-1.87-5.37-4.12-8.62-4.33-3.61-.22-6.8,2.13-10.1,3.64-11.16,5.09-26-.9-30.51-12.32-18.16,7.78-41.9-3.68-49.1-26.57a26.46,26.46,0,0,1-25.22-9.23,37.42,37.42,0,0,1-6.29-13,65.83,65.83,0,0,1-2.65-18.29,11.66,11.66,0,0,0-.53-4.41c-.81-2-2.72-3.33-4.36-4.76-8.57-7.46-10.82-20.24-8.51-31.37s8.41-21,13-30.93c2.57-18,22.69-31.33,40.27-26.67a48,48,0,0,1,71.37-27.44c25.53-28.56,73.93-32.66,103.9-8.78,23.17-21.62,60.31-26.6,88.35-11.84,4.42,2.32,9.06,5.17,14,4.47,2.73-.39,5.17-1.84,7.63-3.08,23.88-12.09,56-4.43,71.84,17.13,21-13.88,52-9.45,68.27,9.73,21-4.33,44.12,6.54,53.8,25.62,1.67.64,2.77,2.41,3.45,2.69" fill="#fff"/><path d="M603.65,190.79a33.2,33.2,0,0,1-1,61.53c9.57,18.29,1.35,43.68-17.12,52.89,5.65,7.13,4.18,18.11-1.47,25.24s-14.49,11-23.32,13.16c-11.25,21-41.77,28.65-61.59,15.41-10.74,12.65-32.61,13.44-47.86,2.89-14.2,12.95-37.46,14.59-53.34,3.74-14.78,14.31-39.84,9.68-57-1.6-2.71-1.78-5.5-3.76-8.74-4.07s-6.46,1.17-9.45,2.57c-12.82,6-27.78,11.25-40.74,5.58-4.62-2-8.86-5.39-13.89-5.67-4.38-.24-8.47,1.91-12.58,3.44a46.09,46.09,0,0,1-41.76-5.38c-2.67-1.87-5.37-4.12-8.62-4.33-3.61-.22-6.8,2.13-10.1,3.64-11.16,5.09-26-.9-30.51-12.32-18.16,7.78-41.9-3.68-49.1-26.57a26.46,26.46,0,0,1-25.22-9.23,37.42,37.42,0,0,1-6.29-13,65.83,65.83,0,0,1-2.65-18.29,11.66,11.66,0,0,0-.53-4.41c-.81-2-2.72-3.33-4.36-4.76-8.57-7.46-10.82-20.24-8.51-31.37s8.41-21,13-30.93c2.57-18,22.69-31.33,40.27-26.67a48,48,0,0,1,71.37-27.44c25.53-28.56,73.93-32.66,103.9-8.78,23.17-21.62,60.31-26.6,88.35-11.84,4.42,2.32,9.06,5.17,14,4.47,2.73-.39,5.17-1.84,7.63-3.08,23.88-12.09,56-4.43,71.84,17.13,21-13.88,52-9.45,68.27,9.73,21-4.33,44.12,6.54,53.8,25.62C601.87,188.74,603,190.51,603.65,190.79Z" fill="none" stroke="#c9c9c9" stroke-miterlimit="10" stroke-width="9"/><path d="M628.31,217.82c.59-.6,1.18-1.19,1.76-1.79,7.06-7.26,7.1-22.57,4.14-31.54-2.36-7.14-8.39-15.86-15.77-8.27C606.6,188.4,597,197,582.93,206.22,569,215.28,554.39,222.38,538,222c-8-.18-13.81-1.65-20.43-6.21,0,0-1.21-.9-1.75-1.28-.25-.22-.5-.42-.59-.51-1.09-1-2.16-2-3.24-3-3.06-2.83-6.21-5.82-9.89-7.82-15.36-8.34-33.7,0-49.81.68-10.17.45-19.5-2.25-28.68-6.4-9.89-4.47-16.92-9.2-23-17.49-2.4-3.28-5.46-3.29-8.88-2.33-16.88,4.74-34.34,9.42-52,8a35.11,35.11,0,0,1-17.25-5.54c-5.73-3.54-10.93-7.86-16.62-11.46-3.11-2-6.77,0-8.88,2.33-1.33,1.47-3.79,4-4.69,4.81,0,0-1.9,1.51-2.11,1.67-1.11.82-2.25,1.6-3.41,2.33a58.25,58.25,0,0,1-12.56,6,54.18,54.18,0,0,1-11.5,2,70.9,70.9,0,0,1-14.27-.46c-8.85-1.17-15.94-3.55-24.59-7.9a96.07,96.07,0,0,1-12.47-7.5c-1.53-1.07-3-2.21-4.47-3.37-.1-.11-1.78-1.53-1.88-1.62-.94-.86-1.86-1.75-2.77-2.64-2.11-2.07-5.79-4.54-8.88-2.32a103,103,0,0,0-19.56,19c-2.43,3-4.83,6-7.42,8.85-1.3,1.43-2.69,2.76-4.05,4.13l-.42.43-.29.22c-.89.69-1.78,1.35-2.7,2-7.33,5-16.24,7.73-25,8.83-10,1.27-18.26-.59-27-5.33-5-2.72-9.14,1.9-11.21,5.92-1.59,3.08-3.28,6.09-5,9.06-1.06,1.79-2.21,3.53-3.27,5.33-.11.15-.21.31-.32.47-.61.92-1.22,1.83-1.84,2.74a186.19,186.19,0,0,1-18.81,23.53c-1.77,1.85-3.59,3.65-5.48,5.39-.54.5-1.09,1-1.64,1.47-.28.22-1.48,1.22-1.69,1.39A59.82,59.82,0,0,1,46,262.62a38.3,38.3,0,0,1-4.23,1.67c.15-.09-1.73.36-2.22.43a25.74,25.74,0,0,1-3.16.27,30.34,30.34,0,0,1-4.67-.39c1.14.16.6.12-.12,0l-.55-.07.54.07a5.18,5.18,0,0,1-1-.27c-1.17-.52-2.32-1-3.45-1.63-8.75-4.76-13.49,10.21-14.18,16.1-1,8.31-.77,23.56,8.05,28.35,20.47,11.13,41.34-4.32,55.42-18.51a199.1,199.1,0,0,0,30.74-41.08,52.3,52.3,0,0,0,24.47,4.19c10.38-.89,22.05-3.9,31.06-9.25,7.78-4.61,14.17-11.29,19.87-18.23,2.76-3.35,5.43-6.77,8.34-10,1.36-1.5,2.75-3,4.22-4.36l.91-.84c14.81,12.81,32.73,21.72,52.36,24.31a67.81,67.81,0,0,0,55.24-17.65c4.54,3.18,8.92,6.63,13.7,9.43a52.82,52.82,0,0,0,22.35,6.57c17.81,1.43,35.41-3.24,52.48-8,12.31,14.07,31.55,23.08,49.7,25.74,8.88,1.3,17.52-.09,26.26-1.61,4.22-.73,8.43-1.4,12.7-1.76a65.93,65.93,0,0,1,7.44-.31c1,0,1.92.09,2.86.21.24,0,2.49.66,2.37.54a21.91,21.91,0,0,1,3.41,1.66,17.17,17.17,0,0,0,2.18,1.49l.06,0,0,0c3,2.87,6.11,5.71,9.36,8.34,7,5.69,15.8,8.68,24.74,9.73,17.63,2.07,35.81-5.08,50.7-13.94A182.35,182.35,0,0,0,605.09,239c-.45.82-.9,1.64-1.36,2.46l-.41.68c-.34.49-.93,1.38-1.06,1.57a82.31,82.31,0,0,1-6.51,8.14A22.11,22.11,0,0,1,589,257a34.18,34.18,0,0,1-4.44,1.92,12.32,12.32,0,0,1-2.64.81c-6.36,1.52,1,12.32-5,15-11.69,5.28-38.72,22.17-39.74,24.18-.07.13-.38.63-.71,1.16a2.23,2.23,0,0,0-.84,1.36c-.25.31-.49.62-.75.92s-1.54,1.48-2,2-1.77,1.18-2.08,1.36a41.28,41.28,0,0,1-9.73,4.11c.16-.07-2.52.59-3.14.71q-2.85.57-5.73.91a66.65,66.65,0,0,1-11,.4c-7.44-.38-13-1.83-19.27-6.44a6.11,6.11,0,0,0-6.13,0c-13.81,6.58-25.94,16.2-39.95,22.45-7.19,3.2-11.42,4.73-19.29,4.51a31.49,31.49,0,0,1-5.3-.58l-.65-.12c.05,0,0-.06-.35-.19-.77-.29-1.53-.58-2.28-.93a43.33,43.33,0,0,1-5-2.89c-.32-.19-.77-.54-.93-.65-1-.88-1.87-1.85-2.76-2.8-2.09-2.24-5.8-4.39-8.88-2.33-6.55,4.38-12.27,9.86-17.93,15.29-1.38,1.32-2.75,2.64-4.16,3.93l-1.7,1.52-.93.75a53.31,53.31,0,0,1-8.31,5.28c-14.39,7-30.07.93-43.62-5-6.27-2.75-13.82-6.94-20.85-6.84-5.18.08-8.73,2.7-12.6,5.7-5.49,4.27-12.07,8.54-19,9.85-8.09,1.52-16.39-.26-24.18-2.43-8.46-2.36-12.11,6.28-13.6,13.34-1.89,9-1.64,21.41,4.72,28.78,24.69,28.65,69.06,22.52,102.29,17.82,16.38-2.31,32.89-5.62,49.47-5.95,27.23-.53,54.41,1.41,81.62-.55,13-.94,26-2.15,39-3.39,13.34-1.26,26.72-3.08,39.45-7.46,5.35-1.84,7.57-10.76,8.23-17.34,2.95-1.06,5.85-2.19,8.7-3.43,27.67-12,44.56-37.21,59.93-61.85,4.24-6.79,3.93-17.85,2.39-25.17a38,38,0,0,0-1.92-6.26c11.45-18.41,16.09-39.57,11-60.59" fill="#f2f2f2"/><path d="M603.65,190.79a33.2,33.2,0,0,1-1,61.53c9.57,18.29,1.35,43.68-17.12,52.89,5.65,7.13,4.18,18.11-1.47,25.24s-14.49,11-23.32,13.16c-11.25,21-41.77,28.65-61.59,15.41-10.74,12.65-32.61,13.44-47.86,2.89-14.2,12.95-37.46,14.59-53.34,3.74-14.78,14.31-39.84,9.68-57-1.6-2.71-1.78-5.5-3.76-8.74-4.07s-6.46,1.17-9.45,2.57c-12.82,6-27.78,11.25-40.74,5.58-4.62-2-8.86-5.39-13.89-5.67-4.38-.24-8.47,1.91-12.58,3.44a46.09,46.09,0,0,1-41.76-5.38c-2.67-1.87-5.37-4.12-8.62-4.33-3.61-.22-6.8,2.13-10.1,3.64-11.16,5.09-26-.9-30.51-12.32-18.16,7.78-41.9-3.68-49.1-26.57a26.46,26.46,0,0,1-25.22-9.23,37.42,37.42,0,0,1-6.29-13,65.83,65.83,0,0,1-2.65-18.29,11.66,11.66,0,0,0-.53-4.41c-.81-2-2.72-3.33-4.36-4.76-8.57-7.46-10.82-20.24-8.51-31.37s8.41-21,13-30.93c2.57-18,22.69-31.33,40.27-26.67a48,48,0,0,1,71.37-27.44c25.53-28.56,73.93-32.66,103.9-8.78,23.17-21.62,60.31-26.6,88.35-11.84,4.42,2.32,9.06,5.17,14,4.47,2.73-.39,5.17-1.84,7.63-3.08,23.88-12.09,56-4.43,71.84,17.13,21-13.88,52-9.45,68.27,9.73,21-4.33,44.12,6.54,53.8,25.62C601.87,188.74,603,190.51,603.65,190.79Z" fill="none" stroke="#d9d2bf" stroke-miterlimit="10" stroke-width="25"/></g><g clip-path="url(#b)"><path d="M553.23,251.22a37,37,0,0,0,27.42-.13c21.06-8.54,41.72-18.38,58-34,19.95-19.06,32-49.09,22.16-74.85-6.92-18.06-23-30.82-39-41.66C509,24.33,362.58,0,231.2,35.7c-46,12.52-91,32.54-126.07,64.87S49.7,172.89,41.33,227.05C38.15,238.43,41,253.48,44,264.89s14.86,21.38,26.17,18c3.8-1.14,7-3.58,10.24-5.92,69.13-50.56,156.25-73.07,241.9-72.93,80.54.13,160,19.27,230.9,47.19" fill="#db6969"/><path d="M664.36,151.55c-10.9,3.48-18.5,17-24.29,26.83C626.48,201.57,601,212,577,223.91c-5.29,2.62-8.73,16.38-7.68,22.18.71,3.87,6.85,5.34,10.78,5.43s7.63-1.67,11.1-3.51c27.9-14.83,59.67-35.83,73.2-64.38,3.8-8,0-22,0-32.08" fill="#c75454"/><path d="M314.71.26c-23.18,8.33-43,23.81-61.22,40A620.83,620.83,0,0,0,200.58,93c-35.23,39.81-65,84.29-91.22,130.45-15.31,26.94-28.72,55-37.94,84.63C69.58,314,69.64,323.11,74,328s8.64-.93,10-5.23c7.73-25.11,18.91-48.87,31.44-71.92,12.39-22.81,25.8-45.14,40.21-66.73,28.23-42.27,60.65-80.56,96.69-116.35,19-18.93,39.65-37.52,65.2-47,6.42-2.4,5-23.25-2.82-20.44" fill="#f7a9a1"/><path d="M199.81,35.1c-.33-2.39-2.79-10.65-6.9-7.83C113,82,52.76,163.46,22.13,255.23,12.71,283.45,6.31,312.52.4,341.64c-1,5.09-.27,15.23,5.09,18,5.84,3,8.28-6.66,9-10.2C24.14,301.16,37,254.46,59.7,210.57A487.91,487.91,0,0,1,137.91,99.81a407.23,407.23,0,0,1,58-50.9c4.06-2.93,4.57-9.24,3.92-13.81" fill="#f7a9a1"/><path d="M473,14.36c-20.9,5-37.86,19.86-53.68,33.66-17.11,14.92-34.14,29.88-50,46.17-17.79,18.29-34.38,37.65-50.53,57.39-15.32,18.71-30.62,37.59-44.8,57.19a341.65,341.65,0,0,0-21.82,33.85c-6.2,11.13-12.44,23.23-15.62,35.71a17.66,17.66,0,0,0-.84,2.72,19.48,19.48,0,0,0,1.15,12.17l.19.38c2,4.09,6,4.18,8,0,2.5-5.11,4-10.67,6.21-15.92s4.77-10.43,7.51-15.47A252.92,252.92,0,0,1,277,233.84c13.69-18.77,28.79-36.54,43.65-54.39,15.48-18.61,31.13-37.11,47.7-54.77C384.07,108,401,92.77,417.9,77.32c8.41-7.68,16.8-15.39,25.91-22.24,8.69-6.52,18.48-13.16,29.16-15.85,5.13-1.29,6.22-7.84,6.22-12.44,0-2.52-1.33-13.61-6.22-12.43" fill="#f7a9a1"/><path d="M518,22.82c-45.22,18.46-85,47.69-120.57,80.8-36.53,34-69.36,73-98.84,113.26-9.29,12.67-18.12,25.7-26.33,39.09-1.84,3-3.47,6.06-5.11,9.16-.82,1.56-1.72,3.09-2.51,4.66a19.64,19.64,0,0,0-1.67,3.77l-.43,1.43c-1.08,3-.95,6.62-.76,9.41.14,2.21,1.35,6.59,3.76,7.53,6.33,2.48,9.88-8.69,12.06-12.86,5.12-9.84,11.54-19.11,17.88-28.2,15.15-21.73,31.77-42.46,48.9-62.66,31.7-37.39,66.24-72.9,105.37-102.59,22.05-16.72,45.68-31.25,71.07-42.3,6.36-2.77,4.8-23.62-2.82-20.5" fill="#f7a9a1"/><path d="M657.12,75.67a739,739,0,0,0-136.7,78c-21.5,15.6-42.2,32.29-62.27,49.68-17.27,15-34.67,30.14-51,46.19-18.61,18.33-40.38,42.88-41.6,70.38-.1,2.12,2.73,18.2,8.71,13.27a28,28,0,0,0,7.11-8.94,16.8,16.8,0,0,0,1.5-9.3,89.3,89.3,0,0,1,7.57-13,198.06,198.06,0,0,1,21.8-25.38c15.65-15.74,32.54-30.44,49.12-45.19a896.33,896.33,0,0,1,122.44-91.58,724,724,0,0,1,76.41-41.43c7-3.26,5.14-26.35-3.13-22.71" fill="#f7a9a1"/><g clip-path="url(#c)"><path d="M562.64,226.68c9.15,0-46.67-21.72-55.33-24.68-64.08-21.91-123.64-39-188.07-39.47-49.45-.36-99.57,5.32-145.56,23.51S67.75,219.42,52.55,271.55c-2.66,9.1,18,17.5,25.71,12,48.45-34.47,121.71-62.79,174.91-71.92s91.63-9.9,143.34,5.59c133.5,40,125.21,9.42,166.13,9.46" fill="#d1564b"/></g><path d="M567.29,90.86c-.47-4.62-1.57-7.83-5.18-10.83a44,44,0,0,0-9.59-5.76c-8.39-4-16.74-8-25.14-11.87-17.82-8.31-35.95-15.74-55-20.83-5.2-1.39-6.6,16.42,0,18.16C490,64.37,506.85,71.35,523.33,79c7.71,3.58,15.31,7.39,23,11a98,98,0,0,1,8.85,4.35c2.82,1.66,5.48,5.59,8.87,5s3.47-5.93,3.21-8.43" fill="#f7dcda"/><path d="M634,138.17c-2.3-11-13-17.44-21.13-24.38-8.38-7.19-17.24-14.33-27.83-17.92-6.74-2.29-8,15.61-2.42,17.51,9.07,3.07,16.85,8.81,24.25,14.74,3.57,2.86,7,5.85,10.49,8.84,3.06,2.63,8,5.54,9.77,9.19.92,1.85,2.46,2.8,4,2l0,.13c1.4-.39,2.2-2.07,2.63-4a14.24,14.24,0,0,0,.24-6.11" fill="#f7dcda"/><path d="M227.1,52.27c-15,6.06-30.51,9.92-44.66,17.95-13.92,7.9-28.2,15.21-42,23.4-12.84,7.65-25.42,16.7-35.87,27.45-5,5.18-8.91,11.41-12.68,17.53-4.22,6.86-8.5,13.64-12.55,20.61-1.07,1.83,0,10.58,2.83,7.33,9.16-10.38,17.22-21.73,26.26-32.26,10-11.67,23.52-19.88,36.25-28.26C158.14,97.19,172,89,185.62,80.51,199,72.23,214,67.61,228.39,61.64c2.94-1.22,2.2-10.78-1.29-9.37" fill="#f7dcda"/></g></svg>