<svg xmlns="http://www.w3.org/2000/svg" xmlns:xlink="http://www.w3.org/1999/xlink" width="686.87" height="451.04" viewBox="0 0 686.87 451.04"><defs><clipPath id="a"><path d="M289.89,183.28c-30-23.87-78.37-19.78-103.9,8.79a48,48,0,0,0-71.37,27.44c-17.58-4.67-37.7,8.66-40.27,26.66C69.81,256.08,63.7,266,61.4,277.11s-.06,23.9,8.51,31.36c1.64,1.43,3.55,2.74,4.36,4.76a11.86,11.86,0,0,1,.53,4.41,65.9,65.9,0,0,0,2.65,18.3,37.28,37.28,0,0,0,6.29,13A26.46,26.46,0,0,0,109,358.15c7.2,22.89,30.94,34.35,49.1,26.58,4.5,11.41,19.35,17.41,30.51,12.31,3.3-1.5,6.49-3.86,10.1-3.63,3.25.2,6,2.45,8.62,4.32a46.09,46.09,0,0,0,41.76,5.38c4.11-1.52,8.2-3.68,12.58-3.44,5,.28,9.27,3.65,13.89,5.67,13,5.67,27.92.41,40.73-5.58,3-1.4,6.17-2.88,9.46-2.56s6,2.28,8.74,4.07c17.2,11.28,42.26,15.91,57,1.6,15.88,10.84,39.13,9.21,53.34-3.75,15.25,10.55,37.12,9.77,47.86-2.88,19.82,13.23,50.34,5.59,61.59-15.41,8.83-2.17,17.67-6,23.32-13.17s7.12-18.11,1.47-25.23c18.47-9.21,26.69-34.61,17.12-52.89a33.2,33.2,0,0,0,1-61.53c-.67-.29-1.77-2.06-3.44-2.69-9.68-19.08-32.85-30-53.8-25.63-16.25-19.18-47.3-23.6-68.27-9.73-15.86-21.56-48-29.21-71.84-17.13-2.46,1.25-4.9,2.69-7.63,3.08-4.94.7-9.58-2.15-14-4.47A75.55,75.55,0,0,0,343.07,163c-19.43,0-38.95,7-53.18,20.29" fill="none"/></clipPath><clipPath id="b"><path d="M224.78,72.92c-46.05,12.51-91,32.53-126.08,64.86S43.28,210.11,34.91,264.26c-3.18,11.38-.37,26.43,2.69,37.85s14.86,21.38,26.17,18c3.8-1.14,7-3.58,10.24-5.92,69.13-50.56,156.25-73.06,241.9-72.93,80.54.13,160,19.28,230.9,47.19a37,37,0,0,0,27.42-.13c21-8.54,41.72-18.37,58-34,20-19.06,32-49.09,22.16-74.85-6.92-18.06-23-30.82-39-41.65C536.86,84.7,442,56.77,347.23,56.77A467.17,467.17,0,0,0,224.78,72.92" fill="none"/></clipPath><clipPath id="c"><rect x="667.49" y="138.32" width="0.24" height="1.85" fill="none"/></clipPath><clipPath id="d"><rect x="10.23" y="112.03" width="676.64" height="253.14" fill="none"/></clipPath></defs><title>salmon</title><g clip-path="url(#a)"><path d="M597.23,228a33.2,33.2,0,0,1-1,61.53c9.57,18.28,1.35,43.68-17.12,52.89,5.65,7.13,4.18,18.11-1.47,25.23s-14.49,11-23.32,13.17c-11.25,21-41.77,28.64-61.59,15.41-10.74,12.65-32.61,13.43-47.86,2.88-14.2,13-37.46,14.59-53.34,3.75-14.78,14.31-39.84,9.68-57-1.6-2.71-1.79-5.5-3.77-8.74-4.07s-6.46,1.16-9.45,2.56c-12.82,6-27.78,11.25-40.74,5.58-4.62-2-8.86-5.39-13.89-5.67-4.38-.24-8.47,1.92-12.58,3.44a46.09,46.09,0,0,1-41.76-5.38c-2.67-1.87-5.37-4.12-8.62-4.32-3.61-.23-6.8,2.13-10.1,3.63-11.16,5.1-26-.89-30.51-12.31-18.16,7.77-41.9-3.69-49.1-26.58a26.46,26.46,0,0,1-25.22-9.23,37.46,37.46,0,0,1-6.29-13,65.9,65.9,0,0,1-2.65-18.3,11.66,11.66,0,0,0-.53-4.41c-.81-2-2.72-3.33-4.36-4.76-8.57-7.46-10.82-20.24-8.51-31.36s8.41-21,12.95-30.94c2.57-18,22.69-31.33,40.27-26.66A48,48,0,0,1,186,192.07c25.53-28.57,73.93-32.66,103.9-8.79,23.17-21.62,60.31-26.6,88.35-11.84,4.42,2.32,9.06,5.17,14,4.47,2.73-.39,5.17-1.83,7.63-3.08,23.88-12.08,56-4.43,71.84,17.13,21-13.87,52-9.45,68.27,9.73,20.95-4.33,44.12,6.55,53.8,25.63,1.67.63,2.77,2.4,3.45,2.69" fill="#fff"/><path d="M597.23,228a33.2,33.2,0,0,1-1,61.53c9.57,18.28,1.35,43.68-17.12,52.89,5.65,7.13,4.18,18.11-1.47,25.23s-14.49,11-23.32,13.17c-11.25,21-41.77,28.64-61.59,15.41-10.74,12.65-32.61,13.43-47.86,2.88-14.2,13-37.46,14.59-53.34,3.75-14.78,14.31-39.84,9.68-57-1.6-2.71-1.79-5.5-3.77-8.74-4.07s-6.46,1.16-9.45,2.56c-12.82,6-27.78,11.25-40.74,5.58-4.62-2-8.86-5.39-13.89-5.67-4.38-.24-8.47,1.92-12.58,3.44a46.09,46.09,0,0,1-41.76-5.38c-2.67-1.87-5.37-4.12-8.62-4.32-3.61-.23-6.8,2.13-10.1,3.63-11.16,5.1-26-.89-30.51-12.31-18.16,7.77-41.9-3.69-49.1-26.58a26.46,26.46,0,0,1-25.22-9.23,37.46,37.46,0,0,1-6.29-13,65.9,65.9,0,0,1-2.65-18.3,11.66,11.66,0,0,0-.53-4.41c-.81-2-2.72-3.33-4.36-4.76-8.57-7.46-10.82-20.24-8.51-31.36s8.41-21,12.95-30.94c2.57-18,22.69-31.33,40.27-26.66A48,48,0,0,1,186,192.07c25.53-28.57,73.93-32.66,103.9-8.79,23.17-21.62,60.31-26.6,88.35-11.84,4.42,2.32,9.06,5.17,14,4.47,2.73-.39,5.17-1.83,7.63-3.08,23.88-12.08,56-4.43,71.84,17.13,21-13.87,52-9.45,68.27,9.73,20.95-4.33,44.12,6.55,53.8,25.63C595.45,226,596.55,227.72,597.23,228Z" fill="none" stroke="#c9c9c9" stroke-miterlimit="10" stroke-width="9"/><path d="M621.89,255c.59-.6,1.18-1.19,1.76-1.79,7.06-7.26,7.1-22.56,4.14-31.53-2.37-7.15-8.39-15.86-15.77-8.27-11.84,12.17-21.41,20.81-35.52,30-13.91,9.06-28.53,16.16-44.91,15.79-8-.17-13.81-1.64-20.43-6.2l-1.75-1.29-.59-.5c-1.09-1-2.16-2-3.24-3-3.06-2.83-6.21-5.82-9.89-7.83-15.36-8.33-33.7,0-49.82.68-10.16.45-19.49-2.25-28.67-6.4-9.89-4.46-16.92-9.19-23-17.49-2.4-3.28-5.46-3.28-8.88-2.32-16.88,4.73-34.34,9.41-52,8A35.11,35.11,0,0,1,316,217.29c-5.73-3.53-10.93-7.86-16.62-11.45-3.11-2-6.77,0-8.88,2.32-1.33,1.47-3.79,4-4.69,4.82,0,0-1.9,1.51-2.12,1.66-1.1.82-2.24,1.6-3.4,2.34a58.22,58.22,0,0,1-12.56,5.94,54.17,54.17,0,0,1-11.51,2,70.1,70.1,0,0,1-14.26-.46c-8.86-1.17-15.94-3.55-24.59-7.9a97.14,97.14,0,0,1-12.47-7.49c-1.53-1.08-3-2.21-4.47-3.37-.1-.12-1.78-1.53-1.88-1.63-.94-.86-1.86-1.74-2.77-2.63-2.11-2.08-5.79-4.54-8.88-2.33a103.1,103.1,0,0,0-19.56,19c-2.43,3-4.83,6-7.42,8.84-1.3,1.43-2.69,2.76-4.05,4.13l-.43.44-.29.22c-.88.68-1.77,1.35-2.69,2-7.34,5-16.24,7.73-25,8.84-10,1.27-18.25-.59-27-5.34-5-2.72-9.14,1.9-11.21,5.93q-2.39,4.61-5,9.05c-1.06,1.79-2.21,3.54-3.27,5.33l-.32.48c-.61.91-1.22,1.83-1.84,2.73A186.19,186.19,0,0,1,60,284.32c-1.77,1.85-3.59,3.66-5.48,5.39-.54.5-1.09,1-1.64,1.47l-1.7,1.39a59.5,59.5,0,0,1-11.65,7.27,40.32,40.32,0,0,1-4.23,1.66c.15-.09-1.73.36-2.22.43a25.74,25.74,0,0,1-3.16.27,29,29,0,0,1-4.67-.39c1.14.16.6.13-.12,0l-.55-.07.54.07a6,6,0,0,1-1-.27c-1.17-.53-2.32-1-3.45-1.63C12,295.14,7.23,310.1,6.54,316c-1,8.3-.77,23.55,8.05,28.35C35.06,355.48,55.93,340,70,325.83a199.1,199.1,0,0,0,30.74-41.08,52.18,52.18,0,0,0,24.47,4.19c10.38-.88,22.05-3.9,31.06-9.24,7.78-4.62,14.17-11.3,19.87-18.23,2.75-3.35,5.43-6.78,8.34-10,1.36-1.5,2.75-3,4.22-4.35.19-.19.58-.55.9-.85C204.43,259.09,222.35,268,242,270.59a67.85,67.85,0,0,0,55.24-17.66c4.54,3.19,8.92,6.63,13.7,9.43a52.68,52.68,0,0,0,22.35,6.57c17.81,1.44,35.41-3.23,52.48-8C398.06,275,417.3,284,435.45,286.65c8.88,1.29,17.52-.1,26.26-1.61,4.21-.73,8.43-1.41,12.69-1.77a66.2,66.2,0,0,1,7.45-.31c1,0,1.91.09,2.86.21.24,0,2.49.66,2.36.54a23,23,0,0,1,3.42,1.66,18.37,18.37,0,0,0,2.18,1.5l.06,0,0,0c3,2.86,6.11,5.7,9.36,8.33,7,5.7,15.79,8.69,24.74,9.74,17.63,2.07,35.81-5.08,50.7-13.94a182.44,182.44,0,0,0,21.11-14.81c-.45.83-.9,1.65-1.36,2.47l-.41.67c-.34.5-.93,1.39-1.06,1.57a83.62,83.62,0,0,1-6.51,8.15,22.28,22.28,0,0,1-6.71,5.08,35.61,35.61,0,0,1-4.44,1.92,12.35,12.35,0,0,1-2.64.8c-6.36,1.52,1,12.33-5,15-11.7,5.27-38.72,22.17-39.74,24.17-.07.14-.38.63-.71,1.17a2.27,2.27,0,0,0-.85,1.35c-.24.31-.48.62-.74.92s-1.54,1.49-2,2-1.78,1.17-2.08,1.36a41.25,41.25,0,0,1-9.73,4.1c.16-.06-2.52.59-3.14.71-1.9.38-3.81.69-5.73.91a65.58,65.58,0,0,1-11,.4c-7.44-.37-13-1.82-19.27-6.44a6.15,6.15,0,0,0-6.13,0c-13.81,6.58-26,16.21-40,22.45-7.18,3.2-11.41,4.74-19.28,4.52a31.62,31.62,0,0,1-5.31-.59l-.64-.12s0-.06-.35-.18c-.77-.3-1.53-.59-2.28-.93a44.59,44.59,0,0,1-5-2.89c-.32-.2-.77-.54-.93-.66-1-.88-1.88-1.85-2.76-2.8-2.09-2.24-5.8-4.38-8.88-2.32-6.55,4.38-12.27,9.85-17.94,15.29-1.37,1.31-2.74,2.64-4.15,3.92l-1.7,1.52-.93.75a53.84,53.84,0,0,1-8.31,5.29c-14.39,7-30.08.92-43.63-5-6.26-2.75-13.81-6.94-20.84-6.83-5.19.08-8.74,2.7-12.6,5.7-5.49,4.26-12.08,8.54-19,9.84-8.09,1.53-16.39-.25-24.18-2.43-8.46-2.36-12.11,6.28-13.6,13.35-1.89,9-1.64,21.4,4.72,28.78,24.69,28.65,69.06,22.52,102.29,17.82,16.38-2.32,32.89-5.63,49.47-5.95,27.23-.54,54.41,1.41,81.62-.56,13-.93,26-2.15,38.95-3.38,13.35-1.27,26.73-3.09,39.46-7.47,5.35-1.84,7.57-10.76,8.23-17.33q4.43-1.59,8.7-3.43c27.67-12,44.56-37.22,59.93-61.85,4.24-6.8,3.93-17.85,2.39-25.18a38,38,0,0,0-1.92-6.26c11.45-18.4,16.09-39.57,11-60.59" fill="#f2f2f2"/><path d="M597.23,228a33.2,33.2,0,0,1-1,61.53c9.57,18.28,1.35,43.68-17.12,52.89,5.65,7.13,4.18,18.11-1.47,25.23s-14.49,11-23.32,13.17c-11.25,21-41.77,28.64-61.59,15.41-10.74,12.65-32.61,13.43-47.86,2.88-14.2,13-37.46,14.59-53.34,3.75-14.78,14.31-39.84,9.68-57-1.6-2.71-1.79-5.5-3.77-8.74-4.07s-6.46,1.16-9.45,2.56c-12.82,6-27.78,11.25-40.74,5.58-4.62-2-8.86-5.39-13.89-5.67-4.38-.24-8.47,1.92-12.58,3.44a46.09,46.09,0,0,1-41.76-5.38c-2.67-1.87-5.37-4.12-8.62-4.32-3.61-.23-6.8,2.13-10.1,3.63-11.16,5.1-26-.89-30.51-12.31-18.16,7.77-41.9-3.69-49.1-26.58a26.46,26.46,0,0,1-25.22-9.23,37.46,37.46,0,0,1-6.29-13,65.9,65.9,0,0,1-2.65-18.3,11.66,11.66,0,0,0-.53-4.41c-.81-2-2.72-3.33-4.36-4.76-8.57-7.46-10.82-20.24-8.51-31.36s8.41-21,12.95-30.94c2.57-18,22.69-31.33,40.27-26.66A48,48,0,0,1,186,192.07c25.53-28.57,73.93-32.66,103.9-8.79,23.17-21.62,60.31-26.6,88.35-11.84,4.42,2.32,9.06,5.17,14,4.47,2.73-.39,5.17-1.83,7.63-3.08,23.88-12.08,56-4.43,71.84,17.13,21-13.87,52-9.45,68.27,9.73,20.95-4.33,44.12,6.55,53.8,25.63C595.45,226,596.55,227.72,597.23,228Z" fill="none" stroke="#d9d2bf" stroke-miterlimit="10" stroke-width="28"/></g><g clip-path="url(#b)"><path d="M546.81,288.43a36.94,36.94,0,0,0,27.41-.13c21.06-8.54,41.73-18.37,58-34,20-19.06,32-49.09,22.16-74.85-6.92-18.06-23-30.82-39-41.65C502.62,61.55,356.16,37.21,224.78,72.92c-46.05,12.51-91,32.53-126.08,64.86S43.28,210.11,34.91,264.26c-3.18,11.38-.37,26.43,2.69,37.85s14.86,21.38,26.17,18c3.8-1.14,7-3.58,10.24-5.91,69.13-50.57,156.25-73.07,241.9-72.94,80.54.13,160,19.28,230.9,47.19" fill="#f29266"/><path d="M173.59,53.51c-.34-2.42-3-11.4-7.31-8.29-29.47,21.42-48.86,52.45-70.4,81.16-23.78,31.69-48.1,63.71-68.23,97.89-4.67,7.92-8.86,16.1-13.4,24.08C9.83,256.13,3.53,263.71.72,272.24c-1.1,3.34-1,8.23.73,11.4a4.47,4.47,0,0,0,3.33,2.63v.12c6.45-.28,11.49-10.58,14.35-15.27,4.35-7.11,8.22-14.5,12.24-21.79,8.76-15.91,19.09-30.94,29.42-45.87,21.68-31.31,44.44-62.07,67.43-92.44,12-15.86,25.05-31.15,41.22-42.9,4.28-3.11,4.83-9.76,4.15-14.61" fill="#f2c4a7"/><path d="M255.44,32.17c-.35-2.47-2.65-10.24-6.73-7.64C226.15,38.89,208,58.88,191,79.29c-18.84,22.64-37,45.88-54.8,69.33Q108.73,184.74,82.77,222c-13.71,19.7-28.21,38.9-40.66,59.45-14.27,23.52-27.19,49.44-27.87,77.48-.05,2.24.59,7,3.34,7.57S21.5,363,21.81,361C25.16,339,36.6,318.51,48.36,300.06c12-18.75,25.48-36.42,38.14-54.69Q136.1,173.73,191,106c17.76-22,36.53-45,60.63-60.38,4-2.57,4.42-9.21,3.82-13.46" fill="#f2c4a7"/><path d="M287,37.43C267.53,51,251.52,68.38,235.78,86q-24.3,27.16-48.18,54.77c-33.54,38.76-66.76,79.13-90.42,124.87-6.74,13-12.63,26.44-18.09,40-2.69,6.7-5.14,13.5-7.84,20.19-2.92,7.28-4.75,14.17-3.71,22.07.34,2.5,1.74,7.47,5.15,6.72s4.16-6.6,4.06-9.21c-.16-4.16,3.44-9.31,5-13.18,2.24-5.66,4.46-11.34,6.8-17,4.67-11.24,9.7-22.34,15.24-33.19C115,260,128.88,239.32,143.38,219.24c28.53-39.54,60.69-76.27,91.37-114.12,16-19.76,33.23-38.85,54.17-53.5,4.1-2.87,2.19-17.09-1.95-14.19" fill="#f2c4a7"/><path d="M389.07.5c-21.5,12.68-38.85,31.1-55.26,49.64-17.72,20-35.39,40.06-52.8,60.33-36.78,42.85-72.5,86.85-102.58,134.73q-12.5,19.89-23.88,40.46c-3.3,5.93-6.53,11.86-10.07,17.65-1.65,2.71-3.31,5.42-4.69,8.27-.75,1.56-1.26,3.28-1.89,4.93-3.33,3.86-3.26,14.11-2.43,17,.56,1.92,2.25,6.06,5,5.73a5.47,5.47,0,0,0,3.55-2c1.91-1.13,2.91-4.45,3.35-6.95.26-.69.52-1.35.79-1.94,2.63-5.59,6.31-10.64,9.31-16,6.72-12.07,13.36-24.16,20.45-36a773.37,773.37,0,0,1,46.3-68.59c33.8-44.9,71-86.92,107.75-129.4,18-20.82,36.28-42.56,59.94-57.18,6-3.73,3.85-24.54-2.84-20.59" fill="#f2c4a7"/><path d="M415.83,20.78c-37.68,35-74.11,71.3-108.51,109.51q-25.27,28.08-49,57.52c-13.9,17.19-27.81,34.43-40.07,52.85-14.38,21.62-26.51,44.5-31.87,70.09-.5,2.38,0,16.31,5.72,15,4.53-1,6.67-3.15,9.25-7a15.86,15.86,0,0,0,2-12.27,13.4,13.4,0,0,0-1.4-3.78c5.3-14.51,13.47-28.27,21.82-40.89,11.95-18.08,25.53-35,39.14-51.84q46.53-57.54,98.47-110.25,29.5-30,60.4-58.5c5.47-5.07,2-27.92-6-20.5" fill="#f2c4a7"/><path d="M533.84,68.35c-.37-2.6-2.92-11.19-7.31-8.29-36.24,24-67.47,54.9-96.38,87.17-28.16,31.44-55.43,64.11-81.61,97.22-14.89,18.84-29.69,39.48-36.27,62.89-1.5,5.37-1.68,16,5.11,17.79,2.15.58,3.92-.69,5.73-1.73,3.4-2,5-9.87,3.65-15.44,6.45-14.59,15.92-27.81,25.68-40.34,12.25-15.73,25.3-30.86,38-46.23,27-32.63,54.28-65.2,85-94.47a395.75,395.75,0,0,1,54.29-44c4.36-2.89,4.81-9.92,4.15-14.61" fill="#f2c4a7"/><path d="M617.64,49.38a3.85,3.85,0,0,0-2.88-1.56c-23.88,3.76-43.64,23.76-60.24,39.89-8.55,8.3-16.74,17-25.4,25.15C517.65,123.71,505.63,134,494,144.65c-37.92,34.51-73.83,70.83-106.6,110.28a283.59,283.59,0,0,0-18.23,23.67c-5.61,8.44-10.69,18.92-5.61,29,2.08,4.11,6,4,8.08,0a16.09,16.09,0,0,0,1.53-4.92c.24-.52.48-1.05.75-1.53s.68-1.15,1-1.73l.19-.3.24-.35q1.67-2.47,3.42-4.89c5.15-7.07,10.7-13.85,16.3-20.56q15.26-18.25,31.25-35.89c39.42-43.63,85.14-80.53,126.59-122,9.69-9.71,19.49-19.45,30.32-27.91,7.87-6.15,16.89-12.58,26.68-15.62a9.08,9.08,0,0,0,1.71,2.7c3.67,3.84,6.54-.73,7.76-4.07,2.48-6.76,3.17-14.51-1.72-21.11" fill="#f2c4a7"/><path d="M638.48,77.66c-1.17-3.9-4.29-8-8.12-4.26-19.58,18.85-42.07,34.2-63.12,51.3-22,17.88-43.07,37.11-63.93,56.31-17.86,16.43-35,33.57-52.3,50.55-10.81,10.59-21.61,21.29-31.13,33.08-5.76,7.12-11.3,14.71-14.5,23.36-2.71,7.32-5.11,20.34,1.65,26.33,6.54,5.8,7.16-9.56,6.37-12.76.4,1.63.62,3.71.38,1,0,.49.08.86.1,1.14,0-.06,0-.13,0-.19a.17.17,0,0,1,0-.07c0,.21,0,.39,0,.54.08.91,0,.13,0-.57.25-.57.51-1.16.79-1.72.72-1.4,1.45-2.79,2.25-4.16a128.18,128.18,0,0,1,12.53-16.81c9.07-10.62,19-20.38,29-30.16,35.9-35.32,72.17-70.59,111.25-102.45,22.21-18.1,46-34.33,66.65-54.25,3.78-3.63,3.51-11.66,2.13-16.24" fill="#f2c4a7"/><path d="M413.91,304c0-.08,0-.17,0-.28,0,.69.05,1.42,0,.28" fill="#f2c4a7"/><path d="M675,130.22c-32.33,15.54-58.38,41.71-82.43,67.75-12.14,13.12-23.91,26.58-36.2,39.56S530.53,262.67,518,275.65c-14.19,14.76-30.23,32.78-34,53.51-.62,3.36-.14,8.07,1.86,10.89,1.4,2,3.88,3.24,5.75.81,5.21-6.79,8.28-15.05,13.26-22.06a190.72,190.72,0,0,1,16.39-19.71c11.87-12.66,24.84-24.23,36.9-36.7,24.45-25.3,46.61-52.82,72.74-76.49,14.25-12.9,29.84-24.43,47.22-32.78,7.12-3.42,4.9-26.77-3.16-22.9" fill="#f2c4a7"/><g clip-path="url(#c)"><path d="M667.73,138.32h0a2.44,2.44,0,0,0-.11,1.85,4.15,4.15,0,0,1,.11-1.84" fill="#e3683b"/></g><g clip-path="url(#d)"><path d="M685.61,125.87c-.68-4.94-4.3-16.85-11.58-13.14s-7.37,16.66-6.57,23.15c.1.81.18,1.62.27,2.43l0-.06,0,.07c0,.21,0,.43.07.64.23,1.9,0,1.82-.18,1.2.08,1.18.28,2.55.28,3,0,.83,0,1.65,0,2.48,0,.66-.68,4.3,0,1.17s-.07.6-.12,1.16c-.13,1.24-.28,2.47-.45,3.7-.23,1.64-.54,3.27-.81,4.91v0c-.17.68-.32,1.37-.49,2.06-1,3.88-2.14,7.71-3.48,11.49,0,.09-.91,2.32-.91,2.38l-.32.78c-.66,1.6-1.35,3.2-2.06,4.78-1.81,4-3.8,7.94-5.94,11.78-.87,1.56-1.77,3.1-2.68,4.63l-1.41,2.28-.32.55-.2.29q-3.57,5.39-7.5,10.5c-20.4,26.57-46.35,47.71-77.36,61.11a159.89,159.89,0,0,1-28.62,9c-13.19-8.32-27.26-15.2-41.53-21.46a483.13,483.13,0,0,0-122.24-35.19c-85.4-12.9-175.8-3.19-255.61,30.33-19,8-38,17.13-55.57,28C41.86,291.2,25.09,305,14,323.71c-5.13,8.68-4.9,23.89,0,32.6,1.73,3.07,4.15,6.75,8.15,6.75s6.4-3.8,8.15-6.75l.43-.73c.43-.63.86-1.26,1.31-1.87,1.1-1.49,2.24-2.93,3.43-4.34A102,102,0,0,1,45,339.69a91.32,91.32,0,0,1,7.6-6.07c3.65-2.7,7.41-5.25,11.24-7.68,14.76-9.36,30.54-17.17,46.43-24.44,38.22-17.48,78.85-28.71,120.45-34.45,81.36-11.23,166.53-3,242.84,28.2,19,7.78,37.95,16.33,55.38,27.29s30.76,23.42,43.8,39.82c5.31,6.68,11.54,0,13.67-5.46,3.2-8.28,3.5-19.84-.83-27.83a117.8,117.8,0,0,0-16.32-23,179.34,179.34,0,0,0,41.6-23.61c30.42-22.93,55.31-53.71,67.92-89.93a144.92,144.92,0,0,0,6.88-66.7" fill="#e3683b"/></g></g><path d="M437.71,86.76c-17.24-2.52-34.31-6.14-51.61-8.28a213.07,213.07,0,0,0-46.34-.34c-4.12-1.26-5.6,12.74-1.44,15.66,2,1.38,4.69.67,6.88.47,4.26-.37,8.51-.41,12.78-.38,9.1,0,18.14.3,27.2,1.21,17.62,1.78,35,5.25,52.53,7.71,5.14.72,5.81-15.2,0-16" fill="#fae7dc"/><path d="M292,77.24c-33.8-1.82-66,12-97,23.71-16.62,6.29-32.56,14-48.46,21.89-13.81,6.87-30,13-39.81,25.42-1.81,2.27-2,5.81-1.39,8.52.32,1.48,1.74,5.42,4,3.95,27.45-17.65,56.31-32.81,87-44.14s62.27-25,95.63-23.15c5.48.3,5.78-15.89,0-16.2" fill="#fae7dc"/><path d="M92.58,170.65c-.23-1.63-2.43-8.83-5.52-6.27C74.28,175,61.52,190.13,57.75,206.71c-.76,3.32-1,7.57,1,10.51,1.57,2.23,4.22,2.24,5.35-.63a83.87,83.87,0,0,1,25.3-34.89c3.15-2.56,3.67-7.22,3.13-11" fill="#fae7dc"/></svg>