<svg xmlns="http://www.w3.org/2000/svg" xmlns:xlink="http://www.w3.org/1999/xlink" width="664.83" height="392.02" viewBox="0 0 664.83 392.02"><defs><clipPath id="a"><path d="M283.74,124.26c-30-23.87-78.37-19.78-103.9,8.79a48,48,0,0,0-71.37,27.44c-17.58-4.67-37.7,8.66-40.27,26.66-4.53,9.91-10.65,19.81-13,30.93s0,23.91,8.51,31.37c1.64,1.43,3.55,2.74,4.37,4.76a11.66,11.66,0,0,1,.52,4.41,66.33,66.33,0,0,0,2.65,18.3,37.46,37.46,0,0,0,6.29,13,26.47,26.47,0,0,0,25.23,9.23C110,322,133.76,333.48,151.91,325.7c4.5,11.42,19.35,17.42,30.52,12.32,3.29-1.51,6.48-3.86,10.1-3.63,3.25.2,5.94,2.45,8.61,4.32a46.09,46.09,0,0,0,41.76,5.38c4.11-1.52,8.2-3.68,12.58-3.44,5,.28,9.28,3.65,13.89,5.67,13,5.67,27.92.41,40.74-5.58,3-1.4,6.16-2.88,9.46-2.57s6,2.29,8.74,4.07c17.2,11.29,42.26,15.91,57,1.6,15.88,10.85,39.14,9.22,53.35-3.74,15.24,10.55,37.11,9.77,47.86-2.89,19.81,13.24,50.33,5.6,61.58-15.41,8.83-2.16,17.68-6,23.32-13.16s7.13-18.11,1.48-25.23c18.46-9.21,26.68-34.61,17.12-52.9a33.19,33.19,0,0,0,1-61.52c-.67-.29-1.78-2.06-3.44-2.69-9.69-19.08-32.86-30-53.8-25.63-16.26-19.18-47.31-23.61-68.28-9.73-15.86-21.56-48-29.21-71.84-17.13-2.46,1.24-4.9,2.69-7.63,3.08-4.94.7-9.58-2.15-14-4.47A75.54,75.54,0,0,0,336.93,104c-19.44,0-38.95,7-53.19,20.29" fill="none"/></clipPath><clipPath id="b"><path d="M270.69,7.94c-60.91,5.21-117.48,24.12-163.5,69.35-27.78,27.3-63.42,61.36-70.88,102-1.62,8.82,2.93,34,8.95,40,6.73,6.61,17.07,3.33,25.46-.11C216,159.5,378.54,154.92,526.24,206.3c15.65,5.45,32.47,11.53,48,5.81,10-3.65,18.06-11.72,25.79-19.68q16.29-16.77,32.12-34.09c6.57-7.18,13.4-15.1,15.06-25.24S649,90.51,628.7,74.77C570.35,29.48,492.94,15,456.17,9.27,427.5,4.79,398,3.09,368.48,3.09c-32.82,0-65.74,2.1-97.79,4.85" fill="none"/></clipPath></defs><title>tamago</title><g clip-path="url(#a)"><path d="M591.08,169a33.19,33.19,0,0,1-1,61.52c9.56,18.29,1.34,43.69-17.12,52.9,5.65,7.12,4.17,18.1-1.48,25.23s-14.49,11-23.32,13.16c-11.25,21-41.77,28.65-61.58,15.41-10.75,12.66-32.62,13.44-47.86,2.89-14.21,13-37.47,14.59-53.35,3.74-14.78,14.31-39.83,9.69-57-1.6-2.72-1.78-5.51-3.76-8.74-4.07s-6.46,1.17-9.46,2.57c-12.82,6-27.78,11.25-40.74,5.58-4.61-2-8.86-5.39-13.89-5.67-4.38-.24-8.47,1.92-12.58,3.44a46.09,46.09,0,0,1-41.76-5.38c-2.67-1.87-5.36-4.12-8.61-4.32-3.62-.23-6.81,2.12-10.1,3.63-11.17,5.1-26-.9-30.52-12.32-18.15,7.78-41.9-3.68-49.09-26.57a26.47,26.47,0,0,1-25.23-9.23,37.46,37.46,0,0,1-6.29-13,66.33,66.33,0,0,1-2.65-18.3,11.66,11.66,0,0,0-.52-4.41c-.82-2-2.73-3.33-4.37-4.76C55.2,242,53,229.21,55.25,218.08s8.42-21,13-30.93c2.57-18,22.69-31.33,40.27-26.66a48,48,0,0,1,71.37-27.44c25.53-28.57,73.94-32.66,103.9-8.79,23.17-21.62,60.31-26.6,88.35-11.84,4.42,2.32,9.06,5.17,14,4.47,2.73-.39,5.17-1.84,7.63-3.08,23.88-12.08,56-4.43,71.84,17.13,21-13.87,52-9.45,68.28,9.73,20.94-4.33,44.11,6.55,53.8,25.63,1.66.63,2.77,2.4,3.44,2.69" fill="#fff"/><path d="M591.08,169a33.19,33.19,0,0,1-1,61.52c9.56,18.29,1.34,43.69-17.12,52.9,5.65,7.12,4.17,18.1-1.48,25.23s-14.49,11-23.32,13.16c-11.25,21-41.77,28.65-61.58,15.41-10.75,12.66-32.62,13.44-47.86,2.89-14.21,13-37.47,14.59-53.35,3.74-14.78,14.31-39.83,9.69-57-1.6-2.72-1.78-5.51-3.76-8.74-4.07s-6.46,1.17-9.46,2.57c-12.82,6-27.78,11.25-40.74,5.58-4.61-2-8.86-5.39-13.89-5.67-4.38-.24-8.47,1.92-12.58,3.44a46.09,46.09,0,0,1-41.76-5.38c-2.67-1.87-5.36-4.12-8.61-4.32-3.62-.23-6.81,2.12-10.1,3.63-11.17,5.1-26-.9-30.52-12.32-18.15,7.78-41.9-3.68-49.09-26.57a26.47,26.47,0,0,1-25.23-9.23,37.46,37.46,0,0,1-6.29-13,66.33,66.33,0,0,1-2.65-18.3,11.66,11.66,0,0,0-.52-4.41c-.82-2-2.73-3.33-4.37-4.76C55.2,242,53,229.21,55.25,218.08s8.42-21,13-30.93c2.57-18,22.69-31.33,40.27-26.66a48,48,0,0,1,71.37-27.44c25.53-28.57,73.94-32.66,103.9-8.79,23.17-21.62,60.31-26.6,88.35-11.84,4.42,2.32,9.06,5.17,14,4.47,2.73-.39,5.17-1.84,7.63-3.08,23.88-12.08,56-4.43,71.84,17.13,21-13.87,52-9.45,68.28,9.73,20.94-4.33,44.11,6.55,53.8,25.63C589.3,166.93,590.41,168.7,591.08,169Z" fill="none" stroke="#c9c9c9" stroke-miterlimit="10" stroke-width="9"/><path d="M615.75,196c.58-.6,1.17-1.19,1.76-1.79,7-7.26,7.1-22.56,4.13-31.54-2.36-7.14-8.39-15.86-15.77-8.27-11.84,12.18-21.4,20.82-35.51,30-13.92,9.06-28.54,16.16-44.92,15.79-8-.18-13.81-1.64-20.43-6.2.05,0-1.2-.91-1.75-1.29l-.59-.51c-1.09-1-2.15-2-3.24-3-3.05-2.83-6.2-5.83-9.89-7.83-15.36-8.34-33.69,0-49.81.68-10.16.45-19.5-2.25-28.68-6.4-9.89-4.47-16.91-9.2-23-17.49-2.41-3.28-5.46-3.28-8.88-2.32-16.88,4.73-34.34,9.41-52,8a35.15,35.15,0,0,1-17.26-5.54c-5.73-3.53-10.92-7.86-16.61-11.46-3.11-2-6.77,0-8.88,2.33-1.33,1.47-3.8,4-4.69,4.81,0,0-1.91,1.52-2.12,1.67-1.11.82-2.24,1.6-3.4,2.34a58.67,58.67,0,0,1-12.56,5.94,54.41,54.41,0,0,1-11.51,2,70.2,70.2,0,0,1-14.27-.46c-8.85-1.17-15.93-3.55-24.59-7.9a97.83,97.83,0,0,1-12.47-7.49c-1.52-1.08-3-2.21-4.46-3.38-.11-.11-1.78-1.52-1.89-1.62-.94-.86-1.85-1.74-2.76-2.64-2.11-2.07-5.8-4.54-8.88-2.32a103,103,0,0,0-19.56,19c-2.44,3-4.83,6-7.43,8.85-1.3,1.43-2.68,2.76-4,4.13l-.43.44-.29.21c-.88.69-1.77,1.35-2.7,2-7.33,5-16.23,7.73-25,8.84-10,1.27-18.25-.59-27-5.34-5-2.72-9.14,1.9-11.21,5.93-1.58,3.07-3.28,6.08-5,9-1.07,1.79-2.22,3.54-3.28,5.33-.11.16-.21.32-.31.48l-1.85,2.73A184.42,184.42,0,0,1,53.89,225.3c-1.77,1.85-3.59,3.66-5.47,5.39-.54.5-1.1,1-1.65,1.47-.28.22-1.47,1.22-1.69,1.39a60.35,60.35,0,0,1-11.66,7.27,40.32,40.32,0,0,1-4.23,1.66c.15-.09-1.73.36-2.22.43a25.58,25.58,0,0,1-3.15.27,29.17,29.17,0,0,1-4.68-.39c1.15.16.6.13-.12,0l-.55-.08.54.08a5.36,5.36,0,0,1-1-.28c-1.17-.52-2.32-1-3.45-1.62C5.82,236.12,1.09,251.08.4,257c-1,8.31-.77,23.56,8,28.36,20.47,11.12,41.35-4.32,55.42-18.52A198.74,198.74,0,0,0,94.6,225.73a52.32,52.32,0,0,0,24.48,4.19c10.38-.88,22-3.9,31.06-9.25,7.78-4.61,14.17-11.29,19.86-18.22,2.76-3.36,5.43-6.78,8.34-10,1.36-1.5,2.76-3,4.22-4.35.19-.19.58-.55.91-.85,14.82,12.82,32.73,21.72,52.36,24.31a67.81,67.81,0,0,0,55.24-17.65c4.54,3.18,8.92,6.63,13.7,9.43a52.82,52.82,0,0,0,22.36,6.57c17.8,1.43,35.41-3.23,52.47-8C391.92,216,411.16,225,429.31,227.62c8.87,1.3,17.51-.09,26.26-1.61,4.21-.73,8.43-1.4,12.69-1.76a66.1,66.1,0,0,1,7.45-.31c1,0,1.91.09,2.85.21.24,0,2.49.66,2.37.54a21.49,21.49,0,0,1,3.41,1.66,19.33,19.33,0,0,0,2.19,1.5l.06,0,0,0c3,2.86,6.1,5.7,9.35,8.33,7,5.69,15.8,8.69,24.75,9.74,17.62,2.07,35.8-5.09,50.69-13.95a181.5,181.5,0,0,0,21.11-14.8c-.44.83-.9,1.65-1.36,2.46l-.41.68c-.33.5-.92,1.38-1.06,1.57a79.5,79.5,0,0,1-6.51,8.14,22.14,22.14,0,0,1-6.71,5.09,37.16,37.16,0,0,1-4.44,1.92,12.3,12.3,0,0,1-2.63.8c-6.36,1.52,1,12.33-5,15-11.7,5.27-38.73,22.17-39.74,24.17-.07.14-.39.63-.71,1.17a2.15,2.15,0,0,0-.85,1.35c-.24.31-.49.62-.75.92s-1.53,1.48-2,2-1.77,1.17-2.08,1.36a41.25,41.25,0,0,1-9.73,4.1c.16-.07-2.52.59-3.14.71-1.89.38-3.8.69-5.72.91a65.62,65.62,0,0,1-11,.4c-7.45-.37-13-1.82-19.28-6.44a6.09,6.09,0,0,0-6.12,0c-13.82,6.58-25.95,16.21-40,22.45-7.18,3.2-11.42,4.74-19.28,4.52a31.5,31.5,0,0,1-5.31-.59l-.64-.12s0-.06-.35-.19c-.77-.29-1.54-.58-2.29-.92a46.42,46.42,0,0,1-5-2.89c-.32-.2-.77-.54-.93-.66-1-.88-1.87-1.85-2.76-2.8-2.09-2.24-5.8-4.38-8.88-2.32-6.55,4.38-12.26,9.85-17.93,15.28-1.38,1.32-2.75,2.64-4.16,3.93l-1.7,1.52-.93.75a53.75,53.75,0,0,1-8.3,5.29c-14.39,7-30.08.92-43.63-5-6.27-2.75-13.82-6.94-20.85-6.83-5.18.07-8.73,2.7-12.59,5.69-5.5,4.27-12.08,8.54-19,9.85-8.08,1.53-16.39-.26-24.18-2.43-8.45-2.36-12.1,6.28-13.59,13.35-1.9,9-1.65,21.4,4.71,28.78,24.69,28.65,69.07,22.52,102.29,17.82,16.38-2.32,32.89-5.63,49.48-6,27.22-.53,54.41,1.42,81.61-.55,13-.94,26-2.15,39-3.38,13.34-1.27,26.73-3.09,39.46-7.47,5.34-1.84,7.56-10.76,8.23-17.33,2.94-1.06,5.85-2.2,8.7-3.44,27.66-12,44.55-37.21,59.93-61.84,4.24-6.8,3.93-17.86,2.38-25.18a38,38,0,0,0-1.92-6.26c11.46-18.41,16.1-39.57,11-60.59" fill="#f2f2f2"/><path d="M591.08,169a33.19,33.19,0,0,1-1,61.52c9.56,18.29,1.34,43.69-17.12,52.9,5.65,7.12,4.17,18.1-1.48,25.23s-14.49,11-23.32,13.16c-11.25,21-41.77,28.65-61.58,15.41-10.75,12.66-32.62,13.44-47.86,2.89-14.21,13-37.47,14.59-53.35,3.74-14.78,14.31-39.83,9.69-57-1.6-2.72-1.78-5.51-3.76-8.74-4.07s-6.46,1.17-9.46,2.57c-12.82,6-27.78,11.25-40.74,5.58-4.61-2-8.86-5.39-13.89-5.67-4.38-.24-8.47,1.92-12.58,3.44a46.09,46.09,0,0,1-41.76-5.38c-2.67-1.87-5.36-4.12-8.61-4.32-3.62-.23-6.81,2.12-10.1,3.63-11.17,5.1-26-.9-30.52-12.32-18.15,7.78-41.9-3.68-49.09-26.57a26.47,26.47,0,0,1-25.23-9.23,37.46,37.46,0,0,1-6.29-13,66.33,66.33,0,0,1-2.65-18.3,11.66,11.66,0,0,0-.52-4.41c-.82-2-2.73-3.33-4.37-4.76C55.2,242,53,229.21,55.25,218.08s8.42-21,13-30.93c2.57-18,22.69-31.33,40.27-26.66a48,48,0,0,1,71.37-27.44c25.53-28.57,73.94-32.66,103.9-8.79,23.17-21.62,60.31-26.6,88.35-11.84,4.42,2.32,9.06,5.17,14,4.47,2.73-.39,5.17-1.84,7.63-3.08,23.88-12.08,56-4.43,71.84,17.13,21-13.87,52-9.45,68.28,9.73,20.94-4.33,44.11,6.55,53.8,25.63C589.3,166.93,590.41,168.7,591.08,169Z" fill="none" stroke="#d9d2bf" stroke-miterlimit="10" stroke-width="22"/></g><g clip-path="url(#b)"><path d="M647.26,133.1c-1.66,10.14-8.49,18.06-15.06,25.24q-15.83,17.32-32.12,34.09c-7.73,8-15.84,16-25.8,19.68-15.57,5.72-32.39-.36-48-5.81-147.7-51.38-310.3-46.8-455.52,12.86-8.39,3.44-18.73,6.72-25.46.11-6-5.92-10.57-31.14-8.95-40,7.46-40.66,43.1-74.72,70.88-102,46-45.23,102.59-64.14,163.5-69.36s125-8.12,185.48,1.34C492.94,15,570.35,29.48,628.7,74.77,649,90.51,648.93,123,647.26,133.1" fill="#ffcf3d"/><path d="M637.93,78.1c-5.61,25-22.13,39.45-36,51.16-14.57,12.32-33.3,32.26-38.23,30.35-96.22-37.19-196.25-50.16-271.4-46.52C204,117.36,127,141.14,95.58,150.36c-21.49,6.3-57.48,28.43-70.28,57.79-6.62,15.18-11.07,34.16,0,45.6,11.41,11.79,27.51,12.18,39.23,1.23l.49-.3.06,0c2.89-1,5.8-1.94,8.76-2.7,6.66-1.69,13.33-3.18,19.94-5.11,18.7-5.45,37.35-11.06,56.14-16.11a1023.07,1023.07,0,0,1,107.75-23.22c72.93-10.46,146.91-9.42,219.79,1.12q20.61,3.21,41.1,7.45c67.64,23.23,131.79,5.58,116.59-32.06l.5-.44,1.47-1.27c13.19-11.28,27.71-47.69,27.71-47.69s-22.32-77-26.9-56.52" fill="#eba015"/><path d="M236.8,28.48c-23.49-1.41-45.71,8.43-65.84,21.2a313.12,313.12,0,0,0-26.8,19.09c-8.47,6.72-18.63,14.92-22.8,26-1.15,3.08-1.22,6.42,1,9,1.93,2.17,5.61,3,8,1.16a187.34,187.34,0,0,1,26.09-17.77l.51-.29c-.35.35-.71.7-1.05,1.06-3.08,3.16-2.8,9,0,12.19s6.21,3,9.2,1.19a1.19,1.19,0,0,0,.08.16c2-1.71,4.28-3.43,6.7-5.22,1.75,4.69,7.31,7.57,12,4.93a19.91,19.91,0,0,0,2.66-2,7.76,7.76,0,0,0,14.87-3.82c-.18-3.8-1.19-7.12-2-10.78a9.59,9.59,0,0,0-5.13-6.3A10.91,10.91,0,0,0,192.05,73a18.45,18.45,0,0,0,.34-1.83c.62-4.55-1.39-9-4.87-10.48,15.29-9.09,31.65-15.58,49.28-14.89,9.94.39,9.85-16.75,0-17.34" fill="#faf4be"/></g><path d="M349.27,3.19C318.89,27.77,261.81,83.55,238,118c-13.72,19.88-17.25,118.32-12.84,190,.67,11,3.79,30.06,10.7,37.46,6.29,6.74,80.46,19.63,123.7,8.93,5.31-1.31.26-28.69-.08-31.14-5.71-40.53-9.68-66.3-11.86-107.31-2.79-52.5-.94-87.61,7.51-96.58,28.27-30,81.7-88.8,112-108.51,2.07-1.34-31.74-7.25-52-9.15-30.53-2.86-61.51-2.11-65.91,1.44" fill="#70644f"/><path d="M354.61,96.71c-3-.54-6.08-1.06-9.16-1.55a8.75,8.75,0,0,0,1.08-4.59c4.85-.53,9.85-4.84,7.6-10.21-.13-.3-.25-.63-.38-1a43,43,0,0,0,3.87-3.33c5.32-5.07-.26-13.26-6.86-11.78-4.34,1-10.6,3.18-13.11,7.21a10.47,10.47,0,0,0-.88,1.82l-3.22-.18c-5.29-.28-9.76.63-13.95,4-2.37,1.89-2.46,4.91-1.34,7.41-1.36-.15-2.67-.29-3.91-.35-7.77-.37-15.55.74-21.54,6.07A6.29,6.29,0,0,0,291.09,93l-5.08.12c-10.42.18-10.45,16.42,0,16.21,11-.22,22-.71,33-.1,11.16.61,22.32,3.18,33.48,3.17,8.86,1.08,11-14.1,2.12-15.66" fill="#d9cbb4"/></svg>