<svg xmlns="http://www.w3.org/2000/svg" xmlns:xlink="http://www.w3.org/1999/xlink" width="892.24" height="425.63" viewBox="0 0 892.24 425.63"><defs><clipPath id="a" transform="translate(0)"><path d="M398.14,157.87c-30-23.87-78.37-19.78-103.9,8.79a48,48,0,0,0-71.37,27.44c-17.57-4.67-37.7,8.66-40.27,26.66-4.53,9.91-10.65,19.81-12.95,30.94s-.05,23.9,8.51,31.37c1.64,1.42,3.55,2.73,4.37,4.75a11.66,11.66,0,0,1,.52,4.41,66.22,66.22,0,0,0,2.65,18.3,37.46,37.46,0,0,0,6.29,13,26.49,26.49,0,0,0,25.23,9.24c7.19,22.88,30.94,34.34,49.09,26.57,4.5,11.42,19.35,17.41,30.52,12.31,3.29-1.5,6.48-3.86,10.1-3.63,3.25.2,5.94,2.45,8.61,4.32a46.12,46.12,0,0,0,41.76,5.39c4.11-1.53,8.21-3.69,12.58-3.45,5,.28,9.28,3.66,13.89,5.68,13,5.67,27.92.4,40.74-5.59,3-1.4,6.16-2.88,9.46-2.56s6,2.29,8.74,4.07c17.2,11.28,42.25,15.91,57,1.6,15.88,10.84,39.14,9.21,53.35-3.75,15.24,10.55,37.11,9.77,47.86-2.88,19.81,13.23,50.33,5.6,61.58-15.41,8.83-2.17,17.68-6,23.32-13.16S693,324.15,687.33,317c18.47-9.21,26.68-34.61,17.12-52.89a33.2,33.2,0,0,0,1-61.53c-.67-.29-1.78-2.06-3.44-2.69-9.69-19.08-32.86-30-53.8-25.62C632,155.11,600.93,150.68,580,164.55c-15.86-21.56-48-29.21-71.84-17.13-2.46,1.25-4.9,2.69-7.63,3.08-4.94.71-9.58-2.15-14-4.47a75.41,75.41,0,0,0-35.16-8.44c-19.44,0-38.95,7-53.19,20.28" fill="none"/></clipPath><clipPath id="b" transform="translate(0)"><path d="M305.25,43.51C259.2,56,214.27,76,179.17,108.37s-55.42,72.33-63.79,126.48c-3.18,11.38-.37,26.43,2.69,37.85s14.86,21.38,26.17,18c3.8-1.13,7-3.58,10.24-5.91,69.13-50.57,156.25-73.07,241.9-72.94A538.86,538.86,0,0,1,550.9,234.15c53.77,16,97.74,66.27,120.89,83,28.57,20.71,33.89,37.69,86.91,37.69,20.65,0,86.1-17.37,102.42-33,20-19.06-69.54-43.74-92.22-125.85-5.15-18.64-23.57-53.83-73-87.65C617.77,55,523.05,27.25,428.43,27.25A470,470,0,0,0,305.25,43.51" fill="none"/></clipPath><clipPath id="c" transform="translate(0)"><rect y="190.19" width="864" height="235.44" fill="none"/></clipPath></defs><title>toro</title><g clip-path="url(#a)"><path d="M705.48,202.6a33.2,33.2,0,0,1-1,61.53c9.56,18.28,1.34,43.68-17.12,52.89,5.65,7.13,4.17,18.11-1.48,25.24s-14.49,11-23.32,13.16c-11.25,21-41.77,28.64-61.58,15.41-10.75,12.65-32.62,13.43-47.86,2.88-14.21,13-37.47,14.59-53.35,3.75-14.78,14.31-39.83,9.68-57-1.6-2.72-1.78-5.51-3.77-8.74-4.07s-6.47,1.16-9.46,2.56c-12.82,6-27.78,11.25-40.74,5.58-4.61-2-8.86-5.39-13.89-5.67-4.38-.24-8.47,1.92-12.58,3.44a46.09,46.09,0,0,1-41.76-5.38c-2.67-1.87-5.36-4.12-8.62-4.32-3.61-.23-6.8,2.13-10.09,3.63-11.17,5.1-26-.89-30.52-12.31-18.16,7.77-41.9-3.69-49.09-26.57A26.49,26.49,0,0,1,192,323.51a37.46,37.46,0,0,1-6.29-13,66.27,66.27,0,0,1-2.65-18.3,11.66,11.66,0,0,0-.52-4.41c-.82-2-2.73-3.33-4.37-4.75-8.56-7.47-10.81-20.25-8.51-31.37s8.41-21,12.95-30.94c2.57-18,22.69-31.33,40.27-26.66a48,48,0,0,1,71.37-27.44c25.53-28.57,73.94-32.66,103.9-8.79,23.17-21.62,60.31-26.6,88.35-11.84,4.42,2.32,9.06,5.17,14,4.47,2.73-.39,5.17-1.83,7.63-3.08C532,135.34,564.1,143,580,164.55c21-13.87,52-9.45,68.28,9.73,20.94-4.33,44.11,6.55,53.79,25.63,1.67.63,2.78,2.4,3.45,2.69" transform="translate(0)" fill="#fff"/><path d="M705.48,202.6a33.2,33.2,0,0,1-1,61.53c9.56,18.28,1.34,43.68-17.12,52.89,5.65,7.13,4.17,18.11-1.48,25.24s-14.49,11-23.32,13.16c-11.25,21-41.77,28.64-61.58,15.41-10.75,12.65-32.62,13.43-47.86,2.88-14.21,13-37.47,14.59-53.35,3.75-14.78,14.31-39.83,9.68-57-1.6-2.72-1.78-5.51-3.77-8.74-4.07s-6.47,1.16-9.46,2.56c-12.82,6-27.78,11.25-40.74,5.58-4.61-2-8.86-5.39-13.89-5.67-4.38-.24-8.47,1.92-12.58,3.44a46.09,46.09,0,0,1-41.76-5.38c-2.67-1.87-5.36-4.12-8.62-4.32-3.61-.23-6.8,2.13-10.09,3.63-11.17,5.1-26-.89-30.52-12.31-18.16,7.77-41.9-3.69-49.09-26.57A26.49,26.49,0,0,1,192,323.51a37.46,37.46,0,0,1-6.29-13,66.27,66.27,0,0,1-2.65-18.3,11.66,11.66,0,0,0-.52-4.41c-.82-2-2.73-3.33-4.37-4.75-8.56-7.47-10.81-20.25-8.51-31.37s8.41-21,12.95-30.94c2.57-18,22.69-31.33,40.27-26.66a48,48,0,0,1,71.37-27.44c25.53-28.57,73.94-32.66,103.9-8.79,23.17-21.62,60.31-26.6,88.35-11.84,4.42,2.32,9.06,5.17,14,4.47,2.73-.39,5.17-1.83,7.63-3.08C532,135.34,564.1,143,580,164.55c21-13.87,52-9.45,68.28,9.73,20.94-4.33,44.11,6.55,53.79,25.63C703.7,200.54,704.81,202.31,705.48,202.6Z" transform="translate(0)" fill="none" stroke="#c9c9c9" stroke-miterlimit="10" stroke-width="9"/><path d="M730.15,229.62l1.76-1.79c7.05-7.25,7.1-22.56,4.13-31.53-2.36-7.15-8.39-15.86-15.77-8.27-11.84,12.17-21.4,20.81-35.51,30-13.92,9.06-28.54,16.16-44.92,15.8-8-.18-13.81-1.65-20.43-6.21.05,0-1.2-.9-1.75-1.29l-.59-.5c-1.09-1-2.15-2-3.24-3-3.05-2.83-6.2-5.82-9.89-7.82-15.36-8.34-33.69,0-49.81.68-10.16.44-19.5-2.26-28.68-6.41-9.89-4.46-16.91-9.19-23-17.49-2.41-3.28-5.46-3.28-8.88-2.32-16.88,4.73-34.34,9.41-52,8a35,35,0,0,1-17.26-5.54c-5.73-3.53-10.92-7.86-16.61-11.45-3.11-2-6.77,0-8.88,2.32-1.33,1.47-3.8,4-4.69,4.82,0,0-1.91,1.51-2.12,1.67-1.11.81-2.24,1.59-3.4,2.33A58.67,58.67,0,0,1,376,197.51a54.41,54.41,0,0,1-11.51,2,69.49,69.49,0,0,1-14.27-.46c-8.85-1.17-15.93-3.54-24.59-7.9a97.83,97.83,0,0,1-12.47-7.49c-1.52-1.08-3-2.21-4.46-3.37-.11-.12-1.78-1.53-1.89-1.63-.94-.86-1.85-1.74-2.76-2.63-2.11-2.08-5.8-4.54-8.88-2.33a103.1,103.1,0,0,0-19.56,19c-2.44,3-4.83,6-7.43,8.85-1.3,1.43-2.68,2.75-4,4.12l-.43.44a2.78,2.78,0,0,0-.29.22c-.88.68-1.77,1.35-2.7,2-7.33,5-16.23,7.73-25,8.84-10,1.27-18.25-.59-27-5.34-5-2.72-9.14,1.9-11.21,5.93-1.58,3.07-3.28,6.09-5,9.06-1.07,1.79-2.22,3.53-3.28,5.32-.11.16-.21.32-.31.48-.61.92-1.23,1.83-1.85,2.74a185,185,0,0,1-18.81,23.52c-1.77,1.85-3.59,3.66-5.47,5.4-.54.49-1.1,1-1.65,1.46-.28.22-1.47,1.22-1.69,1.39a59.87,59.87,0,0,1-11.66,7.27,40.32,40.32,0,0,1-4.23,1.66c.15-.08-1.73.36-2.22.43a25.58,25.58,0,0,1-3.15.27,30.36,30.36,0,0,1-4.68-.38c1.15.15.6.12-.12,0l-.55-.07.54.07a5.4,5.4,0,0,1-1-.27c-1.17-.52-2.32-1-3.45-1.63-8.75-4.76-13.48,10.2-14.17,16.1-1,8.3-.77,23.55,8,28.35,20.47,11.13,41.35-4.32,55.42-18.52A198.48,198.48,0,0,0,209,259.34a52.33,52.33,0,0,0,24.48,4.2c10.38-.89,22-3.91,31.06-9.25,7.78-4.62,14.17-11.3,19.86-18.23,2.76-3.35,5.43-6.77,8.34-10,1.36-1.5,2.76-3,4.22-4.35.19-.19.58-.55.91-.85,14.82,12.82,32.73,21.72,52.36,24.32a67.82,67.82,0,0,0,55.24-17.66c4.54,3.19,8.92,6.63,13.7,9.44a52.81,52.81,0,0,0,22.36,6.56c17.8,1.44,35.41-3.23,52.47-8,12.32,14.08,31.56,23.09,49.71,25.75,8.87,1.3,17.51-.1,26.26-1.61,4.21-.73,8.43-1.41,12.69-1.77a66.1,66.1,0,0,1,7.45-.31c.95,0,1.91.09,2.85.21.24,0,2.49.66,2.37.54a22.38,22.38,0,0,1,3.41,1.66,19.33,19.33,0,0,0,2.19,1.5l.06,0,0,0c3,2.86,6.1,5.71,9.35,8.34,7,5.69,15.8,8.68,24.75,9.73,17.62,2.07,35.8-5.08,50.69-13.94a183.7,183.7,0,0,0,21.12-14.8c-.45.82-.91,1.64-1.37,2.46l-.41.67c-.33.5-.92,1.39-1.06,1.58a80.6,80.6,0,0,1-6.51,8.14,22.28,22.28,0,0,1-6.71,5.08,34.18,34.18,0,0,1-4.44,1.92,12.3,12.3,0,0,1-2.63.8c-6.36,1.53,1,12.33-5,15C667.07,291.81,640,308.7,639,310.7c-.07.14-.39.64-.71,1.17a2.2,2.2,0,0,0-.85,1.35c-.24.31-.49.62-.75.92s-1.53,1.49-2,2-1.77,1.18-2.08,1.36a41.25,41.25,0,0,1-9.73,4.1c.16-.06-2.52.59-3.14.71q-2.84.59-5.72.91a64.58,64.58,0,0,1-11,.4c-7.45-.37-13-1.82-19.28-6.44a6.14,6.14,0,0,0-6.12,0c-13.82,6.59-26,16.21-40,22.45-7.18,3.2-11.42,4.74-19.28,4.52a31.5,31.5,0,0,1-5.31-.59l-.64-.12s0-.05-.35-.18c-.77-.3-1.54-.59-2.29-.93a46.42,46.42,0,0,1-5-2.89c-.32-.2-.77-.54-.93-.66-1-.88-1.87-1.85-2.76-2.8-2.09-2.24-5.8-4.38-8.88-2.32-6.55,4.38-12.26,9.85-17.93,15.29-1.38,1.32-2.75,2.64-4.16,3.92-.56.52-1.13,1-1.7,1.53l-.93.74a53.75,53.75,0,0,1-8.3,5.29c-14.39,7-30.08.93-43.63-5-6.27-2.75-13.82-6.94-20.85-6.83-5.18.08-8.73,2.7-12.59,5.7-5.5,4.26-12.08,8.54-19,9.84-8.08,1.53-16.39-.25-24.18-2.43-8.45-2.36-12.1,6.28-13.59,13.35-1.9,9-1.65,21.4,4.71,28.78,24.69,28.65,69.07,22.52,102.29,17.82,16.38-2.32,32.89-5.63,49.48-5.95,27.22-.54,54.41,1.41,81.61-.56,13-.93,26-2.15,39-3.38,13.34-1.27,26.73-3.09,39.46-7.47,5.34-1.84,7.56-10.76,8.23-17.33,2.94-1.06,5.85-2.2,8.7-3.43,27.66-12,44.55-37.22,59.93-61.85,4.24-6.79,3.93-17.85,2.38-25.18a38,38,0,0,0-1.92-6.26c11.46-18.4,16.09-39.57,11-60.59" transform="translate(0)" fill="#f2f2f2"/><path d="M705.48,202.6a33.2,33.2,0,0,1-1,61.53c9.56,18.28,1.34,43.68-17.12,52.89,5.65,7.13,4.17,18.11-1.48,25.24s-14.49,11-23.32,13.16c-11.25,21-41.77,28.64-61.58,15.41-10.75,12.65-32.62,13.43-47.86,2.88-14.21,13-37.47,14.59-53.35,3.75-14.78,14.31-39.83,9.68-57-1.6-2.72-1.78-5.51-3.77-8.74-4.07s-6.47,1.16-9.46,2.56c-12.82,6-27.78,11.25-40.74,5.58-4.61-2-8.86-5.39-13.89-5.67-4.38-.24-8.47,1.92-12.58,3.44a46.09,46.09,0,0,1-41.76-5.38c-2.67-1.87-5.36-4.12-8.62-4.32-3.61-.23-6.8,2.13-10.09,3.63-11.17,5.1-26-.89-30.52-12.31-18.16,7.77-41.9-3.69-49.09-26.57A26.49,26.49,0,0,1,192,323.51a37.46,37.46,0,0,1-6.29-13,66.27,66.27,0,0,1-2.65-18.3,11.66,11.66,0,0,0-.52-4.41c-.82-2-2.73-3.33-4.37-4.75-8.56-7.47-10.81-20.25-8.51-31.37s8.41-21,12.95-30.94c2.57-18,22.69-31.33,40.27-26.66a48,48,0,0,1,71.37-27.44c25.53-28.57,73.94-32.66,103.9-8.79,23.17-21.62,60.31-26.6,88.35-11.84,4.42,2.32,9.06,5.17,14,4.47,2.73-.39,5.17-1.83,7.63-3.08C532,135.34,564.1,143,580,164.55c21-13.87,52-9.45,68.28,9.73,20.94-4.33,44.11,6.55,53.79,25.63C703.7,200.54,704.81,202.31,705.48,202.6Z" transform="translate(0)" fill="none" stroke="#d9d2bf" stroke-miterlimit="10" stroke-width="25"/></g><g clip-path="url(#b)"><path d="M550.9,234.15c53.77,16,97.74,66.27,120.89,83,28.57,20.7,33.89,37.69,86.9,37.69,20.66,0,86.11-17.37,102.43-33,20-19.06-69.54-43.74-92.22-125.85-5.15-18.64-23.57-53.83-73-87.65C583.47,31.57,436.63,7.8,305.25,43.51,259.2,56,214.27,76,179.17,108.37s-55.42,72.33-63.79,126.48c-3.18,11.38-.37,26.43,2.69,37.85s14.86,21.38,26.17,18c3.8-1.13,7-3.58,10.24-5.91,69.13-50.57,156.25-73.07,241.9-72.94A538.86,538.86,0,0,1,550.9,234.15" transform="translate(0)" fill="#ed948a"/><path d="M825.19,180c-18.46-8.42-39.91-4.58-59.18-1.44-25,4.09-50.08,8-74.94,13.23-27.46,5.77-54.73,12.37-82,19.13-24.58,6.1-49.41,11.66-73.45,19.68a245.49,245.49,0,0,0-38.39,16.18c-10.89,5.82-22.9,12.52-26.95,25C468,278.93,479.5,284,482.73,277c4-8.71,15-13.16,23-17.38A230.7,230.7,0,0,1,538.08,246c22.06-7.61,44.83-13,67.43-18.69,50.66-12.86,101.35-25.17,152.87-34.14,10.27-1.79,20.48-4,30.86-5,6.82-.7,14.71-1.57,22-.59.34,3.07,3,6,6.86,5a20,20,0,0,0,7.12-2.81c3.07-2.17,4.18-7.78,0-9.69" transform="translate(0)" fill="#fcd5cf"/><path d="M805.68,224.22a49.47,49.47,0,0,0-7.24.74c3.72-5.06,1.56-14.15-6.58-14-35.18.68-68.15,16.62-99.4,31.26-30.91,14.48-63.63,25.22-93.36,42.18-12.84,7.33-25.88,17.1-29.36,32.3-1.22,5.29,3.65,11.65,9.5,9.5,4.72-1.73,5.94-5.06,6.7-8a7,7,0,0,0,.08-3.27c3.75-8.08,15.51-13.66,22.34-17.17,13.41-6.89,27.32-12.72,41.33-18.24,15.9-6.25,31.85-12.38,47.43-19.38,14.23-6.38,28.16-13.46,42.64-19.26,14.74-5.9,30.1-10.82,46-12.21-7.88,3.08-15.41,7.31-22.93,11.15-14.66,7.47-29,15.6-43.36,23.6C704.86,271.47,690,279,675.38,287c-7.47,4.07-14.84,8.3-22.18,12.6-7.17,4.2-15.11,8.29-21.17,14.05-5.78,5.5.39,13.64,7.23,12.42,8.22-1.48,16.34-6,23.82-9.56,7.09-3.41,14.1-7,21.08-10.61,14.23-7.42,28.48-14.8,42.52-22.58,13.84-7.66,27.58-15.5,41.61-22.82,11.28-5.9,24.28-15,37.39-15.32,13.46-.33,13.51-21.28,0-20.95" transform="translate(0)" fill="#fcd5cf"/><path d="M883.6,321.41a45.86,45.86,0,0,1-10-1.43c-.59-.13-6.7-1.53-9-2.1a23.91,23.91,0,0,0-2.4-1.9,15.4,15.4,0,0,0-8.34-2q-1,0-2,.09l.67-1.19c3.3-6.06.13-12.17-4.8-14.59,1.41-1.39,2.78-2.8,4.1-4.26,5.38-5.95,12.89-15.4,9.25-24.07-2.24-5.36-6.76-8.76-12.86-7.3a60.93,60.93,0,0,0-14.33,5.52c-3.31-2.84-8-3-12.15-1.11-39.85,17.82-72.25,46.44-106,73.43-3.9,3.13-3.65,9.77-.8,13.35,3.28,4.11,8.47,5,13.12,2.62,19.52-9.78,39-19.92,57.8-31a186.87,186.87,0,0,0-21.06,22.33c-2.9,3.74-4.19,8.3-1.63,12.68,2.17,3.71,7.56,6.46,11.81,4.81a204.5,204.5,0,0,0,40.06-21.14c2.54,4.28,8.12,6.42,14,3.82,5.33-2.33,10-5.87,15-8.91a69,69,0,0,1,6.42-3.49c1.83-.83,1-.38,1.5-.36,3.5,2.34,8.4,3.35,11.93,4.12,7.59,1.65,14.4.6,22-.66,9.92-1.66,7.35-17.3-2.34-17.27" transform="translate(0)" fill="#fcd5cf"/><path d="M810.76,139.2c-67.52.59-133.86,15.68-198.56,33.81-31.57,8.84-63.05,18-94.55,27.11-31,8.94-61.92,18.5-91.8,30.79a469,469,0,0,0-43.18,20.46c-10.54,5.66-24.75,13.41-25.57,26.84-.46,7.58,10.85,10.51,14.33,3.88a12.64,12.64,0,0,1,2.88-3,62,62,0,0,1,6-3.87c4.33-2.63,8.84-4.93,13.38-7.16,12.16-6,24.3-11.84,36.81-17,28.45-11.83,57.91-21.1,87.43-29.84C579.29,203,640.66,183.85,703.2,170c35.42-7.86,71.23-13.41,107.56-14.29,10.59-.26,10.65-16.59,0-16.5" transform="translate(0)" fill="#fcd5cf"/><path d="M816.84,99.15c-37.19-8-75.58.83-112.18,7.93-41.63,8.06-82.78,18.54-123.41,30.63s-80.88,25.57-120,41.67a1253,1253,0,0,0-113.38,53.91c-17.9,9.56-35.81,19.26-53.45,29.29-17.07,9.7-32.87,20.66-43.52,37.5-4.57,7.23,5.95,15.38,11.86,9.15,10.71-11.3,24.89-19.87,38.29-27.59,14.91-8.58,30.22-16.53,45.33-24.76,35.74-19.47,72-38,109.24-54.38,74.88-32.86,154.12-56.62,233.31-76.56,20.59-5.19,41.29-10.35,62.16-14.27,20.61-3.88,42.21-6.43,63-2.31,6.64,1.32,9.51-8.78,2.82-10.21" transform="translate(0)" fill="#fcd5cf"/><path d="M729,69.05c-38.8,4.34-76.44,14.09-113.8,25.12-38.33,11.31-76,24.49-113.32,38.81-72.62,27.9-144.77,58.88-211.43,99.24a642,642,0,0,0-54.3,36.36c-17.37,13.09-35.13,26.47-51,41.32-6.72,6.28,1.89,17.1,9.71,12.59,16.33-9.41,30.8-22,45.85-33.31,15.21-11.41,30.74-22.19,46.87-32.27A1085.36,1085.36,0,0,1,387.89,201.7c69.82-34,142.25-63.31,215.47-89.06C644.12,98.31,685.91,83.75,729,78.75c6.12-.71,6.21-10.4,0-9.7" transform="translate(0)" fill="#fcd5cf"/><path d="M677.67,35.12c-21.1,1.82-42.34,2.16-63.25,5.81C593.35,44.6,572.74,51.73,552.68,59,512.89,73.44,474.41,91.34,437,111.12c-76.22,40.3-148.91,87.14-220.21,135.52,22-17.31,43.91-34.62,66.28-51.39C344.69,149,410.42,108.9,479,73.84c37.19-19,75.23-37.63,116.59-45.4,9.31-1.75,5.32-15.75-3.9-14.15C554,20.84,519.37,34.61,485,51q-53.65,25.54-104.91,55.8-50.93,30-98.73,65c-32.78,23.89-64.49,49.22-96.46,74.18-15,11.7-30.15,23.07-45.53,34.26-15,10.92-28.75,22.53-35.46,40.35-2.36,6.26,3.87,10.36,9.19,9.37-.28.42-.57.83-.84,1.25-5.3,8.29,6.52,16.9,13.37,10.31a415.76,415.76,0,0,1,41.54-35.53c15.54-11.47,31.61-22.25,47.51-33.22,35.39-24.4,71.1-48.36,107.37-71.44,70.23-44.71,142.56-87.73,219.58-119.77C563,72.58,584.9,64,607.18,57.67c23-6.5,46.87-7.89,70.49-10.36,7.68-.81,7.87-12.87,0-12.19" transform="translate(0)" fill="#fcd5cf"/><path d="M495.54.16c-16.05-1.45-32.17,7.5-46.34,14-15.35,7-30.37,14.64-45.28,22.52C375.05,51.88,346.63,68,319,85.36q-42,26.48-81.28,57c-25.58,19.88-50.94,40.11-75,61.86-13.35,12.1-26.29,24.66-38.54,37.88-11.15,12-24.19,24.26-28.12,40.77-2.18,9.15,11.35,15.86,15.85,6.68,5.86-11.95,16.21-21.09,25.06-30.79,10.48-11.51,21.5-22.53,32.86-33.17,22.77-21.32,46.93-41.11,71.4-60.44C291,125.86,344,91.39,399.36,60.55,415.14,51.76,431,43.05,447.13,35Q459,29.07,471.08,23.7c7.87-3.5,15.62-7.61,24.46-6.81,10.73,1,10.66-15.77,0-16.73" transform="translate(0)" fill="#fcd5cf"/><path d="M388.14,20.72c-13.76.06-26.74,7.61-38.79,13.54s-23.51,12.34-35,19.05c-22.74,13.31-45.18,27.16-66.83,42.18-43.19,30-83,64.16-120.24,101.26-10.83,10.79-21.45,21.81-31.74,33.13-7.35,8.09-19.93,18.33-14.74,30.39,2.73,6.32,11.36,4.57,14.53,0a13.54,13.54,0,0,1-1.78,2.17,10.53,10.53,0,0,1,1.07-.73,16.59,16.59,0,0,0,2.81-2.28c1.47-1.46,2.7-3.26,4-4.85,3.67-4.37,7.53-8.58,11.37-12.79q12.91-14.1,26.43-27.65c17.81-17.92,36.13-35.35,55.3-51.83,37-31.82,77-59.31,118.66-84.61,12.43-7.54,25-14.94,37.84-21.72,6.13-3.24,12.35-6.29,18.64-9.23,5.85-2.73,11.79-6,18.4-6.06,12.84-.12,12.87-20,0-20" transform="translate(0)" fill="#fcd5cf"/><g clip-path="url(#c)"><path d="M525.23,276.77l-.79-.29c-2.29-.79-5.35-1.49,1.1.42l-.09,0-.22-.09" transform="translate(0)" fill="#ffcdc7"/><path d="M849.21,372.54c-7.26-3.18-14.27-5.94-22.19-7a208.77,208.77,0,0,0-25.33-2.08c-10.83-.18-21.66.11-32.44-.81A103.15,103.15,0,0,1,753,358.24c-1.11-.39-2.21-.81-3.31-1.21-3.1-1.34-6.19-2.67-9.23-4.11a257.47,257.47,0,0,1-33.5-19.3c-2.41-1.62-4.78-3.29-7.15-4.94-1.26-.94-2.53-1.87-3.78-2.81q-7.72-5.81-15.22-11.85c-9.69-7.8-19.15-15.84-28.66-23.83-20-16.86-40.55-33.51-63.11-47.39-23.49-14.45-49.63-24.45-76.29-32.53A463.87,463.87,0,0,0,337.8,191.93c-60.65,5.29-120.08,18-177.68,36.38-17.15,5.49-33.33,13.08-49.9,19.87l-1.84.75c-1.61.62-3.22,1.25-4.84,1.85-4.31,1.59-8.65,3.11-13,4.5a162.57,162.57,0,0,1-22.15,5.51c-2.23.17-4.46.25-6.69.21-.2-.84-.39-1.69-.55-2.54-1.35-6.87-8.18-14.12-14.4-17.53-6.71-3.68-16.61-5.24-24.14-3-17.3,5.25-25,19.88-21.87,36.09C5,295.85,23.33,314.22,46.87,318.13c20.76,3.46,41.64-.28,61.38-6.63,18.35-5.91,36-13.61,53.63-21.15,2-.86,4-1.7,6.06-2.54,1.34-.47,2.67-.94,4-1.37q22-7.19,44.38-13.27a771.47,771.47,0,0,1,99.9-20.32c36.29-4.31,72.55-5.77,108.93-1.63a469.41,469.41,0,0,1,85.36,20.25q5.34,1.8,10.62,3.73c1.09.4,2.19.86,3.29,1.28l.79.29c.35.13.71.25,1.07.35l-.76-.22c6.38,2.71,12.62,5.72,18.71,9s11.75,6.62,17.41,10.24q3.51,2.25,6.93,4.58,2.05,1.4,4.09,2.82l.71.51c45.08,33.84,84.64,76,137.06,100.3a286.53,286.53,0,0,0,27.64,11.09c10.15,3.48,20.63,5,31.38,5.92,15.24,1.33,30.59.08,45.81,1.44,3.51.53,7,1.13,10.44,1.94,14.81,3.5,30-3.37,36-16.53,5.43-12.07,1.3-29.6-12.48-35.65M61,260.84l-1-.32c-.76-1.06-.42-1.62,1,.32" transform="translate(0)" fill="#ffcdc7"/></g></g><path d="M752.8,178.37a133.86,133.86,0,0,0-12.38-17.11c-3.49-4.26-8.29-9.76-10.68-13-4.93-6.66-13.31-10-21-5.51a15.56,15.56,0,0,0-5.59,5.94l-1.07-.52c-6.17-2.89-13.27-2.69-18.33,2.37a15.42,15.42,0,0,0-2.36,18.33,107.61,107.61,0,0,0,6.69,9.83c-6.2,1.91-11.29,7.19-10.83,14.39a62.86,62.86,0,0,0,1.86,10.73c-4.63,6.85-1.4,16.67,7.18,19.78a18,18,0,0,0,22.55-9.82,28.47,28.47,0,0,0,7.24.32c7.35-.65,16-6.31,15.3-14.85,1.35.57,2.71,1.13,4.11,1.64,13,4.79,23.69-11.66,17.33-22.55" transform="translate(0)" fill="#fff6f5"/><path d="M661.39,221.81c-8.54,0-8.56,13.27,0,13.27s8.55-13.27,0-13.27" transform="translate(0)" fill="#fff6f5"/><path d="M320.75,55.76a86.32,86.32,0,0,1-14.37,2.45c-5.63.5-11.34.44-16.95,1.07-7.89.9-15.62,6.37-15.23,15.23a15.56,15.56,0,0,0,15.23,15.23,142.36,142.36,0,0,0,39.49-4.34c8.06-2,12.89-11.05,10.74-18.91a15.63,15.63,0,0,0-18.91-10.73" transform="translate(0)" fill="#fff6f5"/><path d="M248.07,78.91c-8,.83-15.26,3.1-21.19,8.8a27.63,27.63,0,0,0-8.22,20.52c.2,6.46,4.6,13.36,11.28,14.81,7.6,1.65,15.87,1.09,21.65-4.77a25.23,25.23,0,0,0,4.84-7.18c.37-.44.72-.9,1.07-1.38.6-.84,1.2-1.71,1.77-2.58a26.78,26.78,0,0,0,3.62-8.77A15.39,15.39,0,0,0,260.13,85c-2.7-3.5-7.38-6.54-12.06-6.06" transform="translate(0)" fill="#fff6f5"/><path d="M196.55,126.73c-3.23-.74-7.37-.75-10.15,1.33a33.69,33.69,0,0,1-4.25,2.62c-.65.35-1.34.61-2,1-2.34,1.3-3.88,3.5-5.33,5.67-3.32,5-1.36,13.83,4.29,16.37,2.49,1.11,4.8,2.18,7.6,2.18a15.53,15.53,0,0,0,5.53-1.18,30.39,30.39,0,0,0,7.42-3.9c2.85-2.13,5.07-4.3,6.05-7.87a13.45,13.45,0,0,0-1.32-10.14c-1.82-2.81-4.52-5.29-7.87-6" transform="translate(0)" fill="#fff6f5"/><path d="M388.67,41.9a19.45,19.45,0,0,0-8.07-.44,5.35,5.35,0,0,1-.69,0c-4-.35-8,1.89-10.86,4.5a14.21,14.21,0,0,0-4.35,10.34,11.46,11.46,0,0,0-1.27,4.45,12.21,12.21,0,0,0,8.82,13.35,30.74,30.74,0,0,0,12.22.58,14.57,14.57,0,0,0,12.1-2.72c4.9-3.78,6.46-9.55,5.29-15.51A19.92,19.92,0,0,0,388.67,41.9" transform="translate(0)" fill="#fff6f5"/></svg>