<svg xmlns="http://www.w3.org/2000/svg" width="562.69" height="446.54" viewBox="0 0 562.69 446.54"><title>uni</title><path d="M553.38,212.12c-1.59-18.27-12.59-42.56-35-47.57-47.91-10.7-72.73-14.91-107.6-21.05C343,131.6,300.53,129.93,240.65,135c-36.55,3.07-61.84-10.22-97.36,1.14s-73,12.39-91,70.11c-5.34,17-2.94,46.79,3.27,63.52,7.28,19.59,24.57,29.58,40.77,37,122.33,55.75,257.91,51.75,385.06,16.82,19.35-5.31,39.36-11.8,54.44-27.93s17.58-58.89,17.58-83.46" fill="#4f473a"/><path d="M93.63,242.85c-7.91-13.33-14.69-27.74-16.31-43.16S79.9,167.63,91.22,157c12.52-11.71,30.9-14.08,48-15.38A877.44,877.44,0,0,1,412.33,164c36.89,9,73.82,20.65,105.17,42.06,8.68,5.92,17.57,13.83,18.24,24.31.73,11.32-8.38,20.69-17.33,27.65C466.73,298.14,398,311.33,332.76,306.74S204.55,281.33,143,259.24" fill="#cfa40a"/><path d="M37.14,167.75a30.19,30.19,0,0,0,3.75,3.09c50,35,110.8,62.79,177.26,56.9,9.25-.82,18.75-2.36,27.17-6.65s15.63-11.81,16.93-20.24c1.81-11.76-7.73-21.16-17-28.44-48.47-38.1-108-64.78-172.41-77.26C61.56,93,41,91.7,28.93,93.21-1.39,97-1.3,111.79.79,124.92c2,12.57,22.77,29.64,36.35,42.83" fill="#82ad5f"/><path d="M61.08,171.21a31.08,31.08,0,0,0,3.74,3.1c50,35,110.8,62.79,177.26,56.9,9.25-.82,18.76-2.37,27.17-6.66s15.63-11.8,16.93-20.23c1.81-11.77-7.73-21.16-17-28.44-48.46-38.11-108-64.78-172.41-77.27-11.28-2.18-22.73-.89-34.66,1.62-21.83,4.6-29.63,17.08-27.53,30.21,2,12.56,12.9,27.58,26.49,40.77" fill="#d5db97"/><path d="M130.94,132.19c10-2.37,20.05,2.94,27.73,7.28l.48.28A15,15,0,0,1,173,134.9c9.81,1.68,13.81,10.61,13.82,19.27,11.66-1.39,23.87,1.38,30.56,9,2,2.32,1.9,6.59.16,9.34-4.4,7-11,9.66-18.28,10.12a16.4,16.4,0,0,1,.17,2.44,16.1,16.1,0,0,1-1.84,7.16,19.47,19.47,0,0,1-1.76,2.6c.27-.33-1.55,2.24-2,2.71-8.44,9.4-20.56,5.33-25.38-3a55.64,55.64,0,0,1-3.86-8.46,23,23,0,0,1-6.64,3,64.45,64.45,0,0,1-15.17,2.13c-11.84.24-26.62-2.81-28.13-15.16-1-8.15,5.12-14,12.6-17.49a37.44,37.44,0,0,1-3.08-2.66c-3.29-3.17-5.67-6.9-5.11-11.68.69-5.81,5.66-10.58,11.88-12.06" fill="#e3e6c3"/><path d="M74.09,74a28.31,28.31,0,0,0,2.18,4.24c31.65,50.84,76.21,99,139.8,118.34,8.86,2.68,18.24,4.8,27.75,4s19.23-5.05,23.88-12.33c6.5-10.15,1.57-22.35-4-32.5-29-53.11-72.82-99.81-127-135.27-9.48-6.21-27.85-15-39.62-18.13C67.66-5.52,61.66,8.14,58.2,21,54.89,33.32,67,56.76,74.09,74" fill="#82ad5f"/><path d="M94.69,86.05a30.32,30.32,0,0,0,2.18,4.24c31.65,50.85,76.22,99,139.81,118.34,8.86,2.69,18.24,4.8,27.75,4s19.23-5.05,23.88-12.32c6.5-10.16,1.57-22.36-4-32.5-29-53.11-72.82-99.82-127-135.28-9.48-6.21-20.55-9.28-32.56-11.41-22-3.89-34.28,4.7-37.75,17.56C83.73,51,87.6,68.85,94.69,86.05" fill="#d5db97"/><path d="M175,76.13c10.15,1.53,17.25,10.16,22.53,17l.34.44a15.25,15.25,0,0,1,14.7.69c8.34,5.19,8.36,14.9,4.81,22.87,11.31,3.06,21.41,10.15,24.44,19.67.92,2.9-1,6.77-3.69,8.66-6.91,4.78-14.09,4.79-21,2.51a16.86,16.86,0,0,1-.84,2.31,16.68,16.68,0,0,1-4.64,5.9,20.85,20.85,0,0,1-2.68,1.74c.38-.2-2.35,1.49-2.92,1.76C194.46,165.21,185,157,184,147.47a53.65,53.65,0,0,1-.07-9.23,23.32,23.32,0,0,1-7.37.33,64.11,64.11,0,0,1-14.84-3.68c-11-4.18-23.34-12.49-19.67-24.43,2.42-7.86,10.44-10.94,18.77-11.4A39.49,39.49,0,0,1,159,95.47c-1.72-4.15-2.39-8.47.09-12.66,3-5.1,9.56-7.63,15.89-6.68" fill="#e3e6c3"/><path d="M395.06,243.06c2.44-8.26.62-17.5-3.25-25.08s-9.59-13.77-15.39-19.66c-28.24-28.67-60.54-53.2-96.78-67.15s-76.71-16.74-113-2.94c-16.87,6.42-34.29,18.72-37.59,38.05-2,11.54,1.71,23.64,8.08,33.05,11.31,16.68,30.1,25.32,48.71,28.92s37.67,2.9,56.47,4.94A199.92,199.92,0,0,1,320.61,259c11.58,6.7,23.45,14.81,36.51,14.15,17.26-.87,33.47-15,37.94-30.09" fill="#fab62f"/><path d="M370.92,236.94c-39.54-47.45-99.12-69.07-157.34-74.79-7.62-.75-15.45-1.23-22.78,1.19s-14.14,8.33-16.05,16.5c69.21-5.59,139.93,14.56,198,56.42.27-1.34.55-2.68-1.84.68" fill="#e69a37"/><path d="M492.27,224.46c4.24-6.66,4.56-15.23,2.53-22.86s-6.18-14.49-10.47-21.11c-20.85-32.23-46.59-61.84-78.54-83.12S335.29,63.54,297,66.62c-17.79,1.43-37.45,7.9-45,24.06-4.52,9.65-3.7,21.2.35,31.06,7.17,17.47,23.41,29.75,40.62,37.55s35.83,11.93,53.57,18.42a214.11,214.11,0,0,1,70,42.2c9.69,8.76,19.36,18.85,32.15,21.53,16.91,3.53,35.81-4.86,43.55-17" fill="#fab62f"/><path d="M470.28,213.06c-27.56-51.55-80.37-85.4-135.46-104.93-7.21-2.56-14.69-4.94-22.33-4.64s-15.59,3.8-19.28,10.5a321.88,321.88,0,0,1,179,98.93c.57-1.11,1.14-2.22-1.93.14" fill="#e69a37"/><path d="M542.94,217.63c.62-9.42-3.12-18.66-8.49-25.58s-12.26-11.85-19.15-16.44c-33.54-22.34-70.16-39.19-108.36-43.74s-78.13,3.85-110.48,28.61c-15,11.5-29.35,29.38-28.44,50.71.54,12.74,6.68,24.48,14.88,32.63,14.54,14.44,34.64,18.29,53.5,16.87s37.23-7.51,56-10.63A179.85,179.85,0,0,1,474,255.35c12.68,3.81,26,9,38.5,4.69,16.59-5.76,29.34-25.25,30.48-42.41" fill="#fab62f"/><path d="M518.17,217.93c-48.52-39-111-45.11-168.86-34.81-7.56,1.34-15.28,3-21.89,7.64s-12,12.77-12.09,21.93a272,272,0,0,1,204.49,4c0-1.49,0-3-1.65,1.23" fill="#e69a37"/><path d="M312.79,238.06c-82.38,0-225.73-10.49-251.75-54.35-11.57,28.54-13.57,51.36-14.42,76-.93,27.49-4.94,80-6.81,107.46C37.34,403.36,36.55,406.47,77,417c93.85,24.35,232.71,32.46,305.81,28.7a393.5,393.5,0,0,0,157-40.07c17.56-8.63,17.47-12.45,21.08-50,4.78-49.62-.37-104.71-9.45-153.56-27,42.1-175.86,36-238.63,36" fill="#70644f"/><path d="M164.25,266.34c.12-.08.91.38,0,.06a3.72,3.72,0,0,1-1.19-.84c-1.58-1.36-2.73-3.24-4.09-4.79-3.12-3.58-7.22-6.62-12.24-5.88-4.66.69-7.21,4.07-9.77,7.6a120,120,0,0,0-6.23-12.09c-3.34-5.64-11-5.14-14.43,0a189.71,189.71,0,0,0-15.08,27c-.5-8.66.49-17.66.38-26-.11-8-.79-19.82-11.76-19.22-10.25.55-13.66,13.58-16.56,21.43C60.18,289.07,59,327.68,57.81,365.06c-.33,10.79,16.44,10.78,16.76,0,.62-20.53,1.21-41.16,4-61.55a231.83,231.83,0,0,1,5.81-29.42c.16-.62.34-1.23.51-1.85,0,1.28,0,2.57,0,3.85.29,10.86,2.21,21.72,8.34,30.89a8.4,8.4,0,0,0,15.15-2,179.25,179.25,0,0,1,14.42-33.19,101.12,101.12,0,0,1,3.7,10.46c2.16,7.38,11.19,7.66,15.29,2,2.22-3.06,4.36-6.71,6.77-10,.37.49.73,1,1.09,1.37a22.33,22.33,0,0,0,6.83,5.58A15.26,15.26,0,0,0,174,278.91c6.77-5.93-2.18-17.76-9.7-12.57" fill="#d9cbb4"/></svg>